<svg xmlns="http://www.w3.org/2000/svg" width="1999" height="1399"><path d="M3 14v-3c19.896-.41 39.752 1.947 59 7 23.9 6.487 44.412 9.03 65 18 43.254 18.845 82.21 47.525 109 83 6.62 8.768 16.374 16.138 23 25l52 69c2.93 3.957 8.045 7.087 11 11 8.636 11.436 19.772 26.57 39 27 3.214-2.754 6-5.175 9-8 1.5-31.456-12.5-56.95-24-79-15.858-30.416-31.055-58.066-50-85-9.763-13.88-21.72-26.386-32-40l-16-15-15-16c-3.444-2.605-7.057-3.93-9-8h7c3.158 4.866 7.76 7.228 12 11 10.665 9.49 24.46 23.634 33 35 28.23 37.567 55.9 75.207 76 121 10.11 23.042 27.02 51.082 19 83a29.37 29.37 0 0 0-6 4c-27.256.08-37.465-14.63-49-30-19.908-26.527-41.967-52.15-62-79-7.766-10.41-19.253-18.736-27-29C184.664 59.906 100.1 14.894 3 14zM0 169v-6c17.508-.22 37.483 5.32 52 10 14.684 4.733 29.2 4.436 43 10 32.95 13.285 66.68 26.1 88 51 16.758 19.57 26.844 51.22 42 73 7.185 10.324 11.1 21.626 21 29 25.8 19.213 69.246 21.472 103 33 4.688 1.6 7.42.17 12 2 17.073 6.826 36.816 13.115 54 20 7.034 2.818 12.534 1.66 20 4 9.876 3.094 24.5 5.92 36 2 31.917-10.886 27.027-58.606 18-92-2.35-8.69.187-14.4-2-23-11.248-44.205-5.522-103.233-20-145-11.525-33.246-31.3-73.6-52-98-10.877-12.82-24.68-25.046-34-39h8c9.2 14.553 23.947 26.022 34 40 20.882 29.037 35.655 61.038 50 97 3 7.517 1.7 13.77 4 22 10.383 37.233 6.16 86.377 16 123v11c1.092 3.153 3.1 12.63 4 16v12c10.72 36.954 4.465 71.138-25 82-10.4 3.835-27.815.3-36-2-5.916-1.664-9.48.14-15-2-23.464-9.1-49.38-16.923-73-26-7.528-2.893-13.45-1.153-21-4-5.524-2.084-15-4.376-21-6h-10c-19.965-6.013-38.376-11.028-53-22-27.2-20.408-41.324-71.212-62-100-21.32-29.684-62.14-41.77-99-56-6.99-2.7-13.7-1.653-21-4-17.347-5.575-39.868-11.738-61-12zM463 0a34.06 34.06 0 0 1 8 1c1.8 5.284 6.732 8.183 10 12 3.373 3.94 4.646 9.042 8 13 6.015 7.1 13.452 15.765 18 24 11.418 20.676 19.244 43.633 28 67v7c1.8 5.732 4.232 15.134 6 21v10c4.4 16.413 4 37.13 4 58 0 58.68-10.7 119.73 6 169 10.706 31.59 23.31 60.562 36 89 3.125 7 9.554 29.587 5 37-4.477 17.91-31.94 19.427-49 13-22.41-8.442-40.7-22.95-60-34-12.624-7.23-24.18-12.983-37-20-10.547-5.772-22.615-12.875-34-18-5.164-2.325-12.123-3-14-4 .02-.666-3.9-1.6-4-2-1.01.252-5.432-1.937-6-2-6.126-3.1-17.94-1.858-25-4h-17l-25-2h-30c-26.242-6.24-46.168-6.756-67-18-19.9-10.74-38.176-30-51-48-8.54-11.983-14.456-25.12-24-36-26.35-30.042-60.8-55.02-98-74-7.5-3.828-14.152-4.42-22-8-8.76-4-18.184-8.724-29-11v-6h2c3.235 2.076 7.078 1.29 11 3 8.267 3.6 18.063 8.335 26 12 4.712 2.176 8.58 1.377 13 4 28.193 16.725 54.448 33.113 79 53 41.2 33.372 52.516 86.277 106 111 14.847 6.863 33.51 7.637 51 12 13.327 3.325 31.83-.753 44 2h28c10.155 2.554 24.992 2.233 35 6 17.872 6.777 35.248 14.796 52 24 32.46 17.77 61.454 39.434 96 54 14.9 6.284 42.915 6.207 44-12 3.456-5.415-3.952-26.233-6-31-12.415-28.9-25.156-58.07-36-90-4.214-12.41-4.68-26.72-8-39v-15c-2.223-9.707-4.9-30.44-2-43 4.42-19.166 3.254-41.02 4-64 .23-7.067 1.126-14.54 0-20-2.894-14.034 1.582-30.806-2-44-2.59-9.544-2.77-21.882-6-32-8.87-27.79-18.747-53.713-32-77-6.5-11.413-16.1-22.368-24-33-3.817-5.137-9.714-8.158-12-15zM3 442v-4c10.7.354 19.206 4.7 27 8 7.193 3.046 13.715 4.1 20 8 18.952 11.75 29.65 32.523 42 51 19.19 28.71 41.22 58.842 71 77 46.824 28.55 116.474-6.454 158-19 11.42-3.45 33.016-9 50-5 80.848 19.1 118.667 66.12 183 100 35.356 18.62 79.336 30.838 125 12 35.842-14.786 78.87-54.507 63-113-6.567-24.205-14.025-47.644-26-67-10.68-17.265-23.485-34.64-32-54-7.85-17.85-12.715-37.754-18-58-5.073-19.434-6.77-70.016-2-91 2.03-8.927.257-18.362 2-26q1.5-25 3-50c2.895-13.358 4.294-52.633 1-67q-3-18.5-6-37c-5.713-20.164-11.994-39.787-20-58a263.74 263.74 0 0 0-18-33c-3.286-5.213-8.788-9.763-11-16h5c15.716 25.945 31.37 52.238 42 84 6.476 19.348 7.066 40.54 12 62 2.345 10.2 1.04 52.126-1 61q-1.5 26.5-3 53c-4.93 22.294-7.724 80.2-2 104 5.667 23.566 9.2 45.865 18 66 9.657 22.1 23.84 42.045 36 62 12.373 20.306 18.812 44.778 25 71 2.555 10.824 1.3 25.736-1 35-11.993 48.23-33.273 64.2-77 80-41.4 14.95-86.1.12-115-15-63.178-33.047-105.146-82.5-183-101-14.835-3.525-33.445.458-45 4-27.91 8.557-51.753 18.022-79 26l-17 2c-10.688 2.517-32.948 4.406-45 1-9.45-2.67-20.12-6.12-28-11-31.415-19.45-53.595-53.544-74-84-16.4-24.472-24.836-37.623-54-50-7.557-3.207-15.608-7.517-26-8zM1209 0h4c-.4 10.526-.76 23.943-3 34-2.4 10.792-.54 30.66 0 40 .85 9 1.67 18 2 27 6.66 28.89 9.42 56.77 20 81 16.35 37.443 42.3 66.16 65 97 23.86 32.42 47.58 65.248 64 105 30.14 72.953 19.17 184.97 54 252 23.45 45.138 60.28 75.728 80 124 14.7 35.958 2.5 73.624-21 90-29.4 20.48-96.36 22.233-135 8-18.47-6.8-35.2-16.637-50-27-57.18-40-103.4-108.678-133-176-32.13-73.057-55.63-148.413-120-189-88.066-55.532-225.7-46.015-270-148-7.135-16.426-10.45-35-15-54-2.126-8.877-1.21-18.884-3-27v-20c-5.94-26.78.38-58.47-6-84-8.828-35.326-19.083-69.167-36-97-6.74-11.1-17.8-23.555-22-36h5c6.16 13.02 15.5 25.7 23 38 16.022 26.268 25.68 61.556 34 95 5.51 22.15-.14 48.893 5 72v21c2.22 10.026.506 21.354 3 32 4.843 20.675 8.346 40.5 16 58 43.217 98.824 185.9 94.03 273 149 41.65 26.286 68.5 72.658 89 120 8.83 20.388 14.27 40.48 24 60 35.05 70.3 72.14 137.53 134 181 10.73 7.538 22.3 16.477 35 22 41.57 18.082 111.26 24.27 148-3 21.9-16.257 31.3-51.818 18-84-18.22-44.12-52.95-72.557-75-113-15.2-27.89-21.47-59.612-30-95-3.52-14.582-.6-28.1-4-43-9.2-40.24-7.84-82.68-22-117-30.12-73.03-81.22-121.324-120-185-8.4-13.812-11.98-28.647-18-45-5.18-14.07-8.16-31.912-12-48-1.95-8.16-2.66-29.35-3-31-.1-.536.06-2.216 0-3-.5-6.133-2-15.7-1-21 .53-1.615-.28-3.288 0-4-1.06-6.4 2.8-46.1 3-56zm-88 0c-.8 47.465-4.06 94.833 10 132 1.9 4.993.08 8.224 2 13 16.68 41.5 34.16 79.068 58 113 10.24 14.58 23.62 27.79 34 42 3.67 5.028 5.95 10.376 10 15 5.16 5.9 12.07 12.058 16 19 20.155 35.265 37.54 72.042 52 110 11.12 29.558 17.48 60.98 26 93 2.78 10.44 1.77 23.2 4 33 4.58 20.1-7 51.094-17 57-25.22 14.876-54.75-1.1-69-15-42.7-41.67-68.27-99.262-108-144-26.97-30.368-67.3-46.24-108-63-11.07-4.56-21.06-5.233-32-10-47.5-20.69-95.985-41.746-128-78-17.96-20.336-28.944-47.855-38-77-4.566-14.7-4.168-32.425-8-47v-15c-2.88-12.1-3.038-29.025-6-41v-11c-3.55-11.885-3.965-25.58-8-38-10.257-31.573-20.944-61.577-36-88h7c2.566 10.167 10.24 20.33 15 29 2.577 4.692 1.75 9.337 4 14 8.84 18.316 13.57 41.06 20 62 6.926 22.557 3.874 51.227 10 74 1.857 6.9-.786 21.63 2 31 4.128 13.885 4.575 30.4 10 44 12.21 30.6 27.345 56.968 50 77 33.918 30 83.13 47.455 128 66 19.17 7.922 37.73 11.535 56 20 30.26 14.02 54.75 34.873 76 58 6.67 7.263 9.6 17.424 16 25 30.35 35.96 50.35 81.4 86 112 12.46 10.7 45.1 23.924 62 7 6.47-6.48 14.18-38.392 10-55-3-11.9-2.1-26.528-6-39-10.25-32.868-16.47-66.886-30-97-15.75-35.07-30.67-71.278-52-101-8.77-12.224-20.23-23.6-30-35-1.96-2.292-2.05-5.695-4-8-12.66-14.95-24.62-31.85-36-48-1.6-2.272-.63-4.528-2-7-2.5-4.5-7.5-9.423-10-14-12.9-23.573-23.1-50.143-32-77-2.63-7.945-1.46-14.612-4-23-9.03-29.8-11.74-79.63-5-115h5zm-78 0h6c-10 117.962 25.96 211.925 80 273 10.56 11.938 20.9 28.17 26 45 2.72 8.976-1.96 21.053-6 24-9.37 6.826-28.3 9.1-43 5-24.322-6.76-48.064-15.454-71-26-9.13-4.2-17.22-5.582-26-10-27.232-13.695-54.252-33.727-70-59-12.6-20.212-18.267-44.384-26-70v-10c-3.533-13.027-4.534-30.406-8-43-1.876-6.818.368-11.543-2-18-5.65-15.407-8.182-34.356-14-49-1.8-4.538-.16-7.48-2-12-6.5-15.967-14.887-33.74-20-50h6c10.445 24.44 19.213 51.255 28 78 4.67 14.215 5.9 29.644 10 43v9c5.227 19.03 5.425 45.072 12 63v8c15.054 40.477 31.977 69.95 65 92 26.4 17.628 64.2 29.464 95 42 3.15 0 5.85 1.333 13 4 3.1.31 7.94 1.768 8 2 2.9-.713 6 1 9 1 22.16 3.2 36.34.355 36-24-5.85-6.845-8.5-20.323-14-28-5.08-7.1-12.8-13.04-18-20-7.55-10.125-14.34-21.044-22-31-7.94-10.313-11.9-25.782-18-38-18.9-37.946-32.12-86.9-36-139-1.3-17.49 1.86-43.99 2-62zm342 0h4c4.57 19.678 17.64 32.2 28 46 34.6 46.026 93.23 69.06 143 100 94.48 58.737 160.5 120.5 198 237 6.2 19.227 7.34 40.732 12 61 2.75 11.973 4.47 48.71 2 60v21q-1.995 16.5-4 33c-15.74 55.654-35.56 99.625-79 127-12.43 7.836-27.97 14.4-43 19-35.5 10.863-77.48 12.5-90 46-11.14 29.808 3.9 79.768 10 105 3.3 13.62 2.9 33.3 0 46-2.6 11.418-2.1 19.565-6 29-14.63 35.52-45.57 56.3-84 68-82.83 25.22-190.16-9.97-258-28-44.86-11.923-101.8-5-133 14-42.38 25.8-70.5 62.28-99 102l-72 99c-27.957 39.74-51.463 78.38-107 91-6.522 1.48-18.035.14-23-1q-9.5-1.005-19-2c-13.975-3.88-25.4-10.02-36-17-57.555-37.9-93.118-101.12-141-149-16.655-16.66-32.326-31.04-56-41-7.293-3.07-21.653-9.7-33-5-17.91 7.44-14.574 24.4-19 45-1.143 5.32-2.5 17.12-1 24 2.852 13.1-.068 27.24 3 41 7.422 33.28 4.475 72.02 12 106 2.387 10.78-.456 24.83 1 32 1 4.93-.266 12.64-1 16v23c-2.743 11.9-4.137 25.7-8 36-2.42 6.44-2.046 14.9-10 16v-2c12.966-13.95 10.993-42.4 15-66 1.8-10.66 1.944-35.17-1-48v-16c-3.35-14.88-2.57-33.65-6-48-5.288-22.13-1.937-48.1-7-70v-12c-6.488-29.8.944-75.03 22-81 12.025-3.4 26.16 2.13 33 5 13.895 5.62 27.004 13.015 39 22 5.118 3.82 8.96 10.18 14 14 16.237 12.3 29.77 29.67 42 46 8.61 11.5 20.376 21.5 29 33 20.536 27.38 43.85 53.23 72 73 11.484 8.07 23.5 15.6 39 20 8 2.28 14.17.06 23 2 5.132 1.13 14.392 1.7 21 0 52.176-13.3 77.874-58.4 105-97 23.313-33.2 48.7-65.98 72-99 27.08-38.38 56.1-75.63 99-98 30.35-15.823 86.38-23.52 129-12 14 3.782 28.6 5.6 43 10 52.77 16.144 145.53 39.94 211 20 44.95-13.69 73.26-34.752 89-78 3.93-10.8 8.67-38.767 5-54-6.83-28.322-23.42-86.69-10-119 15.66-37.7 76.83-36.718 114-53 46.75-20.476 75.36-65.02 92-116 4.13-12.668 4.88-26.9 8-40v-12c4.77-21.85 2.8-54.672-2-75v-10c-8.45-34.39-13.2-67.64-26-97-31.08-71.28-83.74-126.867-145-168-26.57-17.844-54.56-34.2-82-51-14.4-8.82-29.2-14.806-43-24-12.8-8.525-23.98-19.926-36-29-19.3-14.567-43.1-42.693-49-70zm78 0c.87 14.64 13.1 23.842 20 33 20.4 27.106 52.34 40.975 83 58 15.72 8.73 30.6 20.855 45 31 7.57 5.325 15.97 9.052 23 15 14.68 12.42 31.23 23.717 52 30 13.32 4.03 29.74-2.492 37-6 5.5-2.656 9.84-3.135 15-6 19.86-11.032 35.88-28.973 54-42 51.9-37.314 121.75-60.064 208-60v6c-85.57-1.738-151.42 21.122-201 56-23.58 16.585-42.22 38.46-71 50-9.15 3.67-24.83 12.435-41 8-25.6-7.02-41.45-20.668-60-34-21.2-15.23-42.96-31.246-66-44-36.95-20.45-95.16-49.748-105-95h7zm324 0v3c-5.75 2.794-8.68 9.66-13 14-9.1 9.136-21.5 19.737-33 26-51.75 28.213-101.6-8.652-122-43h7c5.32 9.773 14.57 17.184 23 24 9.26 7.487 18.52 16.678 31 21 22.66 7.85 48.2-.8 63-10 6.07-3.77 21.76-15.717 26-21 4.83-6.008 7.63-13.444 18-14zm-478 25c22.77 1 29.6 20.314 38 36 12.55 23.442 22.78 49.123 44 64 7.04 4.938 14.78 6.226 23 10 33.1 15.2 74.65 23.656 103 44 14.87 10.675 24.5 27.956 30 48 6.26 22.8-.7 40.5 12 58 4.64 6.387 12.08 10.775 18 16 16.5 14.57 36.3 26.546 52 42 24.73 24.323 43.6 54.344 58 89 5.57 13.39 8.15 29.1 12 43v8c5.92 19.73 7.8 59.2 0 79-11.02 27.97-28.82 49.265-54 63-14.54 7.93-48.87 19.663-70 16l-9 1c-8.98-.313-24.6-.43-33-3-41.13-12.58-76.24-28.36-94-64-7.44-14.942-5.57-31.4-10-50-2.16-9.062-4.25-31.5-3-40 .9-6.232-.73-17.574 1-25 7.34-31.42 10.24-80.962-2-109-15.27-34.955-34.9-63.345-56-92-3.17-4.3-8.76-7.684-12-12-19.82-26.38-44.65-49.372-60-80-13.74-27.42-21.35-90.858-6-124 1.82-3.927 6.5-11.51 10-14 2.58-1.84 5.92-1.71 8-4zm0 6c-7.3 8.65-11.86 10.967-16 24-13.42 42.254 1.02 95.12 16 122 6.7 12.024 17.12 22.936 26 33 9.34 10.577 16.65 22.46 26 33 2.53 2.852 6.72 4.95 9 8 23.03 30.855 45.4 61.477 61 100 9.33 23.02 10.66 62.3 4 89v13c-2.98 12.78-5.18 35.76-2 50v20c.9 3.376 2.9 12.846 4 16v10c1.83 6.064 3.17 14.845 6 21 14.92 32.422 43.75 47.35 80 59 15.8 5.074 38.4 10.392 58 6h16c19.78-5.932 37.85-10.965 54-20 33.66-18.826 59.23-74.963 44-130-9.7-35.07-18.35-65.92-34-94-6.07-10.886-16.6-19.484-24-29-5.5-7.082-11.9-15.65-19-21-11.9-8.956-23.1-19.44-35-28-9.84-7.072-21.02-14.206-28-24-4.116-5.89-7.476-12.273-10-19-3.5-9.634 1.02-22.75-2-33-5.96-20.2-10.67-38.475-25-50-28.57-22.976-74.16-31.858-109-48-8.94-4.144-17.95-6.036-25-12-19.62-16.608-30.6-41.23-43-65-6.84-13.1-12.7-30.706-32-31zm691 249v3c-54.85-.95-86.77 36.49-72 97 3.77 15.464 5.33 31.424 10 47 16.07 53.642 35.97 142.155 18 209-15.25 56.706-39.73 105.34-82 135-28.25 19.82-69.8 29.258-90 57-15.18 20.84-20.65 51.5-28 80-4.14 16.055-2.7 31.587-8 46-8.93 24.256-23.76 41.217-35 63-4.38 8.48-11.1 22.58-7 36 13.14 43.1 95.43 41.95 137 59 44.9 18.42 82.6 44.2 109 81 7.12 9.93 11.5 20.27 18 31 11.1 18.3 20.4 41.64 29 62 1.5 3.53 1.13 14.68 0 17-3.77-18.4-12.38-35.96-19-51-28.34-64.4-71.32-109-137-136-44.02-18.1-128.2-15.7-141-63-3.85-14.2 3.05-29.38 7-37 11.18-21.593 26.3-38.57 35-62 5.14-13.86 4.1-28.245 8-44 7.95-32.024 13.95-65.093 31-88 18.37-24.68 62.07-35.8 88-54 39.1-27.444 63.52-71.95 79-123 25.1-82.845-5.9-185-24-255-2.04-7.876-.18-13.612-2-22-12.52-57.72 21.96-88.264 76-88zm-445 143c30.45-.64 35.36 20.537 42 43 7.38 24.977-4.07 47.936-21 53-7 2.094-18.9-.625-23-2-5.8-1.947-9.25-1.36-14-4-11.92-6.62-19.82-25.65-14-44 3.7-11.692 9.17-26.463 16-36 3.4-4.762 10.12-5.813 14-10zm0 6c-2.34 2.872-6.93 4.032-9 7-10.8 15.462-27.3 55.972-6 71 12.42 8.765 46.58 10.49 49-8 5.63-4.987 3.68-18.115 2-25-3.7-15.16-4.35-26.516-12-37-2.48-3.4-7.25-4.862-10-8h-14zm-659 87c36.6-.79 73.376 11.585 88 32 16.37 22.855-2.267 52.4-17 63-4.778 3.438-12.02 7.4-18 9-32.407 8.654-52.7-25.458-63-41-6.33-9.555-18.9-24.146-13-42 4.93-14.93 12.442-13.016 23-21zm5 3c-2.13 1.354-5.32.86-8 2-7.293 3.1-14.775 10.884-17 19-3.964 14.46 5.65 24 10 31 11.678 18.763 38.458 61.884 72 41 6.345-3.95 11.517-10.02 16-16 3.93-5.24 9.643-10.04 12-17 4.5-13.294-3-22.3-8-29-14.3-19.186-43.693-31.324-77-31zM3 1055v-3c9.775.367 19.5 1.707 29 4 5.52 1.28 13.69.02 18 1 10.67 2.43 35.1.06 44-2q9-.495 18-1c26.958-6.55 52.8-10.27 73-23 56.216-35.427 82.714-104.64 151-127 22.4-7.335 72.852-7.732 98-2h14c8.643 1.927 21.46 2.035 30 4 16.22 3.73 36.255.415 52 4h25c18.565 0 40.477 1.53 56-2h12c11.453-2.7 24.19-2.783 36-6 55.784-15.2 110.59-41.73 141-82 4.5-5.955 11.58-10.854 16-17 12.356-17.183 20.78-34.335 28-57 2.762-8.668 6.866-25.35 3-37-10.1-30.44-45.01-30.9-71-15-34.07 20.847-55.832 52.516-95 69-10.846 4.565-29.764 12.186-48 8-18.434-4.23-35.874-6.366-52-13-62.367-25.657-115.03-59.464-184-78-19.254-5.175-44.546-2.727-62 2-13.832 3.746-25.72 3.966-39 8-32.788 9.96-89.016 26.63-130 14-47.835-14.742-62.5-59.433-98-86-13.623-10.2-28.656-20.9-45-28-6.507-2.828-18.653-2-20-10h2l26 9c15.686 6.885 29.87 18.107 43 28 27.97 21.075 42.673 56.242 73 75 9.87 6.105 23.493 8.99 36 12 13.62 3.28 43.362-.576 56-4 11.306-3.064 21.107-2.7 32-6 34.4-10.43 90.8-29.063 134-16 78.913 23.863 135.78 66.755 217 88 23.346 6.107 47.77-1.06 63-9 35.8-18.66 57.994-50.81 93-69 22.8-11.85 60.184-11.06 70 12 4.95 11.627 3.54 33.393 0 45-6.9 22.63-14.012 39.947-26 57-4.23 6.02-10.63 11.2-15 17-31.707 42.123-83.557 68.7-141 85-15.285 4.338-32.3 4.378-48 8h-15c-15.825 3.482-55.164 3.587-71 0h-22c-14.38-3.19-30.438-.552-46-4-9.286-2.057-22.64-1.865-32-4h-15c-19.715-4.283-57.347-3.424-75 2-51.636 15.867-80.02 60.02-114 94-6.51 6.5-12.582 14.5-20 20-52.22 38.72-119.85 45.1-205 35zm1077-450c7.6-.14 10.8 1.566 16 3 20.34 36.187 28.46 85.736 50 121 32.86 53.81 80.43 94.868 130 132 15.7 11.758 42.1 35.28 51 53 3.74 7.436 5.52 20.1 2 29-19.15 11.1-55.03-5.473-72-11-42.88-13.963-117.1-29.88-166-10-37.88 15.4-81 49.56-104 80-4 3.67-7 8.33-11 12-7.382 9.77-15.593 18.18-23 28-3.52 4.67-9.474 8.32-13 13-13.374 17.76-28.648 33.3-42 51-5.52 7.3-14.5 12.73-20 20-17.95 23.75-43.935 45.56-74 57-7.794 2.97-22.02 8.17-35 5-30.22-7.4-47.253-28.1-63-50l-55-75c-7.9-10.68-16.476-23.07-27-31-11.8-8.9-24.526-17.94-41-22-15.332-.33-40.648-2-46-1-34.45-.25-38.457-1.76-48-3-.3.15-9.667-2-10-2 0-.33-8-1.67-8-2-.06.02-6.33-1.84-6-2-16.984-2.645-38.7-9.57-50-18l-6-8a107.73 107.73 0 0 1 1-15c4.486-3.442 7.118-8.78 13-11 14.46-5.454 51.28-5.613 68-2 12.42 2.684 28.694.265 40 2l68 1c57.81 0 111.18-3.9 153-21 54.546-22.3 97.67-59.543 120-114 7.625-18.6 10.63-40.64 16-61 3.288-12.467 2.738-23.87 9-33 1.793-2.614 5.72-3.812 8-6 41.8.706 65.73-2.232 91-20 2.908-2.045 5.2-5.9 8-8 6.74-5.082 14.4-11.908 19-19-.33 0 1.33-2 1-2-.93.913 4.25-4.67 3-4 0-.667 4.1-4.34 4-5 7.76-6.933-.1.96 7-7 .37 2.076 2.24-3.2 4-5-.66.12 4-4.333 4-5 7.04-4.825 6.92-8.13 12-15 6.07-8.2 14.05-12.573 22-19zm3 3c-6 5.688-14 9.344-19 16-26 34.653-49.86 70.464-93 88-18.123 7.366-43.267 3.523-65 6-2.925 4.55-7.76 7.647-10 13-3.982 9.52-3.268 19.292-6 30-5.14 20.15-8.38 40.93-16 59-25 59.286-75.4 98.314-140 118-32.18 9.806-69.853 13.885-110 14l-41 1c-10.366-2.2-25.378 1.467-37-1-7.546-1.6-17.352-1.983-26-2-27.828-.056-72.906-7.924-96 2-5.748 2.47-7.89 7.955-12 12v7l10 11c18.06 12.317 45.51 14.322 70 20 10.892 2.53 22.306 2.7 33 3 24.078.67 52.068-2.5 72 5 23.72 8.92 40.984 28.05 55 47l62 84c12.78 17.2 42.52 52.64 77 43 11.55-3.23 21.208-10.24 31-15 .61-.435 1.285-.773 2-1 2.885-2.5 10.155-6.4 15-10q18.5-17.505 37-35c10.54-13.95 24.6-25.18 35-39 24.692-32.8 50.953-62.53 79-92 16.797-17.68 35.2-33.75 55-48 21.8-17.918 17.52-13.094 19-14 13-7.952 16.72-13.81 63-20 9.65-1.29 11.45-.345 22-1-3.76-.142 2.4.24 6 0h4c0-.333 11 .333 11 0 9.12 2.244 11.52.573 21 3 6.34 1.625 11.7-1 17 0v1c-3.87-.147-9.72-.537-12 1 10.47.05 19.83 3.487 28 6 20.56 6.326 39.1 9.46 59 16 12.5 4.108 26.53 8.9 41 6 2.56-4.308 4.02-6.445 4-14-2.57-3.658-2.85-9.053-5-13-2.82-5.19-7.37-10.187-11-15-4.56-6.056-11.88-11.38-18-16q-3.495-4-7-8c-15.73-11.8-30.2-24.22-46-36-9.64-7.19-17.48-17.82-27-25-30.78-23.226-57.17-56.99-76-92-13.34-24.794-20.8-54.43-31-82-4.2-11.37-6.68-27.035-18-31-1.68-1.344-3.14-1.637-6-2zm236 83c14.6-.013 21.85 2.075 30 8 13.3 9.673 18.76 26.083 28 40 15.52 23.386 48.5 46.734 46 83-2.2 1.664-2.03 2.836-5 4-12.23 7.675-36.3-14.452-42-19-22.7-18.135-60-53.862-69-84v-19c2.13-1.833 1.36-3.56 3-6 2.03-3.024 6.4-4.47 9-7zm98 130c4.42-27.68-34.44-63.488-48-84-8.3-12.56-12.87-24.538-24-34-6.62-5.623-15.77-6.547-26-6-5.7 8.507-6.2 10.844-6 26 6.3 7.13 8.54 18.212 14 26 14.413 20.313 31.966 38.203 52 53 10.96 7.982 20.44 20.54 38 19zm-625-89c9.03-1.238 16.393-1.626 20 3 1.934 2.333.7 4.96 1 9-2.464 3.256-2 8.064-4 12-1.228 2.43-1.712 5.76-3 8-1.845 3.207-2.76 5.234-5 8-20.784 25.653-61.266 69.266-98 77-5.242 1.1-8.654-1.736-14-2-6.522-7.467-12.166-7.83-12-23 2.014-2.28.538-3.546 2-7 3.025-7.146 10.927-17.574 17-22 10.618-7.738 23.25-12.306 34-20 13.713-9.815 26.306-22.2 40-32a73.29 73.29 0 0 1 22-11zm1 5c-4.557 4.934-16.94 8.954-23 13-17.423 11.633-32.19 28.682-51 39-17.344 9.513-36.24 18.148-36 45 3.775 3.05 3.447 6.3 10 7 10.78 8.256 32.76-7.947 39-12 24.558-15.952 46.786-36.7 63-61 5.642-8.46 18.692-28.315 12-31-.258.342-5.278-4.326-14 0zM0 760c12.554 1.44 34.415 13.886 46 19 22.6 9.974 48.82 14.47 73 22 7.107 2.213 11.64.018 19 2 25.627 6.9 70.818 6.373 97 0h13c11.406-2.665 26.887-3.176 38-6h12c15.476-4.126 36.335-3.76 52-8h17c29.084-6.51 63.792-2.677 72 19v16c-3.192 3.237-5.207 8.446-9 11-5.466 3.68-15.65 6.1-22 8h-11c-36.867 9.83-82.427-6.915-117 4-51.668 16.313-83.426 49.334-130 70-15.054 6.68-67.426 16.1-88 12H31a154.04 154.04 0 0 0-31-4v-6a143.3 143.3 0 0 1 27 4h25c23.935 5.007 61.908-2.165 80-8h6c38.775-14.87 65.93-39.7 100-58 15.508-8.33 33.817-12.65 52-18h12c28.145-6.3 68.02 5.446 98-2 13.818-3.432 32-2.43 33-18 2.7-4.716-2.687-17.492-6-20-2-1.513-3.518-.778-6-2-17.608-8.674-57.894-4.583-77 0h-13c-32.366 8.04-69.972 6.13-103 14h-19c-15.758 3.5-49.664 4.1-66 0-52.375-13.13-101.03-23.01-143-46v-5zm2000 67v5c-39.06 14.607-74.06 39.42-93 74-4.4 8.027-5.94 15.54-10 24-6.4 13.317-16.63 41.294-4 56 13.04 15.18 35.9 13.74 57 21 12.88 4.43 23.8 11.85 33 20 7.18 6.37 13.9 10.28 17 23-.665.075-1.335.075-2 0-9.9-17.3-33.44-32.6-54-39-2.67 0-6.33-2-9-2-16-4.9-37.15-6.8-46-19-13.85-19.082-4.7-47.025 4-65 18.92-39.135 34.5-61.38 72-82 9.8-5.39 21-15.527 35-16zM951 866c17.454-.227 26.507 11.15 26 29-3.19 5.292-2.6 13.5-5 19-7.67 17.6-27.5 44.656-53 38-1.14-4.073-3.924-8.364-5-12-2.807-9.49 1.258-22.34 4-27q1-5 2-10c3.547-9.225 8.25-17.96 14-26 4.112-5.624 11.424-6.753 17-11zm0 4c-4.937 4.7-11.963 7.445-16 13-11.055 15.21-18.785 42.072-14 64 2.105 1.17 4.11 2.507 6 4 21.134-4.236 32.4-23.84 41-41 2.837-5.664 6.266-20.43 3-26-2.013-7.373-8.222-9.472-13-14h-7zM822 989c21.418.007 34.98 10.12 35 32v11c-7.018 22.8-20.467 44.34-38 57-5.83 4.2-17.152 13.94-30 10-30.635-9.4-57.495-58.9-24-84 10.5-7.87 24.252-14.76 37-20 6.64-2.73 15.025-1.742 20-6zm0 6c-6.226 5.13-17.208 4.5-25 8-17.6 7.88-52.774 26.58-40 57 1.716 4.1 5.66 8.5 8 12 3.877 5.8 7.333 12.17 13 16 31.894 21.57 57.783-24.3 67-44 3.155-6.74 11.267-23.4 5-33-2.815-10.97-13.8-16.274-28-16zm-448 405c.937-10 5.66-20.6 8-31 2.99-13.3.323-42.35-2-53-2.94-13.48-1.3-27.68-4-40-3.22-14.68 1.3-27.76-2-43-5.123-23.68-.527-64.17 4-84 2.686-11.77 1.657-24.25 4-35v-19c8.46-40.35-7.645-77.68-37-85-22.525-5.62-39.927 5.76-52 14-31.322 21.4-52.107 53.56-82 76-20.52 15.4-41.954 28.9-69 38-39.015 13.1-89.722 9.75-139 10v-4c54.07 4.38 114.225 1.8 154-15 21.865-9.23 39.233-23.6 57-37q9.5-10.005 19-20c19.8-17.62 36.4-37 59-52 10.343-6.86 27.292-18.76 48-14 26.573 6.1 37.11 16.54 44 42 4.176 15.43 3.387 48.74 0 64v13c-4.1 18.22-3.907 39.56-8 58-2.183 9.84-.884 46.5 1 55q1.5 22.995 3 46c7.36 33.55 8.6 87.34-3 116h-3zm1475 0h-3c.4-28.43-6.66-57.47-14-80-4.45-13.68-6.6-25.56-12-38-22.6-52.08-60.9-90.32-114-112-16.5-6.74-35.74-9.5-54-14-13.93-3.44-29.5-1.08-43-4-12.16-2.63-45.95-.16-56 2-15.2 3.27-28.27-1.1-43 2-31.35 6.6-81.42 5.88-111-2-59.9-15.95-111.1-36.9-168-54-31.88-9.58-67.52-3.22-89 11-58.6 38.8-79.5 119.53-114 183-8.25 15.18-19.2 29.38-29 43a383.66 383.66 0 0 1-41 48c-5.6 5.6-9.345 14.6-20 15v-2c8.406-5.74 14.862-14.86 22-22 35.5-35.5 60.22-76.23 84-124 27.6-55.46 48.48-115.73 100-147 22.9-13.9 62.6-16.25 93-7 38.9 11.84 76.32 26.4 114 40 17.68 6.38 36.7 9.3 55 14 28.74 7.36 83.74 6.4 113 0h16c12.84-2.73 30.15 1.14 45-2 7.3-1.54 38.88-2 48 0 9.9 2.18 21.55 1.32 32 4 23.17 5.94 45.04 11.27 65 20 71.27 31.18 122.73 124.56 124 226zM0 1368v-5c15.48-1.82 32.32-6.8 45-12 7.86-3.22 14.4-2.56 22-6 14.83-6.7 30.625-14.04 45-22 30.306-16.78 55.9-41.6 81-64 15.115-13.5 26.093-31.17 42-44 4.9-3.95 12.217-13.7 24-10 22.738 7.12 34 27.4 26 56v11c-10.978 35.62-19.824 68.47-38 96-6.276 9.5-14.7 31.92-29 32v-2c9.46-6.38 14.81-18.23 21-28 18.065-28.5 30.025-60.36 40-98 8.4-31.74 1.745-60.9-30-61-2.82 2.67-7.007 3.43-10 6-6.12 5.25-11.1 12.5-16 19q-7.5 7.005-15 14c-6.366 6.9-12.356 14.35-19 21-30.155 30.17-65.577 52.88-107 72-23.164 10.7-50.812 23.38-82 25zm1702 32h-3c-.54-48.26-22.25-91.4-57-106-17.23-7.24-44.35-7.98-67-8-7.52-.01-17 1.78-23 1-11.16-1.45-28.3 1-42 1-51.25.02-104.57 2.77-144-10-37.15-12.03-70.6-28.73-108-40-14.56-4.4-37.62-6.4-50 1-25.16 15-28.02 48.38-39 78-5.07 13.66-11.42 28.3-17 41-4.1 9.36-14.54 40.76-24 42v-2c5.73-6.3 7.85-15 12-23 11.44-22.03 20.88-47.24 30-72 10.52-28.55 12.9-57.52 40-69 17.1-7.24 41.83-.74 56 4 39.58 13.23 73.15 28.73 114 40 17.13 4.73 35.94 2.8 54 7 8.14 1.9 17.05-.97 23 0 15.64 2.55 46.07 2.5 61-1h42c18.08-4.05 65.8.36 81 6 38.16 14.16 61.06 58.47 61 110zM593 1265c22.34.08 42.57 29.57 55 42 33.44 33.44 69.864 70.97 116 91v2h-10c-4.355-4.3-10.59-5.64-16-9-11.56-7.18-22.86-15.9-34-24-6.8-4.95-12.32-12.95-19-18-17.118-12.93-31.94-28.94-47-44-9.98-9.98-26.457-33.5-44-34-13.147 26.88 4.23 79.28 13 102 3.723 9.64 4.08 18.5 8 27h-6c-3.646-8.44-4.77-16.3-8-26-4.856-14.6-9.622-32.14-14-48-2.27-8.22.022-14.12-2-23-1.75-7.68-3.388-19.5 0-28 1.533-3.85 5.664-6.88 8-10zm691 135h-6v-2c2.13-3.44 1.1-8.1 3-12 3-6.18 14.23-14.1 25-12 26.1 5.12 51.48 9.67 76 17h10c18.85 4.7 43.23 4 67 4 20.15 0 39.9.24 56-4h15c5.7-1.37 19.46-4.35 28-2 6.28 1.73 10.32 5.9 15 9v2h-7c-8.6-10.54-43.8-4.16-56-1h-17c-10.17 2.17-25.12 1-37 1-26.8 0-54.16.52-75-5h-9c-24.02-7.14-49.72-15.06-78-14-4.82 6.16-8.78 8.4-10 19z" fill="#575757" fill-rule="evenodd"/></svg>