<svg xmlns="http://www.w3.org/2000/svg" width="700" height="490"><path d="M0 6V2c35.784 3.524 62.066 14.35 82 36 9.217 10.01 17.2 21.75 26 32 5.094 5.937 7.23 14.814 17 16 1.545.707.135.13 3 0V75c-2.714-3.588-2.877-8.725-5-13-5.436-10.948-11.91-23.05-19-33A176.256 176.256 0 0 0 86 8c-2.87-2.86-6.784-4.464-9-8h5c4.9 6.68 12.663 11.694 18 18 8.373 9.894 13.05 21.575 20 33 5.838 9.595 13.712 22.12 11 37-2.99 1.354-5.05 1.98-10 2-6.188-8.026-15.077-15.454-22-23-4.564-4.975-6.54-11.924-11-17C67.66 26.84 43.2 6.152 0 6zm134-6c5.37 1.8 11.3 9.573 13 15h-1c-3.385-5.207-9.35-9.38-12-15zm55 0c7.066 3.474 9.8 13.435 14 20 7.733 12.09 11.288 25.054 15 42 1.286 5.872-.074 15.687-1 20-3.71 17.273-3.524 60.767 2 74 5.31 12.722 15.23 24.053 20 37 1.313 3.563 2 12.726 0 16-.76 2.63-1.2 2.385-2 5h-2v-2c12.03-8.388-8.984-40.232-13-48-7.407-14.324-13.492-39.548-8-64 2.186-9.73 4.95-29.655 2-42-3.174-13.278-6.37-24.986-12-36-3.9-7.64-10.968-14.124-15-22zM0 152c32.438 4.37 32.29 37.22 55 50 28.144 15.836 50.624-13.894 75-8 26.77 6.473 42.188 23.452 64 35 8.67 4.6 23.3 11.763 38 7 11.11-3.6 31.3-17.225 28-34-5.53-28.127-21.156-42.422-28-69-6.733-26.145 7.676-57.01 2-82-5.113-22.512-10.093-34.564-20-51h4c9.992 17.57 13.687 27.47 19 51 5.472 24.234-8.648 49.418-3 74 2.5 10.89 4.35 21.876 9 31 5.9 11.575 15.073 21.77 19 36 6.754 24.47-10.306 40.2-26 46-36.1 13.337-68.195-25.148-90-36-31.88-15.867-58.435 18.4-87 6-15-6.5-25.795-25.37-35-38-2.312-3.173-4.673-8.07-8-10l-16-5v-3zM422 0h3c-.435 25.92-.554 50.62 9 69 12.8 24.616 34 41.522 45 69 10.223 25.55 3.188 64.1 17 86 8.724 13.83 49.933 55.54 20 75-12.477 8.112-34.63 4.975-48 1l-5 1c-.488-.227-9.433-7.96-11-9-24.967-16.585-41.323-45.434-54-74-7.8-17.572-14.242-40.05-29-50-28.963-19.53-83.322-20.376-100-52-5.61-10.64-6.04-24.482-9-38-2.314-10.567 1.5-22.5-1-32a162.385 162.385 0 0 0-13-34c-2.192-4.17-5.545-6.914-7-12h3c7.7 13.57 15.7 27.76 20 45q.5 12 1 24c4.146 19.07 2.263 35.705 11 49 19.654 29.906 74.122 26.192 100 50 16.015 14.733 22.61 38.557 32 60 6.54 14.934 16.494 30.32 26 43 10.675 14.24 27.71 25.4 48 30 17.412 3.948 40.31-2.022 42-17 3.33-5.132.006-16.985-2-21-8.282-16.58-22.412-27.98-30-46-9.724-23.094-5.244-57.766-15-81-11.085-26.4-32.64-43.418-45-68-8.84-17.58-7.7-41.852-8-68zM272 0h2c1.757 9.855 8.854 20.152 12 30 3.575 11.19 1.272 21.735 4 34 1.28 5.755 5.446 19.584 3 24l-4-20c-3.833-16.778-1.76-31.63-7-46-2.728-7.482-7.738-14.313-10-22zm32 0h2c1.05 7.946 5.68 14.814 8 22 3.777 11.694 2.82 21.9 6 35 1.874 7.72 4.8 16.22 6 24h-1v-1c-6.125-8.908-3.815-21.695-7-34-4.14-16-10.054-31.48-14-46zm61 0h2c-3.025 8.606-.78 24.38 1 32 4.67 19.98 6.9 35.133 16 50 3.754 6.137 10.422 10.943 13 18h-1c-1.02-.8-.274-.355-2-1-1.567-4.84-5.488-7.22-8-11a192.4 192.4 0 0 1-12-22c-8.963-18.616-8.782-41.51-9-66zm26 0c2.15 3.677-.16 30.875 2 39 1.958 7.36 3.96 15.845 7 23 2.965 6.978 8.77 13.347 11 21h-1v-1c-13.28-13.166-24.363-53.46-19-82zM170 490h-4v-2c11.786-13.61 1.695-63.9 0-82-1.25-13.352-1.9-33.263 8-36 10.59-6.478 26.136 10.25 31 14 13.47 10.388 21.632 25.5 33 38 4.683 5.15 10.824 8.3 16 13 5.715 5.193 18.665 13.42 33 9 14.01-4.32 22.385-18.9 30-30 6.9-10.063 15.208-20.6 23-30 11.624-14.022 19.27-30.172 35-40 29.216-18.254 73.728-1.238 105 6 27.048 6.26 57.2-9.315 64-24 6.05-13.068.895-30.1-2-42-2.453-10.092 1.388-21.77 3-28 17.594-10.108 43.89-13.234 57-28 15.826-17.826 21.35-61.344 12-92-13.467-44.155-44.458-68.072-80-90-19.4-11.972-44.063-21-50-46h3v1c6.837 8.487 10.285 18.51 19 25 8.7 6.477 18.78 12.33 28 18 3.14 1.932 7.07 1.8 10 4 36.215 27.16 56.3 38.994 72 88 6.6 20.588 8.374 54.023 0 74-6.585 15.708-18.515 29.185-34 36-11.632 5.12-30.546 2.964-35 15-5.684 7.576-1.345 22.64 1 31 4.576 16.313.747 36.943-8 46-23.565 24.4-79.146 12.984-111 4-10.24-2.888-25.1-5.978-37-2-31.868 10.65-55.3 52.513-74 78-10.016 13.65-16.934 25.147-36 30-13.85 3.525-25.96-6.642-32-12-18.164-16.112-31.8-35.992-50-52-8.5-7.48-14.37-13.638-27-11-1.638 3.272-2.72 3.893-3 9-2.793 4.483-.952 26.863 0 33 2.244 14.47 7.97 41.2 4 59-1.2 5.335-3.508 10.2-4 16zM510 0c6.045 3.464 8.323 13.722 14 18 14.253 10.742 32.022 16.925 46 28 6.2 4.915 14.115 14.377 26 13 13.82-1.6 19.045-13.162 30-17v1h-1c-2.4 3.9-5.338 4.39-9 7-4.83 3.44-9.45 8.07-16 10-4.13 1.218-12.143.17-15-1-13.235-5.42-30.39-20.8-43-29-11.95-7.768-29.166-13.678-32-30zm57 0c3.55 1.233 5.232 4.125 7 7h-2V6a22.61 22.61 0 0 1-5-6zm56 0h2a6.1 6.1 0 0 1-2 2v1h-1zm-2 3c.566.713 1.442.042 1 2h-1a11.576 11.576 0 0 1-3 2V5c2.39-.842 1.645-.4 3-2zm-47 4a19.212 19.212 0 0 1 7 6h-2c-1.732-1.724-2.783-1.5-4-4-.8-1.02-.355-.274-1-2zm42 0h2v1h-1c-5.053 8.023-27.424 16.044-36 5h2c8.952 8.953 28.1 1.32 33-6zM458 9c3.94.4 3.943-.442 5 2h1v1h-2c-1.3-.877-2.467-.894-5-1-1.283 2.072-2.077 2.3-3 5-4 5.083-3.73 19.558-2 27 3.488 15.01 7.42 21.882 15 32 3.37 4.5 8.81 7.156 11 13h-2c-2.146-5.855-7.664-8.5-11-13-8.542-11.526-15.008-20.492-15-41q.5-8.5 1-17c1.244-3.452 4.706-5.538 7-8zm6 3c10.635 5.052 11.53 24.135 21 31 11.444 8.3 30.176 11.88 43 18v1h-3c-6.55-7.366-21.384-7.68-31-12-12.56-5.643-25.4-24.77-30-38zm-316 4c6.15 3.223 9.078 13.427 12 20 9.8 22.033 14.825 66.11 15 97-2.367 1.924-4.237 5.638-7 7-12.58 6.2-44.258-8.983-55-12-9.52-2.674-19.824-1.256-25-8h2c5.593 5.5 11.373 4.34 19 6 1.95.672 1.823-.01 3 1 14.187.982 38.5 16.21 51 13 2.142-.55 4.327-2.335 7-3 5.238-10.728 3.444-25.2-1-36q.5-5 1-10c-2.2-10.152-1.087-23.686-4-35-2.377-9.233-5.683-19.032-10-27-2.393-4.416-6.35-7.455-8-13zm540 3c3.872-.147 9.715-.537 12 1-16.567-.163-29.87 4.723-44 6v-1c.8-1.02.355-.274 1-2 1.474.48 28.3-2.2 31-4zm-36 7h4v1h-2c-4.468 3.492-11.017 3.927-16 7-4.026 2.482-6.916 6.3-12 8v-1h1c5.847-8.015 17.778-8.4 25-15zm-66 3zM0 57c25.618 7.94 65.264 9.623 70 37h-1v-1c-2.544-2.566-2.853-5.885-5-9-5.823-8.45-19.89-13.938-30-18-6.334-2.545-31.295-4.826-34-9zm528 5c3.033.983 2.988 1.966 6 3v2h-1c-1.734-1.833-3.53-2.808-5-5zm158 4h14v2h-15c-2.8 1.844-6.108.793-10 2-8.58 2.66-17.7 8.9-21 17-6.723 16.47 4.462 48.558 8 64 7.755 33.85-3.823 72.294-15 92h-1v-2c13.883-16.8 19.59-74.056 12-103-2.674-10.2-10.93-32.387-7-47 3.374-12.547 13.823-19.334 26-23 3.828-1.152 6.378-.174 9-2zm-152 1c10.213 7.143 4.09 17.558 9 29 2.635 6.138 9.434 8.806 13 14h-2c-2.9-3.778-8.372-6.02-11-10-3.614-5.474-.91-12.357-3-20-1.237-4.52-4.577-8.6-6-13zM119 79c.8 1.02.355.274 1 2h-1v-2zm506 5zm-299-3c2.267 1.75 3.177 3.766 4 7h-1v-1c-1.62-1.673-2.3-3.3-3-6zm85 2a18.67 18.67 0 0 1 6 9h-1v-1h-1c-1.465-2.962-3-4.45-4-8zm-117 5c2.172 2.323 3.463 6.112 4 10h-1v-1c-2.09-2.212-2.75-4.838-3-9zm36 0c2.006 1.4 2.066 1.346 3 4h-1v-1h-1zm148 0c12.814 6.38 22.965 34.463 26 52 1.015 5.863-1.836 16.57-3 22-4.854 22.645 4.932 48.19 19 53v1h-3c-4.652-6.674-12.214-10.047-15-19-6.818-21.91 4.58-47.225-1-68a95.419 95.419 0 0 0-14-29c-2.9-4.117-7.106-6.583-9-12zm-145 4c2.006 1.4 2.066 1.346 3 4h-1v-1h-1zm84 0c2.006 1.4 2.066 1.346 3 4h-1v-1h-1zM70 94c4.16 3.338 8.5 12.358 10 18h-2v-2c-3.282-3.4-7.3-10.5-8-16zm266 2c2.684.89 2.59 1.028 4 3h1v1c-2.927-.947-3.51-1.764-5-4zm84 0a21.576 21.576 0 0 1 8 10h-1c-2.294-3.5-5.495-5.65-7-10zm-122 2c1.262 1.36 1.365 1.768 2 4h-1v-1c-.752-1.073-.6-.946-1-3zm43 2c18.24 5.786 34.446 23.64 60 19v1h-1c-3.99 3.226-13.68 1.932-19 0-10.222-3.713-34.762-12.016-40-20zm56 0c5.4 3.588 7.63 11.257 6 19h-2v-2c3.667-5.566-2.62-12.643-4-17zm-97 2c1.624 1.35 1.12.64 2 3h-1v-1c-.8-1.02-.355-.274-1-2zm2 3c2.006 1.4 2.066 1.346 3 4h-1v-1h-1zm126 1a13.817 13.817 0 0 1 6 8h-1c-1.8-2.834-3.816-4.376-5-8zm-123 3c2.94 1.68 9.867 7.678 7 9-2.28-3.394-5.495-4.778-7-9zm251 1c4.285 1.437 5.744 4.485 10 6v2h-2c-2.3-3.31-6.2-4.306-8-8zm-42 75c-.552-4.915-2.955-7.44-4-11-6.19-21.077 17.267-26.7 22-38 2.706-6.464-.414-16.737 1-24 20.32-2.467 31.683 16.693 37 32 2.23 6.423.468 11.54 2 19 .774 3.767 1.537 11.517 0 17-1.28 4.57-4.618 7.377-6 12-4.554.774-7.1 3.037-11 4-18 4.44-29.637-8.562-41-11zM80 112c2.8 1.747 6.58 4.895 8 8h-2c-2.046-3.054-4.635-4.16-6-8zm354 2c14.08 10.063 25.5 53.987 31 75 2.715 10.382 2.183 27-6 30-3.243 2.774-11.62 2.63-15 0-2.684-.89-2.59-1.028-4-3h2c4.766 4.78 11.582 3.614 18 2 5.752-9.51 4.16-26.857 1-38-4.26-15.03-7.152-27.7-13-41-3.756-8.545-10.953-16.175-14-25zm102 0c-1.293 6.744 1.86 16.282-1 23-4.092 9.613-31.166 22.706-20 40 4.66 14.27 29.81 17.534 47 13 15.633-22.77 3.832-75.13-26-76zM0 118c8.69 2.672 40.763 32.5 44 40h-2c-5.733-8.562-15.1-14.527-22-22-1.983-2.15-2.655-5.25-5-7-4.53-3.383-12.373-5.894-15-11zm314 0c5.32 1.627 9.058 5.55 14 8v1h-2c-3.69-3.44-9.05-4.79-12-9zm252 0h2v2h-2v-2zm2 2h2v2h-2v-2zm2 2h2v2h-2v-2zm2 2c3.08 1.038 2.918.967 4 4h-2c-.906-2.424-1.07-1.6-2-4zm-244 3h2v1c-1.754-.63-.97-.193-2-1zm2 1c7.575.84 12.113 5.45 18 8 11.606 5.025 23.4 7.782 34 13v1h-2c-11.3-10.1-40.894-10.664-50-22zm246 0c7.7 5.456 15.063 20.25 16 32h-1v-1c-2.913-4.23-2.516-10.246-5-15-2.745-5.255-7.94-9.868-10-16zm-162 3c20.887 4.457 36.12 40.386 36 67-2.67 1.44-4.22 1.994-9 2-8.813-9.485-13.74-19.47-21-31-6.375-10.124-13.86-13.635-14-31 1.416-1.454 2.288-4.98 4-6 1.427-.85 3.012-.25 4-1zm0 4c-.77.682-2.232 1.31-3 2h-1c-.54 4.326-1.7 8.254 0 13 1.9 5.306 7.028 8.852 10 13 8.667 12.1 12.708 24.608 24 34 1.754-.63.97-.193 2-1 .752-1.073.6-.946 1-3-3.064-4.823-.566-11.454-3-18-5.24-14.09-13.75-36.852-30-40zm-32 15h3c4.276 5.3 12.5 6.956 15 14h-1c-4.8-5.7-11.846-8.713-17-14zm-338 8c2.39.842 1.645.4 3 2a2.84 2.84 0 0 1 1 1h-2c-1.133-1.546-1.085-.843-2-3zm254 2c26.256-.646 52.8 11.037 63 27 9.836 15.4-4.08 35.413-13 42-29.08 21.473-48.662-4.052-61-24-4.4-7.122-15.646-21.08-7-32 3.065-9.565 8.85-8.54 18-13zm294 0c7.017 8.9 3.447 29.946 1 40h-1v-3c6.562-9.1.5-25.8 0-37zm-544 1c10.06 4.818 18.816 9.08 32 12l56-1c11.17 3 19.914 8.247 28 14 4.61 3.28 11.464 4.734 14 10h-2c-9.837-12.174-29.507-18.952-48-23-9.43-2.064-23.165.335-31 2-14.73 3.13-29.42-3.142-38-7-4.6-2.07-9.04-2.3-11-7zm248 1c-.86.65-3.144 1.338-4 2a15.721 15.721 0 0 0-12 14c-6.118 9.383 8.605 27.4 12 32 7.172 9.708 13.76 20.547 26 25 18.642 6.782 40.3-15.372 44-27v-16c-4.565-3.623-6.254-10.54-11-14-13.888-10.12-31.25-15.937-55-16zm104 2a28.819 28.819 0 0 1 11 15h-1v-1c-3.453-3.248-8.36-9.307-10-14zm11 15c4.5 3.2 19.063 23.532 21 29h-1c-6.02-9.376-16.272-17.787-20-29zm-233 17c2.7.8 3.707 1.84 6 3v1c-3.87-.632-4.3-1.433-6-4zm6 4c4.566 1.522 6.525 4.7 10 7 14.458 9.58 25.248 14.5 41 7v2h-1c-11.677 11.812-46.18-7.744-50-16zm407 0c1.3 2.5-.014 4.024 0 7h-3v-2a9.975 9.975 0 0 0 3-5zm97 2zM0 202c31.46 4.184 35.646 36.55 64 44 6.156 1.618 13.157-1.067 17-2 6.107-1.483 9.365-.334 15-2 10.073-2.98 25.5-10.284 40-7 23.748 5.382 41.26 16.222 62 25 7.15 3.026 20.293 11.065 32 8 24.038-6.294 29.64-30.82 59-31 3.992 3.648 8.272 3.786 9 11 3.68 5.953-1.162 15.87-3 20-7.648 17.176-19.68 29.687-35 39-13.462 8.184-45.958 17.748-68 13h-21c-9.91-2.165-34.555-5.91-47-3-26.36 6.165-34.254 29.554-53 43-17.237 12.364-44.48 11.9-71 10v-3c25.866 3.2 55.7 2.1 71-11 14.366-12.318 24.433-32.24 43-40 14.983-6.263 58.71-1.34 74 2 6.338 1.385 17.225.084 22-1l17-1c22.546-6.14 38.534-15.02 52-30 6.275-6.982 21.335-24.5 17-38-3.178-9.9-17.09-8.89-25-4-15.274 9.443-28.43 33.957-57 26-28.02-7.8-48.922-24.33-78-32-6.373-1.68-14.008.982-18 2-13.373 3.4-44.326 12.15-59 8-14.465-4.092-17.94-14.884-27-24-8.646-8.7-19.348-14.2-32-19v-3zm587 5c.566.713 1.442.042 1 2h-1a16.061 16.061 0 0 1-9 7v-1h1c2.37-3.058 5.784-4.665 8-8zm-155 1c2.818 1.6 8.925 6.65 6 8-2.046-3.054-4.635-4.16-6-8zm-55 3a30.439 30.439 0 0 1 7 1c10.575 18.6 14.468 42.53 28 58 8.69 9.934 24.415 24.065 35 32 8.87 6.65 19.44 12.084 20 27-.8 1.02-.355.274-1 2-2.893 1-7.674 1.06-12 1-5.35-4.047-13.87-3.855-21-6-4.858-1.46-11.62-3.75-17-5-41.483-9.634-62.87 23.685-80 43-6.634 7.48-14.354 14.517-21 22-7.158 8.058-32.416 40.562-50 29-23.205-6.367-32.787-50.84-57-60-8.044-3.043-19.612 1.1-29-1-11.555-2.585-32.116-2.837-36-13-.877-1.3-.894-2.467-1-5 1.623-1.254 2.007-2.1 3-4 42.112-6.117 95.976 4.877 128-12 13.45-7.09 26.007-21.414 32-36 8.828-21.486-4.757-35.018 28-35 6.08-4.06 13.672-4.407 19-9 9.274-7.995 16.647-20.02 25-29zM251 397c.372 2.076.242 1.924 1 3 6.834 16.145 27.36 15.272 40 6 33.354-24.468 51.672-76.8 97-88 29.05-7.177 48.887 10.532 74 11a15.7 15.7 0 0 0 1-5c-3.872-4.184-5.818-10.15-10-14-20.224-18.627-43.588-31.432-57-57-4.53-8.635-9.494-37.577-19-39-9.88 13.763-23.757 32.992-42 38-5.712 1.568-14.3.127-19 1-8.566 14.348-8.04 34.785-18 49-27.4 39.1-89.493 30.706-151 32-1.368 2.558-2.22 2.612-3 6 12.283 7.742 21.88 7.3 39 11l25 1c14.476 5.78 32.285 30.913 39 45h3zm269-181c11.508 3.147 26.678 10.553 43 6 5.188-1.447 9.6-4.647 15-6v1c-.8 1.02-.355.274-1 2-6.277.68-10.82 3.648-16 5-14.065 3.672-35.818-1.494-41-8zm125 27c.8 1.02.355.274 1 2-2.71 2.1-4.048 5.028-7 7v-2c2.7-1.777 4.356-4.2 6-7zm-271 3h5c6.1 9.464 13.085 23.3 22 30 11.015 8.28 27.467 9.828 23 28-30.636 5.187-78.806-11.634-79-42 2.54-2.307 4.834-6.475 8-8 7.475-3.6 15.107-3.2 21-8zm1 3c-6.736 5.05-22.7 5.8-26 14-.877 1.3-.894 2.467-1 5 4.216 4.64 5.322 11.842 10 16 12.954 11.514 40.5 18.93 63 18a25.086 25.086 0 0 0 1-8c-.8-1.02-.355-.274-1-2-8.618-5.43-19.88-10.84-27-18-6.592-6.628-9.378-21.882-19-25zm262 3h2q-.5 1-1 2h1c-3.722 3.16-8.842 6.61-14 8v-1h1c3.43-3.41 8.222-4.88 11-9zm-354 6c-14.294.034-16.614 10.4-27 14v-2c10.5-3.434 12.865-13.6 27-14 1.12 2.09 1.434 1.832 2 5-10.556 14.643-21.628 36.37-45 35-1.647-2.825-2.61-3.424-3-8 1.262-1.36 1.365-1.768 2-4h1v3c-.96 1.418-.976 3.273-1 6l3 1c1.55 1.05 4.085 1.03 7 1 11.17-10.32 29.4-18.21 34-37zm339 4c2.076.372 1.924.242 3 1h-1c-6.055 5.465-16.1 6.386-24 10-6.366 2.913-9.384 8.4-14 13-.863 14.075 3.513 35.216-1 49-5.395 16.478-22.068 26.725-18 49h-2c-2.908-23.962 13.873-32.6 19-51 4.718-16.932-6.028-38.674 3-52 7.292-10.764 25.6-10.3 35-19zm75 3c3.245.828 1.528-.5 3 2-29.453 1.3-48.272 35.438-59 57-4.646 9.338-10.722 19.1-8 33 22.3 13.76 45.763 9.26 61 32 2.608 3.892 5.546 4.47 6 11h-1v-1c-2.964-3.044-3.534-7.34-6-11-4.054-6.016-13.86-13.283-21-16-12.784-4.865-35.468-3.284-40-16-6.114-7.955 3.057-22.932 6-29 10.45-21.547 20.78-41.52 40-54 5.7-3.7 13.4-4.115 19-8zM0 266c6.354 1.66 12.285 5.673 18 8 11.654 4.746 24.928 6.148 38 9 4.814 1.05 10.56-.682 14-1 25.392-2.345 57.368-9.37 81-4l3 9a19.54 19.54 0 0 0-2 4c-6.96 3.047-19.345 7.506-31 5-6.022-1.3-16.55-1.868-23 0-19.784 5.73-32 20.55-51 27-13.508 4.583-32.033.973-47 1v-2c17.563.25 34.284 3.97 50-2a37.439 37.439 0 0 0 6-3v-2c3.124-2.1 6.927-1.132 10-3 10.46-6.36 19.518-13.05 30-18h14c7.418-1.7 24.607-.82 34-1 3.23-3.837 6.34-4.126 7-11-2.874-1.55-2.728-2.454-7-3-7.75-4.667-35.242 1.377-42 3H89c-21.884 5.6-50.344.55-66-6-8.418-3.522-19.152-2.28-23-10zm254 6h2v1h-1c-3.408 3.482-10.68 8.984-15 11v-2c4.22-2.645 10.39-6.445 14-10zm446 41h-3c-5.248 7.747-12.826 9.678-13 23 5.58 3.14 8.47 7.2 16 9v2h-2c-6.7-5.2-15.8-5.09-16-17 5.26-6.736 8.975-16.264 17-20v-1h1v4zm-412 33c3.255 1.206 7.06 2.55 10 4v2h-1c-6.845-9.1-19.433.728-27 3v-2c3.94-.862 12.664-4.544 18-7zM0 403v-3c37.98.168 59.886-4.422 79-22 3.746-3.445 6.255-8.553 10-12 6.364-5.858 22.752-21.644 36-13 11.188 3.794 12.514 20.82 11 37-2.13 22.763-5.02 46.984 0 70 1.847 8.47.413 24.57-3 29-1.073.752-.946.6-3 1v-2c5.088-7.12 2.285-21.085 2-31-.61-21.263-3.312-47.8 1-68 2.095-9.812-.158-24.22-4-29-5.718-6.647-18-7.762-26-2-14.066 10.127-23.652 27.23-39 36-16.174 9.243-38.706 8.668-64 9zm298-51h2a34.1 34.1 0 0 1-3 16h-1v-3c2.242-2.8 2.136-7.715 2-13zm-30 3h2c-3.156 4.9-4.537 6.922-6 15 4.39 4.615 7.088 8.79 12 13 2.045-.35 5.538-.948 7-2 5.5-2.218 9.45-7.783 12-13h1v3c-7.6 6.113-7.263 13.106-22 13-1.073-.752-.946-.6-3-1-1.982-5.71-6.958-8.6-9-15 .385-2.272 3.924-9.715 6-13zm380 135h-3c.055-36.68-18.187-65.6-43-78-10.347-5.167-23.435-5.075-36-8-22.56-5.25-50.193 8.245-73 2-22.53-6.17-41.37-13.974-61-20-12.655-3.885-28.53-1.048-36 6-20.432 19.28-29.468 53.056-46 76-5.392 7.483-11.53 21.124-23 22v-1h1c7.35-11.5 20.345-20.67 28-33 14.9-24.006 20.178-60.36 47-72 22.67-9.836 65.2 12.246 86 18 11.66 3.226 28.022 2.442 39 0h19c3.813-.817 12.63-2.178 18-1 10.063 2.207 21.134 1.435 30 5 31.275 12.577 53.07 40.7 53 84zm-81-106c19.092 11.334 65.3 11.14 77 28h1v1h-2c-10.18-13.326-35.1-13.37-53-19-9.6-3.02-19.68-1.01-23-10zm81 32c13.767 9.578 25.6 50.354 26 74h-1v-2c-2.18-3.646-.78-9.22-2-14-2.3-9.056-3.648-18.956-7-28-4.022-10.85-12.385-19.834-16-30zm-562 6c6.513-.158 10.373 1.24 12 6 8.322 10.238-7.7 47.93-13 52v1h-1v-2c5.462-4.56 19.546-40.9 13-50-1.595-4.473-4.75-5.18-11-5-3.035 3.3-7.05 7.746-11 10v-2a52.938 52.938 0 0 0 11-10zm360 14c-7.613-1.16-14.226-3.023-23-2-1.56 2.522-4.473 3.75-6 6-4.65 6.858-2.89 16.056-7 24-1.514 2.926-4.607 7.74-6 11-2.54 5.94-2.614 13.885-10 15v-2c10.6-10.893 11.386-29.975 18-45 2.9-6.583 8.2-8.477 13-13 26.707-.42 42.4 12.407 65 18 24.674 6.107 69.845-7.374 89 4 12.185 7.235 14.947 21.35 18 38h-3v-2c-1.842-3.015-.684-8.307-2-12-2.97-8.332-8.387-18.407-16-22-9.555-4.51-24.748-2.38-36-2-24.514.83-50.052.386-67-6-7.388-2.784-21.65-10.04-27-7v-3zm-373-1c1.243 1.567.642.5 0 2-6.846 10.342-31.74 30.76-46 33v-1h1c4.174-4.006 11.025-4.74 16-8 9.9-6.487 21.95-16.545 29-26zm134 8c2.328.195 2.826.193 4 1 6.09 1.97 14.64 10.216 17 16h-2c-4.14-6.99-10.648-10.36-16-16-1.754.63-.97.193-2 1-7.1 7.792 4.937 37.746 7 45h-2v-2c-6.176-8.4-10.744-34.882-6-45zm21 17c5.943 2.48 8.3 8.444 13 12 8.23 6.225 15.984 12.625 26 17v1h-4c-7.97-9.88-30.466-17.47-35-30zM23 470h4v1h-1c-5.642 4.4-16.758 6.867-26 7v-2c8.45.245 18.6-1.8 23-6zm60 11c1.243 1.567.642.5 0 2l-4 7h-2v-1h1c1.528-3.07 3.42-4.96 5-8zm371 0c12.345.38 23.24 4.347 34 7h14c11.72.33 31.726-2 46-1q.5 1 1 2h1v1h-3c-2.5-3.668-13.59-2.17-18-1-13.32 3.53-38.727 2.315-51-1-8.127-2.195-16.925-5.955-27-4-1.228 3.334-.822 5.067-3 6v-4c1.5-1.552.777-1.838 3-3 .77-.682 2.232-1.31 3-2z" fill="#0054ff" fill-rule="evenodd"/></svg>