<svg xmlns="http://www.w3.org/2000/svg" width="400" height="111.111" viewBox="0 0 400 NaN" fill-rule="evenodd"><path d="M1.5 2.103c0 .564.03.597.447.517.367-.07.613.07 1.375.786l1.345 1.149c.406.27 1.05.865 5 4.627l2.314 2.124c.34.257.37.351.202.664-.194.362-.22.363-5.44.363H1.5V24.5h11v9.333h-11v23l10.25-.002 1.645-.946.594.401c.327.221.937.753 1.355 1.183l2.73 2.614 2.96 2.792c.544.527 1.06.958 1.15.958s.652.488 1.253 1.084c1.255 1.242 1.112 1.184 1.83.741 1-.617 1.07-.953 1.07-5.1v-3.725h4.224c3.673 0 4.347-.04 5.166-.31 1.356-.448 1.3-.696 1.276 5.589v5.68c.013.276 12.177.307 12.177.031 0-.097.075-.13.166-.073s.167-.082.167-.323c0-.318.087-.427.337-.427.204 0 .4-.16.49-.404.09-.234.316-.427.538-.458.278-.04.4-.181.437-.513.044-.384.132-.458.54-.458s.49-.069.49-.399c0-.286.118-.428.417-.503.304-.077.417-.216.417-.518 0-.348.078-.414.5-.414s.5-.066.5-.405c0-.319.098-.417.458-.459s.47-.151.51-.511.14-.458.458-.458.406-.087.406-.406.098-.417.458-.458.47-.151.51-.511.14-.458.46-.458c.34 0 .405-.082.405-.5 0-.445.056-.5.5-.5.423 0 .5-.065.5-.417 0-.38.064-.417.717-.417.972 0 1.117-.199 1.117-1.533 0-1.247-.433-1.548-1.213-.842-.492.445-11.6.445-12.404 0-.47-.257-1.062-.291-5.042-.291H37.5l-.007-4.209c-.007-3.946-.15-5.504-.54-5.894-.066-.066-.12-.332-.12-.592 0-.696-.777-.683-1.02.018-.107.307-.307.51-.533.542s-.382.19-.416.426c-.04.292-.162.375-.54.375-.432 0-.49.059-.49.5 0 .423-.064.5-.416.5-.33 0-.417.084-.417.406s-.098.417-.458.458-.47.151-.51.511c-.045.384-.133.459-.542.459s-.49.067-.49.416c0 .334-.083.417-.417.417-.352 0-.416.078-.416.5 0 .444-.056.5-.5.5-.423 0-.5.065-.5.417 0 .381-.216.514-.71.436-.068-.011-.125.205-.125.48 0 .477-.033.5-.708.503-.82.003-1.054.119-1.17.581-.046.183-.092-1.431-.102-3.587l-.02-3.921-1.08-.204C24.55 45.071 22.42 45 19.128 45H14.08l-.442-1h-8.58l.073-.5c.058-.395.157-.5.47-.5S6 42.911 6 42.583c0-.334.083-.416.42-.416s.44-.103.52-.5c.077-.387.19-.5.496-.5.327 0 .395-.086.395-.492 0-.475.03-.493.875-.541.763-.044.882-.099.93-.426.03-.224.17-.375.34-.375.374 0 .69-.32.69-.7 0-.209.126-.3.416-.3.334 0 .417-.083.417-.416 0-.229.075-.426.167-.438s.24-.039.333-.062.242-.051.333-.063.167-.208.167-.437c0-.334.083-.417.417-.417.23 0 .426-.075.437-.167l.042-.319c.027-.196.255-.425.45-.451l.32-.042c.09-.012.166-.204.166-.427 0-.318.1-.417.46-.458.328-.038.473-.159.51-.428s.165-.375.46-.375c.337 0 .405-.082.405-.489s.074-.497.458-.541c.36-.042.47-.151.51-.511s.14-.459.458-.459.406-.086.406-.416c0-.352.078-.417.5-.417.444 0 .5-.056.5-.5 0-.422.065-.5.417-.5.333 0 .416-.083.416-.417 0-.352.078-.416.5-.416.445 0 .5-.056.5-.5s.056-.5.5-.5c.415 0 .5-.068.5-.396 0-.347.1-.408.816-.503.688-.091.833-.173.92-.521.057-.228.215-.414.35-.414s.247-.079.247-.176.075-.13.166-.074.167-.05.167-.237c0-.221.142-.375.407-.442.248-.062.427-.243.458-.461l.052-.36 12.083-.087v-.432c0-.264-.164-.562-.42-.764l-.42-.331.027-10.465-1.375-1.425c-.757-.784-1.642-1.588-1.968-1.786s-.97-.738-1.43-1.201A129.05 129.05 0 0 0 29.18 5.5c-3.534-3.266-3.395-3.116-3.307-3.578l.08-.422H1.5v.603m46.233-.369c-.25.652.02 9.686.304 10.207.274.5.272.568-.044 1.503-.306.905-.328 1.364-.287 5.977l.044 4.996 12.5.087-.058-5.867c-.054-5.484-.04-5.882.24-6.086.23-.168 1.434-.218 5.257-.218 4.76 0 4.983-.014 5.56-.355.763-.45.793-1.194.053-1.28-.314-.036-.464-.161-.5-.416s-.186-.381-.5-.418c-.384-.044-.46-.132-.46-.542s-.067-.489-.416-.489c-.334 0-.417-.083-.417-.416 0-.352-.078-.417-.5-.417-.442 0-.5-.057-.5-.489 0-.409-.074-.497-.458-.542-.322-.037-.474-.16-.5-.412-.03-.218-.2-.399-.458-.461-.265-.067-.407-.221-.407-.442 0-.187-.075-.294-.167-.237s-.167.023-.167-.074-.11-.176-.246-.176-.294-.186-.35-.414c-.087-.348-.233-.43-.92-.521-.717-.095-.816-.156-.816-.503 0-.328-.085-.396-.5-.396-.444 0-.5-.055-.5-.5s-.056-.5-.5-.5c-.422 0-.5-.064-.5-.416V1.5h-6.84c-5.718 0-6.853.038-6.928.234M24.667 7.417v4.25l-4.292-.023c-2.36-.013-4.12-.056-3.908-.096s.454-.256.54-.48a1.13 1.13 0 0 1 .574-.567c.258-.098.42-.29.42-.497 0-.264.11-.337.5-.337.418 0 .5-.066.5-.405 0-.294.104-.42.375-.459s.4-.183.428-.511c.044-.384.132-.459.54-.459s.49-.068.49-.405c0-.319.1-.417.46-.459s.47-.151.51-.511.14-.458.458-.458.406-.087.406-.406.098-.417.458-.458.47-.151.51-.511.14-.458.458-.458c.34 0 .406-.082.406-.5 0-.275.037-.5.083-.5s.084 1.912.084 4.25m34.166.916v3.334l-4.208-.025c-2.315-.014-4.002-.057-3.75-.095.348-.052.458-.162.458-.454s.118-.408.5-.485c.397-.079.5-.186.5-.521 0-.392.055-.42.817-.42s.83-.036.992-.5c.113-.325.288-.5.498-.5.204 0 .36-.15.426-.405s.242-.426.476-.459a.47.47 0 0 0 .428-.428c.032-.224.17-.375.342-.375.373 0 .688-.32.688-.7 0-.209.127-.3.417-.3.33 0 .416-.084.416-.406 0-.314.103-.421.46-.475.252-.038.477-.08.5-.094s.04 1.475.04 3.308M1.5 72.375v5.792h5.22c4.28 0 5.357-.047 5.98-.259 1.058-.36 11.482-.292 12.134.079l.417.237-.58.238c-.32.13-1.074.699-1.677 1.263L20.512 82a112.15 112.15 0 0 0-2.663 2.5c-1.647 1.612-3.5 3.239-3.963 3.478-.57.296-10.602.253-11.47-.048-.957-.333-.917-.573-.917 5.497V99l5.708.001c6.34.001 6.863.063 7.017.835l.1.497 4.212.025c2.317.014 4.007.057 3.755.095-.352.053-.46.161-.46.464s-.102.406-.458.447-.47.151-.51.511-.14.458-.458.458-.406.087-.406.406-.098.417-.458.458c-.252.029-.468.147-.48.261l-.042.459c-.013.15-.188.25-.438.25-.333 0-.416.083-.416.416 0 .35-.08.417-.49.417-.77 0-1.345.283-1.345.663 0 .195-.1.337-.262.337-.303 0-.625.291-.783.708-.06.161-.25.292-.417.292-.294 0-1.044 2.317-1.04 3.208.001.273.41.292 6.25.292h6.25V89.178l-.153-21.727c-.28-.739-1.432-1.052-2.073-.564-.288.219-.685.45-.883.512s-.402.223-.453.357-.284.244-.516.244c-.357 0-.422.076-.422.5 0 .444-.055.5-.5.5-.422 0-.5.065-.5.417 0 .333-.083.416-.416.416-.352 0-.417.078-.417.5s-.065.5-.413.5c-.303 0-.442.113-.52.417s-.217.417-.503.417c-.332 0-.398.083-.398.5 0 .47-.04.5-.653.5-.91 0-1.18.138-1.18.601 0 .313-.088.399-.413.399-.298 0-.442.112-.515.402-.06.235-.263.443-.49.5-.214.054-.424.229-.466.389s-.086-1.395-.098-3.458-.066-3.918-.12-4.124c-.163-.605-.94-.687-7.02-.742L1.5 66.583v5.792" fill="#ed7320"/><path d="M26 1.974c0 .385.292.744 1.542 1.897l2.79 2.578 2.24 2.062 2.5 2.406 1.51 1.5 5.542.052 5.542-.125c0-.098.103-.177.23-.177.195 0 .196-.1.01-.644-.122-.354-.25-.86-.285-1.125-.045-.333-.17-.497-.4-.532-.197-.03-.432-.261-.547-.54-.112-.269-.254-.457-.316-.418-.195.12-.535-.176-.583-.508-.036-.255-.208-.326-.886-.366-.782-.047-.847-.084-.94-.542-.077-.385-.188-.492-.508-.492s-.42-.097-.463-.458c-.037-.329-.16-.474-.427-.512-.328-.046-.464-.302-.395-.738.01-.069-.205-.125-.48-.125-.445 0-.5-.056-.5-.5 0-.423-.065-.5-.417-.5-.38 0-.514-.216-.436-.709.01-.068-.206-.125-.48-.125-.416 0-.5-.066-.5-.4 0-.295-.13-.446-.5-.575-.334-.116-.5-.118-.5-.005 0 .093-.206.145-.458.116-.385-.044-.453-.125-.427-.511l.03-.458H26v.474m34.458 10.539c-.307.179-.433 9.3-.154 11.154.13.867 1.052 1.174 1.164.387.033-.228.237-.426.554-.537.277-.096.46-.246.406-.333-.12-.191.378-.721.566-.604.074.045.227-.142.34-.415.125-.301.33-.498.516-.498s.35-.159.415-.417c.075-.299.217-.417.503-.417.22 0 .408-.075.42-.166s.04-.242.062-.334.05-.241.063-.333.208-.167.437-.167c.394 0 .417-.05.417-.916V18h.916c.86 0 .917-.025.917-.406 0-.318.098-.417.458-.458s.47-.151.51-.511.14-.458.46-.458.405-.087.405-.406.1-.417.46-.458.47-.151.51-.511c.044-.384.132-.459.54-.459.27 0 .48-.056.47-.125-.084-.532.062-.849.436-.943.4-.101.593-.432.25-.432-.092 0-.167.069-.167.152 0 .254-.47.102-.882-.286-.435-.409-10.322-.576-10.993-.186m-13.416 2.659c-.207.083-.375.222-.375.309s-.05.289-.112.449c-.076.199-.05.253.083.171.108-.066.195-.266.195-.444a.29.29 0 0 1 .324-.324c.178 0 .37-.075.426-.166.124-.2-.036-.198-.54.005m-1.362 1.375c-.007.163-.182.365-.388.448l-.375.151.38.01a.48.48 0 0 0 .482-.692c-.053-.132-.09-.101-.1.083m-1.705.578a15.51 15.51 0 0 1-.064.292 3.09 3.09 0 0 0-.058.375c-.01.114-.207.208-.436.208-.33 0-.417.084-.417.406s-.098.417-.458.458-.47.151-.51.511-.14.458-.448.458-.406.103-.447.452c-.038.323-.17.479-.47.549-.264.061-.437.232-.47.464-.038.259-.17.369-.44.369-.3 0-.402.109-.46.495-.1.684.598.659.884-.031.112-.273.32-.464.502-.464.19 0 .35-.159.414-.417.096-.381.258-.494.618-.434.073.012.21-.196.302-.463s.32-.526.505-.574.376-.243.425-.433.157-.355.238-.367a3.54 3.54 0 0 0 .314-.062c.092-.023.242-.051.333-.063s.167-.208.167-.437c0-.334.083-.417.417-.417.352 0 .416-.078.416-.5 0-.467-.77-.804-.858-.375m-5.622 5.906c-.016.353-.116.461-.478.516l-.458.07.463.025c.493.026.7-.25.57-.757-.052-.202-.084-.154-.097.146M25.05 34.281l.032.469h-1.166c-1.15 0-1.168.007-1.22.458-.04.36-.14.459-.458.459-.34 0-.406.081-.406.5 0 .444-.055.5-.5.5-.418 0-.5.066-.5.405 0 .293-.103.42-.375.458-.266.038-.4.184-.426.502-.04.346-.154.46-.5.5-.312.036-.464.161-.5.411-.03.218-.2.399-.458.461-.295.074-.407.216-.407.516 0 .37-.07.413-.653.413-.857 0-1.18.137-1.18.498 0 .171-.2.382-.498.501-.273.114-.466.258-.427.32.13.211-.185.531-.548.558-.198.015-.37.087-.38.159l-.042.284c-.026.196-.255.424-.45.451l-.284.042c-.262.041-.177.749.137 1.15.178.225.282.476.232.557s2.248.156 5.336.168c4.992.019 5.68.036 5.8.14.023.02.287.071.586.114l.544.077-.088-11.419-.616-.06c-.585-.057-.615-.036-.583.408m23.22 10.177c.06.252.174.585.253.739s.144 2.489.144 5.188c0 4.364.03 4.933.276 5.136.412.342 10.045.335 10.457-.007s.296-1.248-.173-1.315c-.238-.034-.387-.206-.45-.52-.072-.361-.183-.466-.477-.45-.3.017-.395-.078-.436-.437s-.14-.459-.458-.459c-.37 0-.504-.223-.424-.712.01-.071-.2-.173-.472-.227-.335-.067-.508-.212-.543-.455a.47.47 0 0 0-.415-.408c-.256-.036-.38-.186-.417-.5-.04-.349-.153-.459-.5-.5s-.458-.14-.458-.459c0-.384-.052-.405-1-.405-.993 0-1.507-.583-.792-.898.115-.05-.073-.048-.417.005l-.625.096v-.918c0-.882-.02-.927-.527-1.103-.3-.101-.478-.233-.418-.293.17-.17-.228-.556-.575-.556-.22 0-.313-.12-.313-.399 0-.424-.274-.601-.933-.601-.36 0-.394.054-.297.458m-11.093.903c.062 1.289.45 2.222.92 2.222.635 0 .75-.962.126-1.051-.26-.037-.4-.219-.504-.654-.135-.574-.564-.983-.542-.517m5.028 6.389c.02.229.093.426.165.438s.205.039.297.062.24.051.333.063.167.169.167.35c0 .214.147.368.418.436.247.062.457.261.514.488a.72.72 0 0 0 .487.482c.238.06.412.244.444.47.054.376 1.803.968 1.803.61 0-.082-.182-.149-.405-.149-.32 0-.417-.098-.46-.458s-.15-.47-.51-.511-.458-.14-.458-.459-.087-.405-.406-.405-.417-.099-.458-.459-.15-.469-.51-.511-.458-.139-.458-.458c0-.339-.082-.406-.498-.406-.43 0-.494.058-.464.417m-28.97 4.272c-.127.206-1.484.844-2.07.972-.265.058-.436.225-.47.455a.47.47 0 0 1-.417.416c-.257.036-.38.186-.417.51-.042.361-.14.458-.463.458s-.43.107-.513.516c-.092.464-.15.507-.58.421-.476-.095-1.357.182-1.23.387.102.167-.135.476-.412.538-.136.03-.378.262-.538.514s-.348.45-.418.439c-.282-.046-.542.026-.524.144.078.492-.055.708-.436.708-.23 0-.426.075-.437.167s-.04.241-.063.333-.05.242-.062.333-.21.167-.438.167c-.394 0-.417.05-.417.917v.916H1.5v.584c0 .719-.903.612 6.183.731 6.53.109 6.65.126 6.65.956V68h4.16c4 0 4.168-.014 4.34-.333.098-.184.294-.334.434-.334s.508-.193.818-.429l.562-.428.737.326c.53.234.768.452.85.773l.112.448 5.147-.053c2.83-.029 5.2-.116 5.286-.192.215-.215.278-11.092.066-11.348-.17-.205-1.638.142-1.958.462-.06.059-.32.108-.58.108-.39 0-.473.071-.473.405 0 .293-.103.42-.375.458s-.4.184-.427.512c-.045.384-.133.458-.542.458s-.49.069-.49.399c0 .286-.118.428-.417.503s-.416.216-.416.518c0 .394-.44.517-1.437.402-.056-.007-.243.218-.414.5-.28.462-.487.59-.858.531-.068-.01-.116.037-.105.106.078.492-.055.708-.436.708-.23 0-.426.075-.438.167s-.04.241-.062.333-.05.242-.063.333-.208.167-.437.167c-.394 0-.417.05-.417.917 0 .839-.032.916-.375.917-.206.001-.6.151-.875.333-.666.441-.573.479-1.815-.75-.6-.596-1.165-1.084-1.253-1.084s-.605-.431-1.15-.958l-2.96-2.792-2.73-2.614c-.963-.989-1.965-1.677-2.108-1.447m-10.84 8.556c-.052.134-.055.341-.008.458.053.132.09.101.1-.083.007-.163.182-.365.388-.448l.375-.151-.38-.01c-.21-.006-.423.099-.474.234m10.067 13.515c-.03.031-.378.075-.77.098-.78.046-.925.163-1.005.809-.012.092-.21.167-.438.167-.33 0-.417.084-.417.405s-.098.417-.458.459-.47.151-.51.511-.14.458-.458.458c-.34 0-.406.081-.406.5 0 .444-.056.5-.5.5-.422 0-.5.065-.5.417 0 .347-.08.416-.477.416-.414 0-.475.061-.458.459.015.381-.058.467-.44.511-.356.041-.458.141-.458.446 0 .282-.107.41-.375.448s-.4.183-.428.511c-.05.434-.77.632-1.74.478-.07-.01-.125.134-.125.322 0 .213-.173.417-.458.542-.677.295-.777 1.282-.118 1.156.278-.053.498.002.587.146.27.436 10.212.425 10.65-.012.35-.351.545-8.946.212-9.438-.123-.182-.804-.414-.91-.309M1.5 104.75v5.75h12.333l.003-.542a4.38 4.38 0 0 1 .243-1.208c.28-.778.364-8.274.1-8.969-.273-.717-.84-.781-6.954-.781H1.5v5.75" fill="#5cbcbb"/><path d="M37.42 1.822c-.06.188-.06.417-.004.51.134.218.91.219.938.001.083-.663.04-.752-.38-.801-.328-.038-.473.038-.553.29m-35.545.806L1.5 2.69v9.643h5.244c5.22 0 5.245-.001 5.44-.363.167-.313.14-.407-.202-.664-.22-.164-1.26-1.12-2.314-2.124l-5.25-4.823A9.64 9.64 0 0 1 3.25 3.34c-.606-.649-.885-.793-1.375-.712m69.413 9.303l-.463.25.536.451c.295.248.578.452.63.454s.186.061.3.134c.142.09.175.05.107-.128-.055-.142-.024-.259.07-.259s.167-.247.167-.549c0-.646-.542-.788-1.345-.353m-23.62.411c0 .12-1.734.159-5.492.125l-5.49-.05-.013 5.232c-.014 5.842-.013 5.851 1.105 5.851.48 0 .557-.057.557-.406 0-.318.1-.417.46-.458s.47-.151.51-.511.14-.458.446-.458c.28 0 .4-.108.448-.369.033-.232.206-.403.47-.464.298-.07.43-.226.47-.549.04-.349.142-.452.447-.452s.407-.102.448-.458.15-.47.51-.511.458-.14.458-.458.086-.406.417-.406c.23 0 .425-.094.436-.208l.04-.459c.014-.155.213-.26.523-.276l.795-.042c.163-.008.368-.202.455-.432.096-.253.29-.416.492-.416.22 0 .372-.147.443-.433.07-.276.283-.494.587-.6.28-.098.478-.287.478-.458 0-.16.15-.724.33-1.253s.3-1.028.24-1.109c-.127-.206-.57-.184-.57.028m18.5 6.135c0 .628.755.562.877-.077.066-.347.013-.4-.4-.4s-.477.063-.477.477M23.852 34.122c-.378.403-.09.704.68.709.523.003.697-.205.553-.658-.117-.369-.906-.402-1.233-.051m13.092 9.989c-.27.269-.097.903.285 1.048.274.104.43.33.506.735.08.434.204.598.48.637.34.048.365.129.318 1.014-.028.529.01.951.083.938.482-.082.755.073.9.517.11.319.29.5.49.5.22 0 .317.118.317.38 0 .292.104.389.445.417.547.046.546.045.59.591.035.422.084.445.917.445.822 0 .88.027.88.406 0 .319.098.417.458.458s.47.151.51.511.14.459.458.459.406.087.406.405.098.417.458.459.47.151.51.511.14.458.46.458c.223 0 .405.072.405.161 0 .279.565.478 1.675.589.964.096 1.032.084.66-.118l-.417-.225-.09-5.078-.3-5.704-.21-.625h-5.548l-5.66.111m14.39 3.233c0 .311.086.489.237.489.877 0 1.134-.938.263-.963-.445-.013-.5.039-.5.474m1.042.444c-.475.167-.235.879.297.879.452 0 .5-.048.447-.445-.058-.431-.318-.583-.744-.434M2.898 64.497c-.597.241-.632.836-.05.836.427 0 .484-.059.484-.5 0-.275-.018-.495-.04-.489s-.2.074-.394.153m23.315.045c-.36.466-.378.791-.04.791.253 0 .328-.113.328-.5 0-.552-.048-.6-.287-.291M12.958 77.777c-.4.108-.373.39.024.39.492 0 .518.248.518 4.93 0 4.181-.017 4.42-.333 4.736l-.334.334h.345c.68 0 1.92-.975 4.67-3.667l2.663-2.5 2.48-2.275c.603-.564 1.358-1.133 1.677-1.263l.58-.238-.417-.237c-.4-.233-11.103-.422-11.875-.21" fill="#a3d0d6"/><path d="M213.938 1.909c-.336.363-.54.415-1.784.459-1.394.048-1.404.052-1.457.507s-.056.458-1.375.458c-1.3 0-1.322.008-1.322.417 0 .382-.062.417-.738.417-.754 0-1.262.306-1.262.762 0 .138-.163.238-.392.238-.216 0-.588.18-.826.401s-.662.452-.94.514c-.4.085-.508.202-.508.504s-.103.404-.458.445c-.36.041-.47.151-.51.511s-.14.458-.458.458-.406.086-.406.417c0 .352-.078.416-.5.416-.444 0-.5.056-.5.5 0 .419-.066.5-.406.5-.318 0-.417.099-.458.457-.035.301-.167.478-.386.52-.446.083-.578.321-.58 1.054-.002.545-.054.62-.46.667-.35.04-.47.153-.507.474a.77.77 0 0 1-.417.584c-.293.128-.378.324-.418.96-.042.657-.12.826-.435.946-.42.159-.598.732-.598 1.924 0 .618-.054.725-.412.815-.408.103-.412.119-.458 2.31-.044 2.106-.062 2.208-.4 2.257-.85.121-.796 6.736.06 7.111.35.154.372.276.416 2.25s.067 2.097.414 2.249c.305.134.376.318.417 1.084.046.868.076.925.507.974.437.051.458.095.458.959 0 .849.026.905.408.905.375 0 .412.072.46.875.047.816.08.879.508.928.384.044.46.132.46.542 0 .43.06.489.49.489.467 0 .493.038.54.791.04.635.126.825.426.957.206.09.375.303.375.472 0 .186.188.38.472.487.26.098.54.335.625.527s.305.371.49.397.412.215.5.417c.11.249.392.419.87.525.584.13.71.225.71.542s.09.385.5.385c.386 0 .5.074.5.327 0 .414.475.673 1.24.673.523 0 .594.05.594.416 0 .394.05.417.917.417.855 0 .916.027.916.399 0 .508.26.601 1.68.601 1.02 0 1.153.036 1.153.316 0 .505.182.517 7.597.517h7.07v-.41c0-.398.04-.411 1.375-.458 1.363-.048 1.376-.053 1.428-.507.05-.437.094-.458.958-.458.855 0 .906-.023.906-.417 0-.373.068-.416.653-.416.908 0 1.18-.139 1.18-.601 0-.333.084-.399.502-.399.33 0 .68-.171 1.025-.5.287-.275.66-.5.828-.5.184 0 .346-.16.406-.401.056-.221.244-.439.418-.484s.39-.278.482-.516c.098-.259.293-.433.486-.433.207 0 .383-.177.495-.5.096-.275.293-.5.437-.5.292 0 .588-.635.588-1.261 0-.321.086-.405.417-.405.41 0 .416-.023.416-1.334 0-1.301-.01-1.333-.405-1.333-.32 0-.417-.098-.46-.458s-.15-.47-.5-.51c-.314-.037-.464-.162-.5-.417-.045-.315-.173-.372-.927-.415-.847-.049-.875-.067-.875-.542 0-.432-.06-.491-.49-.491-.4 0-.498-.075-.542-.459-.04-.36-.15-.469-.51-.511-.266-.03-.458-.154-.458-.296 0-.272-.65-.568-1.25-.568-.307 0-.407-.102-.448-.458s-.15-.47-.5-.51c-.314-.036-.464-.161-.5-.417-.087-.606-2.636-.654-2.636-.049 0 .326-.096.423-.458.465s-.47.151-.51.511-.14.458-.458.458-.406.087-.406.406-.098.417-.458.458-.47.152-.51.503c-.048.417-.115.454-.916.5s-.87.082-.918.508c-.05.438-.093.459-.966.459-.75 0-.986.073-1.33.416-.618.618-4.345.653-4.432.042-.046-.322-.17-.382-.868-.427-.64-.04-.92-.157-1.304-.541-.273-.273-.67-.49-.894-.49-.278 0-.404-.094-.404-.3 0-.38-.315-.7-.688-.7-.173 0-.3-.151-.342-.375-.038-.266-.184-.39-.502-.427-.346-.04-.46-.154-.5-.5-.036-.318-.16-.464-.426-.502-.332-.047-.375-.149-.375-.879 0-.784-.025-.831-.5-.926l-.5-.1v-1.24c0-1.234-.178-1.847-.608-2.101-.4-.236-.315-3.284.1-3.284.416 0 .518-.312.518-1.595 0-.97.046-1.113.5-1.546.308-.295.5-.646.5-.918 0-.243.07-.441.154-.441.356 0 .68-.561.68-1.178s.03-.655.5-.655c.422 0 .5-.065.5-.417 0-.328.085-.416.4-.416.22 0 .635-.221.923-.49s.728-.513.976-.542c.322-.037.467-.16.505-.427l.054-.375h7.256l.2.417c.165.363.297.417 1.016.417.777 0 .83.027.878.458.038.324.16.474.418.51a.47.47 0 0 1 .416.417c.037.258.187.38.51.417.36.042.458.14.458.456 0 .287.116.431.407.504.248.062.427.243.458.462.08.567 3.3.553 3.55-.016.1-.206.28-.375.425-.375.348 0 .66-.331.66-.7 0-.209.127-.3.417-.3.333 0 .416-.083.416-.417s.084-.416.406-.416c.636 0 1.285-.308 1.375-.651.048-.182.286-.354.567-.411.338-.067.486-.196.486-.423 0-.211.132-.344.375-.379.268-.038.4-.183.427-.511.044-.381.134-.459.53-.459.304 0 .652-.175.96-.484.267-.267.666-.511.888-.542.604-.085.63-2.525.028-2.61-.27-.039-.375-.165-.375-.459 0-.339-.082-.405-.5-.405-.434 0-.5-.06-.502-.458-.004-.792-.19-1.209-.587-1.308-.213-.053-.425-.265-.478-.478-.1-.396-.516-.583-1.308-.587-.398-.002-.458-.068-.458-.502 0-.416-.067-.5-.4-.5-.286 0-.428-.118-.503-.417s-.217-.416-.5-.416c-.217 0-.636-.225-.93-.5-.316-.296-.716-.5-.978-.5-.3 0-.496-.122-.607-.375-.146-.332-.304-.381-1.363-.424-1.164-.047-1.2-.062-1.25-.5l-.052-.451-1.79-.048c-1.78-.047-1.792-.049-1.792-.458V1.5h-10.183l-.38.409m97.006-.298c-.06.061-.11.249-.11.417 0 .27-.15.305-1.312.305-1.836 0-2.337.124-2.458.605-.09.353-.192.395-.973.395-.702 0-.963.083-1.324.417-.248.229-.636.417-.864.417-.506 0-1.235.454-1.235.769 0 .153-.198.231-.584.231-.51 0-.583.051-.583.416 0 .331-.084.417-.406.417-.636 0-1.222.283-1.338.647-.064.202-.28.353-.556.384-.348.041-.462.154-.502.501s-.153.46-.5.5c-.314.036-.464.161-.5.416a.47.47 0 0 1-.417.417c-.257.036-.38.186-.417.51-.042.361-.14.458-.463.458-.315 0-.43.108-.503.467-.05.258-.254.537-.454.625-.272.12-.373.329-.41.856-.045.62-.102.704-.5.75-.372.043-.46.146-.502.594-.038.395-.135.542-.357.542-.36 0-.507.317-.507 1.101 0 .45-.085.606-.394.723-.46.175-.6.595-.604 1.801-.002.821-.028.875-.42.875h-.417v1.905c0 1.723-.03 1.915-.315 2.006-.597.189-.694.853-.647 4.423l.046 3.416.458.052.458.053.003 2.031c.003 2.101.05 2.315.54 2.496.23.084.292.303.292 1.029 0 .913.004.922.5.922s.5.009.5.917c0 .866.022.916.416.916.374 0 .417.068.417.653 0 .909.14 1.181.6 1.181.332 0 .4.083.4.5s.065.5.417.5c.33 0 .416.084.416.404 0 .226.22.623.5.902s.573.693.663.93.264.43.388.43.476.225.784.5c.34.305.743.5 1.03.5.41 0 .47.063.47.5 0 .423.064.5.416.5.334 0 .417.084.417.417 0 .348.08.417.482.417.306 0 .68.183 1.018.5.294.275.715.5.934.5s.4.069.4.154c0 .438.563.679 1.585.679 1.032 0 1.06.012 1.113.458.052.454.066.459 1.417.507 1.263.045 1.368.075 1.416.417l.053.368h13.666l.054-.375c.05-.353.13-.375 1.387-.375s1.364-.029 1.826-.491c.398-.398.658-.501 1.363-.542.758-.044.877-.099.924-.425.038-.269.165-.375.447-.375.637 0 1.275-.312 1.368-.669.06-.234.228-.331.567-.331.402 0 .48-.069.48-.417 0-.33.084-.417.406-.417.638 0 1.285-.307 1.376-.654.045-.175.263-.363.484-.418.243-.061.4-.222.4-.41 0-.21.16-.341.5-.409.382-.077.5-.191.5-.485 0-.274.143-.438.5-.573.335-.126.5-.303.5-.536 0-.191.07-.348.154-.348.356 0 .68-.561.68-1.179s.03-.654.5-.654c.416 0 .5-.067.5-.399 0-.285.117-.428.41-.502.346-.086.43-.233.52-.916.085-.639.194-.853.506-.995.35-.159.397-.293.397-1.101 0-.686.06-.921.238-.921.433 0 .762-.982.762-2.275 0-1.195.01-1.225.417-1.225h.417V20h-.4c-.4 0-.412-.039-.46-1.375-.048-1.362-.052-1.375-.506-1.428-.437-.05-.46-.095-.46-.947 0-1.062-.227-1.75-.58-1.75-.162 0-.254-.156-.254-.429 0-.255-.203-.633-.5-.93-.327-.327-.5-.668-.5-.987 0-.43-.058-.487-.5-.487s-.5-.056-.5-.5c0-.423-.065-.5-.417-.5-.333 0-.416-.084-.416-.417 0-.352-.078-.417-.5-.417-.446 0-.5-.054-.5-.507 0-.674-.653-1.326-1.326-1.326-.453 0-.508-.054-.508-.5 0-.419-.066-.5-.405-.5-.32 0-.417-.098-.46-.458-.04-.349-.153-.47-.474-.508-.244-.028-.5-.204-.584-.417-.128-.291-.324-.377-.953-.418-.704-.045-.79-.094-.79-.44 0-.454-.276-.592-1.18-.592-.585 0-.653-.043-.653-.417 0-.398-.044-.417-1.005-.417-.75 0-1.03-.065-1.103-.256-.184-.479-1-.744-2.292-.744-1.112 0-1.297-.046-1.668-.416l-.417-.417h-4.896l-5.008.111m-208.424.948c-.138.166-.177 6.406-.146 23.542l.043 23.316h14.666l.087-15.584h10.478c8.766 0 10.51-.038 10.67-.232.358-.432.17-12.016-.2-12.387-.278-.278-.974-.301-10.625-.348l-10.327-.051v-5.479l23.083-.086V2.417l-18.77-.043c-15.667-.035-18.8-.005-18.96.185m56.43-.12c-.064.064-.117.302-.117.528s-.187.585-.416.798c-.346.32-.417.54-.417 1.29 0 .87-.018.907-.5 1.003s-.5.133-.5 1.01c0 .81-.04.915-.368.962-.432.063-.592.517-.615 1.75-.015.763-.06.87-.392.917s-.38.166-.425.928c-.035.607-.12.875-.28.875-.437 0-.753.513-.753 1.222 0 .565-.072.731-.375.863-.332.146-.38.305-.424 1.363-.047 1.164-.062 1.199-.5 1.25-.418.048-.455.115-.5.917-.043.745-.1.871-.417.916-.322.046-.373.169-.417 1.011-.035.684-.116.958-.282.958-.44 0-.75.708-.75 1.704 0 .916-.02.963-.417.963s-.416.05-.416.916c0 .772-.048.917-.3.917-.487 0-.7.351-.705 1.158-.004.618-.097.849-.5 1.245-.427.418-.495.609-.495 1.375 0 .837-.025.889-.417.889s-.417.051-.417.898c0 .807-.04.909-.395.998-.39.098-.6.616-.608 1.5-.001.194-.19.53-.416.746-.35.331-.414.546-.414 1.364 0 .936-.017.973-.458 1.024-.427.049-.462.113-.51.918-.043.745-.1.871-.416.916-.337.048-.37.158-.415 1.334-.048 1.255-.058 1.282-.5 1.333-.42.048-.456.116-.502.911-.044.753-.1.872-.458.961-.37.093-.41.187-.41.998 0 .805-.04.906-.396.995-.46.116-.598.51-.6 1.729-.002.73-.052.875-.303.875-.443 0-.7.334-.697.908.005.974-.378.932 8.008.885l7.74-.043.05-.959c.042-.802.1-.958.357-.958.41 0 .5-.318.5-1.597 0-1.017.02-1.07.4-1.07.468 0 .6-.271.6-1.224 0-.563.072-.728.375-.861.33-.146.38-.304.424-1.363.047-1.164.06-1.199.5-1.25.42-.048.455-.114.5-.927.028-.481.116-.875.197-.875.425 0 .67-.569.67-1.558 0-.997.018-1.042.5-1.224.464-.175.5-.248.5-1.029 0-.674.082-.923.416-1.257.345-.345.417-.577.417-1.345 0-.822.045-.945.394-1.078.46-.175.6-.594.604-1.8.002-.811.03-.875.4-.875.438 0 .595-.347.604-1.334.003-.4.135-.706.42-.975.34-.324.413-.551.413-1.292 0-.668.062-.899.238-.899.454 0 .762-.508.762-1.254 0-.536.105-.842.394-1.154.56-.605.587-.57.64.866.045 1.187.08 1.296.416 1.344.322.046.373.168.416 1 .047.892.077.951.502 1 .442.051.452.078.5 1.333.044 1.176.078 1.286.415 1.333.316.045.373.172.416.917.047.802.083.868.502.917.446.051.453.07.5 1.416.045 1.272.074 1.369.423 1.418.322.046.375.154.375.766 0 .815.41 1.764.763 1.764.18 0 .237.245.237.997 0 .924.03 1.005.417 1.102.374.093.418.192.433.961.024 1.219.185 1.681.607 1.743.314.045.367.174.4 1 .047.892.077.95.502.999.442.051.452.079.5 1.334.044 1.184.076 1.285.423 1.334.336.048.375.147.375.946 0 .769.07.961.5 1.392.436.436.5.619.5 1.43v.929h15.68l-.05-1.292c-.048-1.266-.058-1.292-.5-1.343s-.453-.086-.5-1.25c-.043-1.059-.092-1.217-.424-1.363-.295-.129-.375-.301-.375-.802 0-.805-.25-1.283-.672-1.283-.286 0-.328-.117-.328-.917 0-.855-.027-.917-.397-.917s-.402-.071-.468-1.106c-.06-.951-.132-1.156-.51-1.459-.35-.28-.45-.52-.49-1.185-.047-.77-.086-.837-.5-.886-.437-.05-.458-.093-.458-.966 0-.751-.074-.986-.417-1.329-.31-.312-.417-.595-.42-1.118-.003-.818-.124-1.056-.58-1.141-.272-.051-.348-.23-.416-.978-.072-.792-.134-.922-.46-.968s-.375-.151-.375-.858c0-.663-.087-.897-.5-1.339-.425-.455-.5-.667-.5-1.416 0-.796-.04-.891-.408-.984-.36-.09-.414-.207-.458-.976-.047-.815-.08-.878-.51-.927-.42-.048-.458-.111-.458-.771 0-1.119-.174-1.739-.52-1.849-.235-.075-.313-.259-.313-.741 0-.897-.14-1.169-.6-1.169-.367 0-.4-.066-.4-.826 0-.96-.26-1.628-.684-1.763-.228-.072-.31-.302-.35-.962-.04-.712-.116-.895-.425-1.031-.32-.14-.375-.291-.375-1.041 0-.864-.007-.877-.5-.877s-.5-.018-.5-.845c0-.871-.214-1.473-.607-1.705-.13-.077-.226-.417-.226-.803 0-.834-.246-1.314-.673-1.314-.285 0-.327-.117-.327-.917 0-.854-.027-.916-.397-.916s-.402-.073-.467-1.086c-.113-1.783.445-1.657-7.61-1.711-3.83-.026-7.013.005-7.077.069M245 8.833v6.5h13.833V49.5h13.834V15.337l13.75-.087V2.417L245 2.332v6.501m105.167-6.284l-.417.211-.042 23.144.145 23.37c.153.184 1.52.226 7.334.226h7.146V15.333h10.334v.417c0 .365.072.417.583.417.4 0 .583.076.583.244 0 .134.14.319.312.411s.356.394.412.672c.073.364.196.506.44.506.32 0 .337.103.337 1.917v1.916h-.416c-.33 0-.417.084-.417.406s-.098.417-.458.458-.47.151-.51.511c-.05.437-.096.459-.948.459-1.062 0-1.75.227-1.75.579 0 .215-.353.254-2.333.254h-2.333v12h.386c.335 0 .407.116.542.875.128.723.22.884.53.928.29.042.375.162.375.542 0 .403.07.488.395.488.348 0 .408.099.506.832.092.695.176.848.512.932.278.07.417.237.452.544s.163.458.412.494c.296.042.382.2.474.875.1.727.16.823.515.823.334 0 .4.083.4.5 0 .443.056.5.49.5.475 0 .493.029.542.875.043.755.1.882.415.927.255.037.38.187.417.5.04.349.153.46.5.501.42.048.458.113.458.758 0 1.163-.435 1.106 8.45 1.106H393v-1.333c0-1.311-.007-1.334-.417-1.334-.34 0-.416-.081-.416-.44 0-.272-.192-.623-.5-.918-.338-.323-.5-.64-.5-.976 0-.421-.065-.499-.417-.499-.33 0-.417-.084-.417-.404 0-.226-.22-.623-.5-.904-.275-.275-.5-.657-.5-.849 0-.212-.165-.425-.416-.54-.272-.124-.417-.326-.417-.58 0-.32-.087-.39-.49-.39-.475 0-.493-.028-.542-.875-.047-.816-.08-.878-.51-.927-.384-.045-.458-.133-.458-.542s-.067-.489-.417-.489c-.39 0-.416-.055-.416-.837 0-.798-.024-.843-.5-.938-.417-.083-.5-.18-.5-.579s-.07-.479-.417-.479c-.393 0-.417-.051-.417-.908v-.908l.875-.051c.816-.047.88-.081.928-.508.04-.36.14-.459.458-.459s.406-.086.406-.416c0-.346.08-.417.467-.417.562 0 1.533-.922 1.533-1.455 0-.241.12-.372.375-.408.266-.038.4-.184.427-.502.04-.346.153-.46.5-.5.415-.048.452-.116.498-.927.047-.803.084-.875.46-.875.387 0 .408-.05.408-1 0-.565.073-1 .17-1 .682 0 .83-.95.83-5.354.001-4.871-.044-5.275-.597-5.414-.355-.089-.393-.199-.437-1.29-.043-1.044-.094-1.212-.416-1.353-.213-.093-.388-.339-.417-.583-.037-.322-.158-.435-.507-.475-.373-.043-.46-.137-.46-.5-.004-.761-.176-1.149-.595-1.34-.23-.105-.403-.326-.403-.517 0-.22-.146-.371-.428-.442a.92.92 0 0 1-.575-.491c-.112-.295-.324-.411-.905-.498-.656-.099-.758-.167-.758-.512 0-.327-.085-.397-.483-.397-.306 0-.678-.183-1.017-.5-.44-.412-.677-.5-1.333-.5-.712 0-.81-.045-.902-.417-.104-.413-.122-.417-1.935-.417-1.82 0-1.83-.002-1.83-.399 0-.219-.12-.444-.264-.5-.567-.217-27.298-.107-27.736.115M62.5 3c0 .25.11.333.442.333.432 0 .436-.008.14-.333-.166-.183-.365-.333-.442-.333s-.14.15-.14.333m1 .839a.29.29 0 0 0 .328.328c.215 0 .297-.082.237-.237-.15-.395-.565-.461-.565-.091M42.167 5.661c0 .228.11.339.333.339.183 0 .333-.072.333-.161s-.15-.241-.333-.339c-.283-.151-.333-.127-.333.161m.833.897c0 .331.084.442.333.442.184 0 .334-.063.334-.141s-.15-.276-.334-.442c-.325-.295-.333-.291-.333.141m1 .947c0 .417.066.495.417.495.61 0 .518-.645-.125-.882-.237-.087-.292-.014-.292.387m8.333 2.582c0 .335-.103.442-.5.521-.342.069-.5.199-.5.413 0 .398.252.401.533.006.12-.168.44-.413.715-.543.66-.313.77-.817.18-.817-.347 0-.43.08-.43.42m19.5 3.663c0 .487.052.507.405.155s.33-.572-.07-.572c-.245 0-.334.111-.334.417m244.667.752c0 .435 1.09.83 2.292.831 1.177 0 1.208.011 1.208.417 0 .393.05.417.906.417.864 0 .908.021.958.458.037.324.16.474.417.51a.47.47 0 0 1 .417.417c.036.255.186.38.5.416.347.04.46.154.5.5s.154.46.502.501c.417.048.454.115.5.916.043.746.1.872.417.917s.373.172.416.917c.047.805.082.868.51.917l.458.053v6.503l-.5.5c-.433.433-.5.622-.5 1.404 0 .847-.026.904-.406.904-.318 0-.417.098-.458.458-.037.323-.16.474-.415.51-.226.032-.426.235-.533.542-.094.269-.29.49-.433.49s-.332.181-.416.402-.3.449-.478.506a.69.69 0 0 0-.411.431c-.057.221-.228.328-.522.328-.35 0-.456.097-.536.5-.097.481-.133.5-1.004.5-.74 0-.978.074-1.32.416-.404.405-.485.417-2.724.417h-2.308l-.104-.417c-.096-.379-.184-.416-1-.416-.805 0-.906-.041-.995-.397-.103-.408-.512-.597-1.3-.601-.363-.002-.457-.088-.5-.461-.037-.323-.16-.473-.417-.51a.47.47 0 0 1-.417-.417c-.037-.257-.187-.38-.5-.417-.384-.044-.46-.132-.46-.542s-.067-.489-.416-.489c-.38 0-.417-.063-.417-.716 0-.765-.22-1.117-.693-1.117-.25 0-.3-.189-.342-1.292-.045-1.195-.076-1.295-.423-1.345-.46-.065-.598-3.881-.15-4.146.43-.255.608-.869.608-2.112s.004-1.25.458-1.302c.36-.042.47-.151.51-.511.03-.252.118-.459.197-.459.345 0 .667-.569.667-1.178 0-.617.03-.655.5-.655.415 0 .5-.067.5-.395s.107-.413.664-.502c.45-.072.752-.24.936-.521.164-.251.43-.415.67-.415.312 0 .397-.089.397-.417 0-.407.03-.417 1.292-.433 1.614-.021 2.08-.146 2.29-.614.173-.388 1.42-.564 1.42-.201M38.5 23c0 .183.072.333.16.333s.24-.15.34-.333c.15-.283.127-.333-.16-.333-.228 0-.34.109-.34.333m-1 1.006c0 .287.05.312.333.161.184-.098.334-.251.334-.34s-.15-.16-.334-.16c-.224 0-.333.111-.333.339m-15.667 3.661c0 .183.073.333.16.333s.24-.15.34-.333c.152-.283.127-.334-.16-.334-.23 0-.34.11-.34.334m-1 .833c0 .183.064.333.14.333s.277-.15.443-.333c.294-.325.29-.333-.14-.333-.332 0-.443.083-.443.333m-1 1c0 .183.1.333.244.333s.325-.15.423-.333c.157-.293.127-.333-.244-.333-.312 0-.423.087-.423.333M19.5 38l-.417.417.4.055c.487.069.568-.012.5-.499l-.055-.39L19.5 38m-.967.867c-.293.293-.244.466.134.466A.29.29 0 0 0 19 39c0-.378-.173-.427-.467-.133m-.987.841c-.415.537-.4.625.11.625.433 0 .5-.063.5-.416 0-.446-.347-.562-.62-.209m-9.713.953c0 .443.04.48.375.357.563-.207.604-.851.054-.851-.364 0-.43.074-.43.494m-.87.907c-.09.475.28.416.548-.088.138-.256.1-.313-.15-.313-.206 0-.348.143-.397.401m27.575 3.691c-.453.318-.478.574-.056.574.202 0 .342-.148.393-.416.044-.229.07-.417.057-.417s-.2.117-.394.259m-5.775 5.67c-.36.359-.328.557.07.453.185-.049.334-.228.334-.401 0-.382-.067-.391-.405-.052M27.7 51.7c-.33.331-.227.633.217.633.333 0 .416-.083.416-.416 0-.444-.302-.548-.633-.217M57 52c0 .224.11.333.34.333.288 0 .312-.05.16-.333-.098-.183-.25-.333-.34-.333s-.16.15-.16.333m.833.833a.29.29 0 0 0 .334.334c.377 0 .427-.173.133-.467s-.467-.244-.467.133m1 1a.29.29 0 0 0 .334.334c.377 0 .427-.173.133-.467s-.467-.244-.467.133m.834.839c0 .437.057.495.494.495.595 0 .498-.623-.133-.856-.32-.118-.36-.076-.36.361M10.2 57.367c-.294.293-.244.466.133.466a.29.29 0 0 0 .334-.333c0-.378-.173-.427-.467-.133m48.633.8c0 .377.173.427.467.133s.244-.467-.133-.467a.29.29 0 0 0-.334.334m-49.5.166l-.416.417.39.055c.488.069.568-.011.5-.499l-.055-.389-.417.416m23.204-.074c-.488.342-.47.574.046.574.334 0 .417-.083.417-.416 0-.492.01-.489-.463-.158m25.296.838c0 .5.275.472.63-.064.23-.346.22-.366-.194-.366-.358 0-.437.077-.437.43m-49.57-.002c-.376.377-.324.572.155.572.333 0 .416-.084.416-.417 0-.478-.195-.531-.57-.155m23.363.085c-.392.228-.37.487.042.487a.29.29 0 0 0 .333-.334c0-.382.01-.378-.375-.153m-.894.65c-.528.213-.64.837-.15.837.297 0 .398-.111.456-.5.04-.275.067-.496.06-.49a7.59 7.59 0 0 1-.365.153m71.713 3.781c-.06.061-.11 10.636-.11 23.5V110.5h25.66l.104-.417c.1-.395.165-.416 1.295-.418 1.892-.003 2.44-.137 2.44-.595 0-.354.082-.391.96-.437.842-.044.964-.094 1-.416.045-.316.172-.374.917-.417.8-.046.868-.083.916-.5s.116-.454.917-.5.868-.082.917-.508c.045-.386.132-.459.55-.459.306 0 .638-.15.864-.39.202-.215.568-.44.814-.501.293-.072.465-.238.5-.484.038-.268.183-.39.51-.427.354-.041.46-.142.46-.441 0-.273.12-.418.414-.491.255-.064.454-.263.518-.518.057-.228.165-.414.24-.414.34 0 .66-.574.66-1.179 0-.616.03-.655.5-.655.435 0 .5-.06.5-.46 0-.318.116-.512.375-.625.3-.131.385-.322.425-.94.042-.653.112-.792.44-.874.45-.113.59-.514.592-1.726.002-.758.046-.875.33-.875.535 0 .672-.536.672-2.616 0-1.884.017-1.979.375-2.136.37-.161.375-.216.375-3.081s-.006-2.92-.375-3.081c-.36-.158-.375-.249-.375-2.195 0-2.327-.054-2.557-.6-2.557-.385 0-.4-.042-.4-1.265 0-1.247-.006-1.267-.492-1.45-.445-.168-.497-.268-.542-1.027-.042-.728-.1-.849-.424-.895-.266-.038-.375-.166-.375-.441 0-.213-.225-.628-.5-.922s-.5-.714-.5-.931c0-.28-.118-.426-.402-.497-.24-.06-.443-.264-.503-.503-.073-.29-.217-.403-.515-.403-.33 0-.413-.084-.413-.413 0-.296-.113-.442-.396-.513-.218-.055-.48-.281-.58-.503s-.327-.404-.503-.404c-.2 0-.357-.153-.422-.411-.087-.347-.233-.429-.934-.522-.733-.097-.832-.157-.832-.505 0-.325-.086-.395-.482-.395-.306 0-.68-.183-1.018-.5-.294-.275-.71-.5-.927-.5s-.58-.188-.808-.417c-.352-.353-.572-.417-1.424-.417-.9 0-1.008-.036-1.008-.337 0-.48-.62-.663-2.253-.663-1.27 0-1.437-.038-1.815-.416l-.417-.417h-12.396l-12.508.111m65.723.806c0 .771-.048.916-.3.916-.48 0-.7.349-.7 1.109 0 .535-.103.812-.417 1.126-.34.34-.417.58-.417 1.305 0 .833-.03.899-.5 1.076-.464.175-.5.249-.5 1.025 0 .698-.056.855-.343.946-.44.139-.657.722-.657 1.758 0 .766-.028.822-.416.822-.394 0-.417.05-.417.917 0 .683-.06.916-.238.916-.454 0-.762.508-.762 1.255 0 .557-.1.829-.417 1.147-.344.344-.416.577-.416 1.341 0 .863-.026.924-.4.924-.458 0-.6.273-.6 1.141 0 .476-.084.65-.375.778-.303.133-.385.321-.427.979-.04.639-.157.92-.542 1.304-.42.42-.5.617-.5 1.383 0 .798-.04.897-.375.945-.327.047-.38.166-.425.936-.043.744-.11.905-.436 1.029-.45.171-.592.596-.595 1.786-.002.818-.026.866-.46.916-.427.049-.462.113-.51.918-.043.745-.1.871-.416.916s-.374.171-.418.95c-.042.733-.14.987-.542 1.387-.407.408-.5.627-.5 1.293 0 .717-.045.814-.417.907-.38.096-.417.184-.417 1.007 0 .803-.04.908-.368.955-.432.063-.59.517-.615 1.75-.015.763-.06.87-.392.917-.324.046-.38.167-.424.894-.044.76-.097.86-.542 1.027-.452.171-.492.252-.492.995 0 .678-.06.834-.375.972-.347.153-.38.287-.423 1.79l-.047 1.625h14.678v-.481c0-.339.098-.506.332-.567.425-.111.668-.761.668-1.785 0-.714.045-.817.375-.864s.38-.162.425-1.011c.028-.527.123-.959.21-.959.34 0 .82-1.091.822-1.863.001-.682.048-.787.376-.833.346-.05.378-.15.423-1.335.048-1.255.058-1.282.5-1.333.425-.049.455-.108.5-1 .044-.832.095-.954.417-1 .337-.048.37-.158.415-1.334.048-1.255.058-1.282.5-1.333s.453-.07.5-1.427c.047-1.319.065-1.375.44-1.375.466 0 .594-.274.594-1.264 0-.548.065-.736.254-.736.352 0 .58-.688.58-1.75 0-.852.02-.897.458-.947.427-.049.462-.112.51-.928.027-.481.116-.875.196-.875.43 0 .67-.57.67-1.595 0-.818.056-1.072.238-1.072.13 0 .356-.118.5-.262.238-.238.262-.218.262.217 0 .547.264.879.7.879.253 0 .3.145.3.916 0 .867.023.917.417.917.402 0 .416.038.416 1.094 0 1.236.195 1.739.673 1.739.286 0 .327.117.327.925 0 .763.073.996.417 1.34.318.318.417.591.417 1.148 0 .746.308 1.254.762 1.254.175 0 .238.229.24.875.003 1.157.134 1.593.516 1.714.25.08.315.262.315.889 0 .835.208 1.189.7 1.189.26 0 .3.153.3 1.133 0 1.171.165 1.533.7 1.533.253 0 .3.146.3.925 0 .763.072.996.417 1.34s.416.578.416 1.33c0 .882.018.917.5 1.014.49.097.5.123.5 1.09 0 1.063.203 1.635.58 1.635.17 0 .25.266.286.958.047.907.074.961.508 1.011.36.041.46.14.46.458v.406h7.296c6.334 0 7.345-.034 7.667-.259.46-.323.477-.838.037-1.113-.27-.169-.334-.389-.334-1.165 0-.876-.034-.965-.408-1.059-.358-.09-.415-.208-.46-.962-.046-.798-.08-.862-.508-.911-.446-.052-.458-.081-.458-1.113 0-1.022-.24-1.585-.68-1.585-.085 0-.154-.294-.154-.653 0-.908-.14-1.18-.6-1.18-.376 0-.4-.058-.4-.977 0-.802-.07-1.049-.392-1.375-.25-.255-.43-.688-.5-1.203-.13-.979-.204-1.112-.62-1.112-.28 0-.324-.12-.324-.916 0-.908-.005-.917-.5-.917h-.5l-.002-1.125c-.003-1.199-.078-1.42-.54-1.59-.225-.083-.292-.3-.292-.951 0-.803-.024-.847-.5-.942s-.5-.134-.5-.996c0-.845-.024-.896-.417-.896s-.416-.056-.416-.822c0-1.035-.242-1.685-.67-1.797-.283-.074-.33-.229-.33-1.067 0-.935-.02-.981-.417-.981-.388 0-.417-.056-.417-.815 0-.677-.085-.908-.5-1.351-.374-.401-.5-.695-.5-1.171 0-.851-.14-1.163-.517-1.163-.266 0-.316-.126-.316-.8 0-.845-.207-1.2-.7-1.2-.25 0-.3-.144-.302-.875-.003-1.218-.14-1.612-.6-1.728-.357-.089-.397-.191-.397-.995 0-.811-.038-.905-.41-.998-.358-.09-.414-.208-.458-.961-.046-.796-.083-.863-.5-.911-.443-.051-.453-.079-.5-1.334-.045-1.175-.08-1.285-.415-1.333-.316-.045-.374-.172-.417-.917-.047-.805-.082-.868-.508-.917-.438-.05-.46-.094-.46-.958V63.5h-14.666v.917M208.833 87v23.5h13.834v-47h-13.834V87m25 0v23.5h36.004l-.087-12.75-22.083-.086V63.5h-13.834V87m31.535-22.208c.048 1.271.056 1.292.507 1.344.437.05.458.094.458.958 0 .855.024.906.417.906.32 0 .417.087.42.375.004.702.21 1.15.592 1.296.25.094.4.308.435.612.04.337.158.482.43.52.32.046.375.154.375.759 0 .752.22 1.105.7 1.105.223 0 .303.165.342.708s.138.746.42.87c.212.093.388.339.416.583.038.319.16.435.5.474.416.048.453.116.5.917.043.751.1.871.425.918.268.038.375.165.375.447 0 .632.287 1.212.657 1.33.243.077.343.25.343.597 0 .43.06.489.49.489.475 0 .493.029.542.875.044.762.098.882.425.928.268.038.375.166.375.448 0 .631.31 1.274.66 1.365.196.052.342.257.373.526.036.311.162.457.426.495.308.043.375.158.375.636 0 .746.26 1.227.663 1.227.255 0 .328.14.37.708.04.542.138.747.42.87.24.105.384.335.416.666.04.413.134.516.508.559.424.048.46.109.46.795 0 .63.063.771.416.932.265.121.417.327.417.565 0 .212.217.558.5.796l.5.421V110.5h14.833V92.848l.417-.416c.23-.229.417-.608.417-.841 0-.257.094-.424.238-.424.43 0 .762-.509.762-1.167 0-.54.06-.652.375-.697.27-.038.4-.183.428-.52.036-.309.187-.518.447-.616.304-.116.42-.321.506-.899.09-.596.185-.76.47-.8.305-.044.364-.178.407-.916.046-.801.083-.869.5-.917.348-.04.462-.153.502-.5.036-.313.16-.463.416-.5.314-.044.372-.172.415-.916.047-.801.084-.869.5-.917s.454-.116.5-.917.084-.868.5-.916c.34-.04.462-.155.5-.474a.77.77 0 0 1 .416-.584c.29-.127.378-.324.418-.942.046-.71.092-.787.5-.834.352-.04.46-.152.503-.514.03-.254.235-.644.458-.867s.405-.596.405-.83c0-.256.094-.424.238-.424.43 0 .762-.508.762-1.167 0-.54.06-.652.375-.696.273-.039.4-.184.43-.531.035-.309.172-.508.388-.564.36-.095.64-.66.64-1.291 0-.282.106-.41.375-.448.326-.046.38-.166.425-.928.05-.846.067-.875.542-.875.432 0 .49-.059.49-.488 0-.38.084-.501.375-.542.3-.044.402-.205.53-.927.108-.61.247-.902.458-.969.416-.132.473-1.193.08-1.447-.106-.068-3.792-.106-8.192-.084l-8 .04-.05.875c-.047.804-.084.875-.46.875-.338 0-.408.082-.408.481 0 .339-.097.506-.33.567-.357.093-.67.732-.67 1.368 0 .282-.106.41-.375.448-.32.045-.382.169-.425.845-.04.622-.113.791-.342.791-.47 0-.69.353-.69 1.105 0 .605-.054.713-.375.759-.267.038-.4.183-.427.505-.03.248-.273.688-.542.976s-.49.686-.49.883c0 .213-.153.427-.375.524-.297.131-.386.323-.425.923-.043.667-.108.78-.54.944-.445.168-.493.259-.493.931 0 .701-.03.75-.5.819-.455.067-.5.031-.5-.398 0-.381-.073-.471-.386-.471-.335 0-.407-.116-.542-.875-.128-.723-.22-.884-.53-.928-.282-.04-.376-.164-.377-.5-.004-.789-.193-1.197-.6-1.3-.304-.076-.397-.213-.397-.581 0-.401-.07-.482-.408-.482-.375 0-.412-.072-.458-.875-.047-.812-.083-.879-.5-.927s-.453-.116-.5-.917c-.043-.752-.1-.872-.425-.918-.268-.038-.375-.165-.375-.447 0-.637-.312-1.275-.668-1.369-.23-.059-.332-.227-.332-.542 0-.253-.18-.652-.405-.894s-.43-.645-.458-.899c-.042-.364-.15-.474-.512-.515s-.458-.14-.458-.458V63.5h-15.68l.05 1.292M36 68.133c0 .54.902.695 1.167.2.164-.307.126-.333-.494-.333-.37 0-.673.06-.673.133M19.625 70.18c-.396.231-.37.653.042.653.244 0 .333-.111.333-.416 0-.473.015-.464-.375-.237m-.917.942c-.457.307-.483.545-.06.545.184 0 .354-.153.4-.368.123-.47.103-.48-.35-.177m-1.162.92c-.415.536-.4.625.11.625.433 0 .5-.063.5-.417 0-.445-.347-.562-.62-.208m106.24 4.583c.17.46.39.536 1.572.539 1.037.003 1.113.029 1.2.414.087.347.233.428.935.521.723.096.83.16.83.493 0 .288.122.408.5.491.342.075.5.21.5.427 0 .199.155.356.417.422s.417.222.417.423c0 .177.182.402.408.505s.43.344.458.538c.035.244.19.368.51.405.457.052.458.056.458 1.379v1.326l1 .2v2.313c0 2.116-.026 2.312-.3 2.312-.543 0-.7.361-.7 1.606 0 1.191-.005 1.206-.458 1.258-.36.042-.47.151-.512.515-.03.254-.235.645-.458.868s-.405.596-.405.829c0 .337-.083.424-.4.424-.22 0-.64.225-.935.5s-.713.5-.93.5c-.283 0-.425.119-.5.417-.094.372-.19.417-.902.417-.657 0-.893.088-1.333.5l-.536.5h-7.464V76.333h3.255c2.948 0 3.265.028 3.363.292m-118.2 6.637c-.356.356-.33.571.072.571.244 0 .333-.111.333-.416 0-.488-.052-.508-.405-.155M4.7 84.2c-.294.294-.244.467.133.467a.29.29 0 0 0 .334-.334c0-.377-.173-.427-.467-.133m-.865.682c-.58.292-.65.785-.116.785.328 0 .424-.1.483-.5.04-.275.068-.499.06-.498s-.2.097-.428.213M18.533 103.7c-.29.289-.246.467.114.467a.45.45 0 0 0 .401-.334c.098-.373-.198-.449-.515-.133m-.833.833c-.294.294-.244.467.133.467a.29.29 0 0 0 .334-.333c0-.378-.173-.427-.467-.134" fill="#040404"/><path d="M25.856 2.021c-.012.242.108.541.27.667.254.199.267.196.1-.021-.105-.138-.227-.438-.27-.667l-.076-.417-.023.438m2.977 3.171c.922.919 2.338 2.131 1.75 1.498a13.26 13.26 0 0 0-1.333-1.233c-.367-.283-.554-.402-.417-.265m2.834 2.641c.195.275.393.5.44.5s-.077-.225-.273-.5-.393-.5-.44-.5.077.225.273.5m-.603 52.074a1.05 1.05 0 0 0-.014.542c.053.203.084.156.097-.143.01-.245.113-.483.228-.529.163-.066.162-.087-.005-.097-.118-.007-.255.095-.306.227m5.436 7.926l-.417.134.46.016c.252.01.458-.058.458-.15s-.02-.159-.042-.15a20.85 20.85 0 0 1-.458.15M4.23 84.907c-.05.132-.063.376-.027.542.04.188.098.098.152-.241.1-.567.03-.71-.125-.301" fill="#407038"/></svg>