<svg xmlns="http://www.w3.org/2000/svg" width="400" height="119" viewBox="0 0 400 NaN" fill-rule="evenodd"><path d="M288.167 4.645c0 .078-.394.724-.875 1.435l-1.047 1.565-1 1.507-37.034 55.583c-.16.268-.207 3.36-.21 13.473L248 91.333h43.503l-.086-17.583-11.375-.043-11.375-.125c0-.045.59-.963 1.31-2.04l2.042-3.129c1.167-1.866 1.217-1.943 3.34-5.129.72-1.081 1.3-2.024 1.3-2.095s.28-.514.625-.985 1.3-1.912 2.125-3.201l3-4.635 2.445-3.788c.52-.823 1.064-1.628 1.21-1.788s.262-.336.262-.389.252-.484.56-.958l3.3-5.112.93-1.419c.155-.207 1.068-1.597 2.077-3.164l1.4-2.147c.743-1.123.768-1.163 1.6-2.515.34-.553.7-1.097.796-1.21s.34-.488.543-.834.9-1.433 1.574-2.418 1.334-2.035 1.487-2.333.324-.581.38-.626.3-.364.518-.708.547-.624.707-.625c.277-.001.292 2.295.292 45.883l.2 46.083c.296.296 17.96.287 18.332-.008.22-.174.28-.823.367-3.875.09-3.166.56-8.334.76-8.334.04 0 .056-.091.425-2.25.15-.871.338-1.733.42-1.916s.272-.821.42-1.417c.362-1.46 1.475-4.797 1.807-5.417.147-.275.267-.563.268-.641s.255-.677.566-1.333l.834-1.776c.148-.32.49-.921.762-1.333s.597-.975.724-1.25c.256-.555 2.26-3.478 2.742-4 .17-.183.504-.601.743-.928 1.445-1.979 5.457-5.772 8.488-8.026l2.707-1.963c.035 0 1.14-.657 2.457-1.461 2.427-1.482 10.74-5.705 11.228-5.705.057 0 .493-.181.97-.402a89.99 89.99 0 0 1 2.531-1.101c.917-.384 1.93-.838 2.25-1.008s.846-.426 1.167-.569 1.146-.594 1.833-1.001 1.494-.864 1.792-1.015.54-.342.54-.423.094-.148.21-.149c.23 0 2.868-2.092 3.79-3.006 1.605-1.586 3.672-4.877 3.93-6.256.06-.314.162-.57.228-.57s.13-.094.143-.209.15-.77.306-1.458c.497-2.191.32-9.823-.25-10.75a1.11 1.11 0 0 1-.12-.417 1.98 1.98 0 0 0-.116-.5c-.054-.137-.217-.676-.362-1.197a11.88 11.88 0 0 0-.678-1.775c-.228-.454-.415-.862-.415-.906 0-.692-2.417-3.681-4.013-4.964-6.667-5.356-19.503-3.397-24.082 3.676-.267.412-.533.787-.6.833-.133.105-1.648 3.082-1.648 3.237 0 .063-.142.429-.314.814-1 2.25-1.71 9.737-1.143 12.199.064.275.262 1.25.44 2.167l.442 2.208.116.542h-18.31l-.27-.625c-1.134-2.615-1.115-13.741.03-17.709a36.33 36.33 0 0 0 .525-2.083c.117-.55.28-1.046.363-1.102s.145-.149.14-.207.02-.199.057-.314l.35-1.127c.157-.504.387-1.104.512-1.333s.378-.755.563-1.167c.66-1.476 2.393-4.36 2.688-4.472.08-.031.145-.135.145-.232 0-.184 1.443-2.02 2.583-3.287 1.366-1.517 2.815-2.885 4.157-3.926l1.098-.872c.57-.468 2.165-1.544 2.288-1.544.05 0 .325-.173.608-.385s.923-.594 1.42-.85l1.166-.609c1.663-.906 6.452-2.671 7.43-2.737.092-.006.243-.06.337-.118.277-.175 4.53-.767 6.33-.882 1.83-.116 2.25-.197 2.25-.431 0-.097-13.722-.156-36-.154l-36 .144m107.578 36.397c-.025 3.191-1 9.851-1.7 11.625l-.127.333c-.016.046-.073.196-.127.333a28.11 28.11 0 0 0-.382 1.167c-2.235 7.19-8.588 14.553-17.575 20.369-2.538 1.643-2.948 1.893-3.833 2.343-.413.21-1.05.582-1.417.828-.925.619-4.147 2.273-11.583 5.945l-4.08 2.058c-2.458 1.543-4.754 3.336-4.754 3.714 0 .053-.22.373-.5.711-1.262 1.585-2.522 6.106-1.825 6.547.342.217 47.587.196 47.992-.021.492-.263.5-56.661.007-56.661-.055 0-.103.319-.106.709" fill="#ec243b"/><path d="M6.167 13.417v8.916h9.5v74.334h-11.5V114.5h44.5V96.667h-11.5V22.333h9.5V4.5h-40.5v8.917m100.75 20.019c-1.83.104-4.666.432-4.75.55-.046.065-.87.251-1.834.414s-1.965.401-2.228.529-.976.354-1.583.502-1.255.362-1.44.475-.877.38-1.54.596-1.21.442-1.21.502-.318.204-.708.319-.97.35-1.292.522-1.008.494-1.527.718l-.945.406-.368-.859c-.202-.473-.42-.898-.48-.943s-.272-.459-.468-.917l-.355-.833-28.357-.086v17.502h11.5v43.834h-9.666V114.5H100.5V96.667h-9.667V52.893l1.71-.393 1.878-.519c1.29-.951 14.37-.964 15.074-.015.05.066.48.3.956.519s.906.5.954.625.278.301.51.39.497.351.585.585.272.466.407.517.41.444.616.871.42.815.483.86c.153.114.62 1.602.758 2.417.062.367.175.745.25.842.4.509.485 5.701.485 29.682V114.5h33V96.667h-11.653l-.055-19.792c-.058-20.324-.18-23.951-.806-24.181-.084-.03-.153-.193-.153-.361 0-.438-.672-3.217-.826-3.416-.07-.092-.3-.692-.5-1.334s-.43-1.204-.493-1.25-.3-.514-.506-1.041-.45-.959-.517-.959-.293-.337-.5-.75-.424-.75-.485-.75-.254-.266-.43-.591-.487-.702-.693-.837-.375-.325-.375-.422c0-.22-1.416-1.65-1.634-1.65-.09 0-.284-.187-.434-.416s-.345-.417-.432-.417-.555-.3-1.038-.666-.972-.666-1.087-.667-.208-.064-.208-.142-.45-.32-1-.539-1-.448-1-.511-.544-.28-1.21-.483-1.286-.43-1.38-.505c-.225-.176-3.178-.82-3.764-.82-.248 0-.477-.069-.507-.153-.113-.309-7.262-.726-9.89-.578m85.25.001c-2.955.097-6.916.419-7.075.575-.087.085-.387.155-.667.155-.745 0-4.548.641-4.886.823-.16.086-.983.319-1.83.518s-1.54.429-1.54.511-.113.148-.25.148c-.318 0-2.307.68-2.417.827-.046.061-.552.284-1.125.495s-1.042.442-1.042.511-.22.217-.487.328c-.497.206-1.995 1.113-2.596 1.572-2.25 1.721-3.754 3.224-5.345 5.35-.822 1.097-2.052 3.317-2.493 4.5-.172.458-.372.875-.445.926s-.292.727-.486 1.5-.418 1.489-.498 1.589c-.186.231-.816 3.893-.816 4.738 0 .36-.09.666-.21.705-.286.096-.306 30.199-.02 30.808.103.221.347 1.488.542 2.817s.43 2.442.52 2.473.166.172.166.315c0 .366.68 2.612.82 2.712.064.046.3.552.5 1.125s.436 1.042.5 1.042.242.289.398.642a5.45 5.45 0 0 0 .698 1.125c.23.266.416.555.416.644 0 .189.144.346 2.193 2.395 2.044 2.044 3.71 3.359 4.257 3.36.1 0 .26.104.333.23s.546.404 1.05.617.96.447 1.01.522.54.291 1.084.482 1.064.408 1.155.483.767.307 1.5.517 1.37.426 1.417.481c.097.115 2.24.613 3.333.775.413.061.788.168.835.238.1.151 5.198.822 6.245.822.4 0 .75.074.78.165.155.457 20.62.455 20.778-.003.03-.089.443-.16.917-.159 1.307.004 8.85-.701 8.944-.836.046-.065.57-.17 1.167-.232 2.208-.232 5.086-.663 5.167-.774.046-.063.458-.168.916-.233s1.002-.159 1.21-.208l.375-.089V94.833h-.634c-.348 0-.704.067-.79.148-.156.146-3.306.579-5.742.79-.687.059-1.325.164-1.417.233-1.034.778-24.615.775-26.333-.003-.183-.083-.933-.313-1.667-.511s-1.41-.421-1.502-.495-.602-.299-1.132-.497-1.16-.542-1.397-.763-.504-.402-.6-.402c-.454 0-3.524-2.907-3.72-3.522-.054-.171-.17-.311-.258-.311s-.23-.185-.316-.41-.34-.695-.565-1.042-.544-1.081-.7-1.631-.355-1.039-.42-1.086c-1.055-.77-1.03-21.009.03-22.981.08-.147.304-.792.5-1.433s.41-1.204.47-1.25.298-.495.526-.997.546-1.046.706-1.208.292-.364.292-.448c0-.14 2.028-2.214 2.8-2.875.524-.443 2.857-1.626 3.597-1.825.372-.1.715-.244.762-.319.38-.608 9.402-1.033 12.873-.607l1.125.139V63.5h21.666V50.093l-.125-13.482c-.068-.041-.837-.173-1.708-.293s-1.62-.265-1.667-.323c-.07-.091-2.76-.489-5.166-.765-.413-.048-.9-.154-1.084-.237-.337-.152-6.666-.827-7.758-.826-.325 0-.663-.068-.75-.151-.3-.283-11.12-.704-14.908-.579" fill="#040404"/><path d="M358.542 5.119a3.6 3.6 0 0 0 .916 0c.252-.038.046-.069-.458-.069s-.7.031-.458.069m-.6 16.839c-.043.069.496.105 1.198.08 2.24-.079 2.496-.148.662-.177-.98-.015-1.817.029-1.86.097m4.018-.007c.208.04.508.039.667-.003s-.01-.074-.377-.073-.497.036-.3.076m-12.958 3.708c-.227.175-.37.361-.32.412s.27-.093.485-.322c.465-.494.405-.527-.165-.09m-4.252 5.508c-.142.275-.22.5-.175.5s.2-.225.342-.5.22-.5.175-.5-.2.225-.342.5m-19.79 1.75c-.044.229-.015.416.064.416s.144-.187.144-.416-.03-.417-.064-.417-.1.188-.144.417m70.82 7.379c.108.069.227.424.264.789.067.659.068.657.096-.127.023-.654-.023-.791-.264-.789-.193.002-.225.045-.096.127m-.07.787c.002.367.036.497.076.29s.038-.507-.004-.667-.074.011-.072.377M342.872 47c0 .321.034.452.076.292a1.37 1.37 0 0 0 0-.584c-.042-.16-.076-.029-.076.292m52.054 1.375c-.146.478-.255 1.343-.157 1.244.124-.123.386-1.452.287-1.452-.037 0-.095.093-.13.208m-117.81 12.058c-.164.22-.24.4-.165.4.145 0 .605-.666.518-.75-.03-.028-.188.13-.353.35m111.55 2.775c-.245.336-.285.452-.105.306.273-.222.686-.847.56-.847-.032 0-.237.243-.455.541M247.9 65.042c-.044.114-.06 6.095-.036 13.291l.043 13.084.083-13.292.036-13.292c-.025 0-.082.094-.126.209m138.803.5c-.326.421-.437.68-.24.558s.593-.767.47-.767c-.038 0-.14.094-.23.209m-113.63 1.126c-.166.184-.263.373-.215.422s.212-.103.364-.335c.332-.507.266-.546-.15-.087m74.418.512l-.417.34.542-.264c.298-.146.542-.3.542-.344 0-.165-.266-.059-.667.268m-4.933 3.012l-.317.36.458-.295c.473-.305.562-.424.318-.424-.078 0-.284.162-.46.359m37.516 1.579c-.3.255-.36.356-.153.253.306-.152.88-.7.715-.685-.034.004-.287.198-.562.432m-10.875 6.915c-.752.482-.682.592.084.132.774-.466.8-.485.61-.482-.084.002-.397.159-.695.35m-8.083 4.076c-.623.338-.585.479.042.155.275-.143.5-.294.5-.338 0-.107-.018-.101-.542.183m-33.912 3.946c-.3.387-.4.625-.265.624.075-.001.222-.188.328-.417.21-.454.188-.531-.063-.207m20.71 7.334c-.14.445-.282 1.536-.19 1.444.118-.117.417-1.653.322-1.653-.037 0-.097.094-.133.209" fill="#f01820"/></svg>