<svg xmlns="http://www.w3.org/2000/svg" width="400" height="143.971" viewBox="0 0 400 NaN" fill-rule="evenodd"><path d="M17 71.583v56.584l365.917-.084L17.167 128V15.167l365.75-.084L17 15v56.583m76.143-32.064c-.146.093-.03.123.322.084.302-.034.586-.098.632-.144.145-.146-.717-.091-.954.06m4.084-.07c.063.063.282.138.486.167.294.041.32.018.12-.113-.283-.186-.783-.231-.606-.054m1.22.231c.096.096.41.181.697.189s.523.083.523.166.084.099.188.035c.127-.079.096-.167-.096-.275-.156-.087-.322-.121-.367-.076s-.317.017-.602-.065c-.36-.103-.464-.095-.343.026m-8.78.757l-.416.244.417-.111c.464-.124.59-.203.486-.306-.04-.039-.258.039-.487.173M117.414 64.5l.044 12.208V52.292c-.024-6.715-.044-1.221-.044 12.208m30 .417l.043 12.362V52.445c-.024-6.799-.043-1.187-.043 12.472m24.168-24.584c.46.197.622.197.5 0-.056-.091-.267-.161-.468-.155-.352.012-.353.017-.032.155m-17.375 31.125l-.04 31.209h9.666l-.08-23.584-.088 23.417h-9.33l-.085-62.25-.04 31.208m45.042-30.839c-.183.044-.403.146-.49.228s.094.076.398-.011c.86-.247.93-.419.09-.217m-24.108.423c.084.084.33.125.547.091.334-.053.3-.076-.153-.153-.33-.055-.486-.03-.394.062m34.11-.038c.04.068.262.158.49.202s.38.024.34-.044-.262-.158-.5-.201-.38-.024-.338.043m40.82 4.746c0 2.658.023 3.722.05 2.365s.028-3.533 0-4.834-.052-.189-.05 2.469m-146.45-3.949c.16.165.393.303.517.305s.052-.129-.166-.297c-.508-.39-.727-.396-.35-.008m171.406.543c.04.116.198.229.353.252.382.056.356-.045-.07-.273-.274-.147-.337-.142-.283.021M105 42.917c.114.137.282.25.374.25s.075-.111-.04-.25-.282-.25-.374-.25-.075.11.04.25m152.994.411c-.503.431-.52.469-.135.295.243-.109.525-.332.626-.494.253-.405.178-.375-.49.199m-44.006.318c.315.286.608.521.65.521.156 0-.56-.702-.887-.87-.184-.094-.078.063.236.349m-129.42.378c-.315.356-.315.357.058.161.206-.108.375-.269.375-.358 0-.236-.08-.2-.433.197m242.85.148c.056.318.167.643.246.723s.084-.123.005-.471c-.18-.801-.383-1.005-.25-.252m21.958.685c-.11.296-.168.572-.127.613.1.1.444-.81.38-1.002-.027-.082-.14.093-.253.389m-266.37 1.134c-.37.545-.672 1.089-.672 1.208s.118-.007.262-.281a8.8 8.8 0 0 1 .635-1c.486-.648.643-.918.535-.918-.048 0-.4.446-.76.991m195.452-.712c.207.144.375.369.375.501s.08.19.18.129c.202-.125-.455-.915-.75-.9-.1.005-.01.126.195.27m-170.285 1.169c.003.075.197.36.43.635l.424.5-.262-.531c-.256-.518-.604-.873-.592-.604m82.572 1.469l-.16.508c-.045.143-.016.219.064.169s.18-.278.225-.508c.087-.456-.003-.573-.13-.169m-27.002 2.125c-.044.114-.06 4.595-.035 9.958l.045 9.75.08-19.743 6.917-.097-3.464-.039c-2.645-.029-3.482.012-3.543.171m61.882.416l4.875.047v26.331l.125 26.331c.07 0 .106-11.888.082-26.417l-.042-26.417-9.915.078 4.875.047m16.844 0a148.81 148.81 0 0 0 5 0c1.346-.028.198-.051-2.552-.051s-3.852.023-2.448.051m27.457.057c.136.22.74.519.74.366 0-.072-.188-.218-.417-.324s-.373-.125-.322-.042m-159.923.249c.001.176.078.432.17.569.124.183.14.115.058-.25-.137-.612-.233-.746-.23-.319m204.423-.112c-.113.183.06.681.235.681.07 0 .1-.187.046-.416-.086-.451-.137-.499-.28-.265m-255.593.745c0 .137.075.296.167.353s.167-.009.167-.147-.075-.296-.167-.353-.167.009-.167.147m6.686.631a3 3 0 0 1-.115.583c-.09.29-.086.29.095.009.104-.164.156-.426.115-.584-.068-.258-.077-.258-.095-.008m9.914.322c-.195.391-.202.471-.03.328.205-.17.48-.845.344-.845-.03 0-.172.233-.314.517m206.43-.267c.002.184.065.521.138.75l.133.417.005-.417a2.2 2.2 0 0 0-.138-.75l-.143-.333.005.333m64.843.37c-.327.875-.37 1.065-.21.966s.538-1.274.44-1.373c-.03-.031-.135.152-.23.407m-10.038.297c0 .229.028.417.064.417s.1-.188.143-.417.015-.417-.064-.417-.143.188-.143.417m-6.404.666c.102.522.2.687.305.57.037-.038-.038-.294-.168-.569l-.235-.5.098.499m-9.978.129c.048.25.153.455.234.455.214 0 .18-.224-.087-.59-.22-.3-.228-.291-.147.135M100.58 71.25l.045 8.862V62.279c-.025-4.874-.045-.837-.045 8.971m151.755.421l.08 18.137c.11-.109.117-36.165.01-36.274-.046-.046-.086 8.116-.088 18.137M80.58 71.667l.045 9.041V62.625c-.025-4.973-.045-.904-.045 9.042m9.334-.334l.044 8.875v-17.75c-.024-4.881-.044-.887-.044 8.875m225.103-17.166c-.113.239-.08 1.463.036 1.347.075-.075.106-.428.07-.784s-.085-.609-.106-.563m-131.054 5.416c-.025 2.796.01 5.084.08 5.084s.125-2.288.125-5.084-.036-5.083-.08-5.083-.1 2.288-.125 5.083m15.08-4c.002.367.036.497.076.29s.038-.507-.003-.667-.075.011-.073.377M73.487 57.875c-.007.023-.037.154-.067.292s-.105.4-.166.583c-.102.302-.095.306.077.038.203-.315.365-.955.243-.955-.04 0-.08.019-.087.042m248.516.556a1.21 1.21 0 0 0 .171.569c.124.183.14.115.058-.25-.137-.613-.233-.746-.23-.319m10.017.739c.253.747.395.892.242.247-.066-.275-.19-.574-.278-.663s-.072.098.036.416m-131.885.913a10.62 10.62 0 0 1 .246.584c.08.216.094.214.106-.01.007-.143-.104-.406-.246-.583-.255-.319-.257-.319-.106.009m-147.778 1.25c0 .138.064.4.143.584.1.21.143.241.143.083 0-.138-.064-.4-.143-.583-.1-.21-.143-.241-.143-.084m281.67.761c-.02.315-.007.573.03.573.12 0 .225-1.011.113-1.08-.058-.036-.123.192-.144.507M191.108 64c.138.275.278.5.312.5s-.016-.225-.112-.5-.236-.5-.312-.5-.025.225.112.5m.392.793c0 .091.112.26.25.374s.25.133.25.04-.113-.26-.25-.374-.25-.133-.25-.04m123.53.79c-.02.459-.072 1.021-.12 1.25l-.086.417.18-.41c.098-.225.152-.788.12-1.25l-.06-.84-.033.833m-261.235-.155c-.053.053.01.297.138.542s.242.597.253.78c.015.238.04.258.09.07.04-.145-.02-.482-.13-.75s-.188-.543-.173-.612c.032-.148-.047-.162-.18-.03m270.87.731c.088.304.205.599.26.655.157.157-.115-.876-.277-1.053-.078-.085-.07.094.016.398m-150.53.433c-.216.424-.23.537-.057.471.203-.078.516-.865.4-.983-.027-.025-.177.205-.333.512m18.518.045c.1.19.266.395.367.457.13.081.13.015-.002-.231-.102-.19-.267-.395-.367-.457-.13-.081-.13-.015.002.231m12.516-.051c.434.572.643.754.717.624.04-.07-.16-.313-.447-.54-.393-.312-.46-.333-.27-.084m2.067 1.831c.623.536.77.536.266 0-.215-.229-.472-.417-.57-.417s.04.188.305.417m96.183 1.037c-.528.468-.563.527-.167.288.564-.342.987-.728.895-.818-.034-.033-.362.206-.728.53m-6.96 1.004a52.85 52.85 0 0 0 3.084 0c.848-.031.154-.055-1.542-.055s-2.4.024-1.542.055m-114.515 1.076c-.136.518-.032.545.193.05.105-.23.126-.417.047-.417s-.187.165-.24.367M55.846 71.51c-.007.143.104.405.247.583.255.318.256.318.105-.01-.084-.183-.195-.446-.246-.583-.08-.216-.094-.215-.106.01m257.22.745c-.152.232-.247.452-.21.489s.193-.152.348-.421c.344-.6.242-.649-.14-.068m26.5.87a4.03 4.03 0 0 1-.246.583c-.1.188-.096.292.012.292.092 0 .168-.019.168-.043a9.02 9.02 0 0 1 .155-.583c.158-.551.076-.781-.09-.249m-140.733.193c0 .152 1.148 1.265 1.208 1.171.025-.04-.237-.346-.58-.68s-.627-.555-.627-.491m14.844 1.39c.143.115.314.351.38.524s.16.274.21.223c.15-.151-.233-.74-.554-.852-.262-.092-.266-.08-.036.105m-11.974 1.377c.34.357.646.615.68.573s-.245-.332-.62-.648l-.68-.572.62.647M57.58 89.417l.046 6.529V82.779c-.025-3.591-.046-.604-.046 6.638m270.96.591c-.03 10.135.007 13.306.16 13.459.34.34 9.4.28 9.532-.064.18-.471.116-26.07-.065-26.07-.1 0-.167 4.473-.167 13.086v13.086l-9.25-.088-.17-26.667-.04 13.258M205.667 79.917c.215.229.42.416.453.416.14 0-.548-.823-.69-.828-.084-.003.022.183.238.412m89.166-.209c0 .069 1.444.111 3.21.093 3.228-.033 2.85-.094-1.084-.174-1.17-.024-2.125.013-2.125.081M207 81.247c0 .055.16.266.354.468l.354.368-.188-.365c-.186-.362-.52-.664-.52-.471m104.4.336c.07.184.133.424.138.535s.07.162.147.115.054-.251-.05-.451c-.256-.493-.395-.61-.235-.199m-92.986 1.459c.062.206.182.448.266.538s.068-.08-.035-.375c-.21-.606-.406-.744-.23-.163m-10.257-.122c0 .127.825 1.413.907 1.413.038 0-.12-.337-.35-.75-.383-.685-.557-.892-.557-.663m-37.232.663c.137.613.233.746.23.32-.001-.176-.08-.432-.172-.57-.123-.182-.14-.115-.057.25m.46 1.951c.144.603.413 1.299.5 1.299.097 0-.37-1.531-.503-1.653-.06-.053-.058.106.002.354m19.272.437c0 .076.225.105.5.065s.5-.103.5-.138-.225-.065-.5-.065-.5.062-.5.138m28.72 2.112c.001.642.03.884.067.538s.035-.871-.001-1.166-.067-.013-.066.628m-82.524 2.5c-.105.23-.13.417-.054.417s.222-.187.326-.417.13-.416.054-.416-.222.187-.326.416m-56.197.213c0 .193.07.395.158.449s.127-.063.088-.263c-.096-.498-.246-.612-.246-.186m19.03.226c-.214.263-.316.478-.228.478.163 0 .77-.824.67-.909-.03-.026-.23.168-.442.431M81 92.262c0 .333.406 1.405.532 1.405.08 0 .07-.145-.026-.323a1.66 1.66 0 0 1-.173-.657c0-.183-.075-.38-.166-.437s-.167-.051-.167.012m17.167.347c-.607.442-.566.455.208.067.252-.126.458-.292.458-.369 0-.186.005-.188-.666.302m154.505-.276c0 .288.278.779.374.662.036-.043-.034-.266-.155-.495s-.22-.304-.22-.167m-142.89.233c-.068.173-.085.354-.037.402.152.152.286-.097.222-.413-.058-.29-.067-.29-.185.011m160.827.071c-.404.446-.34.6.086.205.2-.186.324-.377.277-.425s-.21.052-.363.22m-138.483.981c.207.04.507.038.667-.003s-.01-.075-.377-.073-.497.036-.3.076m136.593.179c-.27.201-.25.213.197.109.614-.142.858-.335.425-.335a1.24 1.24 0 0 0-.622.226M202.5 95c.328.212.714.212.583 0-.056-.092-.267-.166-.468-.164-.297.002-.318.033-.115.164m2.407-.016c.05.083.243.112.426.064.46-.12.418-.215-.093-.215-.234 0-.384.068-.333.151m-1.365.131c.16.042.423.042.583 0s.03-.076-.292-.076-.452.034-.29.076m-13.034.218c-.004.298.274.774.386.662.043-.043-.025-.266-.152-.495-.133-.242-.232-.312-.234-.167m-71.106.638c.144.279.333.551.42.605s.044-.128-.093-.403-.326-.547-.42-.605-.052.124.093.403m98.214-.128c-.074.281-.047.307.147.146.265-.22.315-.489.1-.489-.08 0-.188.154-.237.343m-109.725.909c-.106.228-.126.373-.043.322.22-.136.52-.741.366-.739-.072 0-.217.188-.323.417m109.022.427c-.16.506.001.558.223.072.105-.23.122-.418.038-.418s-.2.156-.26.346m-96.082.739c.664.799.72.851.538.497-.094-.185-.347-.484-.562-.666-.377-.318-.376-.312.024.169m-14.565.832c-.267.229-.41.417-.32.417s.34-.188.555-.417c.502-.534.387-.534-.234 0m-20.73.844c.25.26.492.433.54.385s-.156-.259-.453-.471l-.54-.385.454.471m56.713-.094c-.167.184-.266.373-.22.419s.22-.068.387-.252.266-.373.22-.419-.22.068-.387.252m134.84.582c-.272.222-.454.443-.405.492s.304-.135.567-.409c.574-.599.5-.632-.162-.083m-154.216-.151c.054.088.455.416.89.729s.75.497.695.409-.456-.416-.892-.729-.75-.497-.694-.409m-18.517.408c-.517.43-.284.425.264-.006.233-.183.358-.331.276-.327s-.324.153-.54.333m107.98 1.504c-.32.178-.46.324-.3.324s.447-.148.664-.328c.494-.412.39-.41-.354.004m-73.628.072c-.298.13-.54.275-.54.323 0 .103.844-.24 1.075-.436.218-.187.097-.161-.534.113m42.125.585l-5.083.091 5.032.038c3.216.024 5.07-.022 5.135-.129.056-.092.08-.15.05-.129s-2.34.079-5.135.129m-120.698.125a129.65 129.65 0 0 0 4.667 0c1.255-.029.18-.052-2.385-.052s-3.594.023-2.282.052m211.733.465c-.27.307-.193.306.405-.006.38-.198.4-.248.144-.243-.184.003-.43.115-.55.249m-141.035.088c0 .085.238.155.528.155.614 0 .58-.11-.073-.228-.25-.046-.455-.013-.455.073m139.413.329c-.07.113.055.134.365.06.64-.154.7-.234.177-.234-.24 0-.483.078-.542.174m-66.204.282c.435.035 1.148.035 1.583 0s.08-.062-.792-.062-1.227.028-.79.062m62.753-.002c.3.038.75.037 1-.001s.005-.069-.545-.068-.755.032-.455.069" fill="#ec4434"/><path d="M9.5 71.667v64.166l380.917-.083L390.5 7.5H9.5v64.167m373.333-.084v56.584H17V15h365.833v56.583M93.76 39.517c.05.08-.157.116-.46.081s-.625-.018-.717.039-.354.108-.583.113-.53.081-.667.167-.325.17-.416.186c-.462.08-.676.16-.77.288-.057.078-.3.153-.54.167s-.472.119-.516.234-.224.208-.4.208-.405.104-.5.232-.415.324-.685.436-.452.269-.403.349-.015.105-.144.056c-.135-.052-.353.092-.516.341-.155.236-.354.386-.44.331s-.16.021-.16.165-.187.349-.416.454-.417.287-.417.407-.156.301-.346.402c-.364.195-1.05.827-.898.827.05 0 .008.152-.092.338s-.264.287-.365.224-.14-.041-.084.048c.106.172-.437 1.112-.568.982-.042-.043-.1.087-.105.288s-.106.391-.2.423-.174.244-.174.471-.067.371-.15.32c-.146-.09-.43.369-.377.614.015.069-.058.125-.16.125-.134 0-.132.067.01.237.153.184.143.267-.047.375-.134.076-.265.401-.292.722s-.09.658-.14.75c-.264.481-.446 1.578-.275 1.661.116.057.122.119.015.172-.21.104-.155 37.463.055 37.881.08.157.13.492.112.744s.03.458.11.458.13.057.114.125.012.238.058.375c.394 1.164.424 1.321.262 1.375-.097.032-.053.175.1.329s.272.42.272.6.113.371.25.423.25.211.25.351.06.256.132.256.143.168.158.375.22.527.453.714.424.473.424.635.068.254.15.202.302.164.487.477.717.855 1.183 1.202.847.733.847.857.075.178.166.121.167-.032.167.055.19.207.423.265.378.181.32.273c-.093.15.642.512.977.481.076-.007.282.154.458.357s.32.309.32.235.132-.015.292.13c.274.248.85.405 1.625.443.277.013.29.043.083.178-.2.123-.1.169.333.192 1.003.054 1.078.066 1.332.224.393.242 4.524.272 4.818.034.195-.158.22-.156.122.008-.172.287.233.257.635-.047.38-.288.66-.322.5-.061-.062.101.07.064.295-.084s.458-.219.517-.16.22.016.354-.097.325-.156.42-.097.174.03.174-.064.125-.123.277-.065c.176.068.237.041.167-.073s.002-.15.182-.103c.16.042.444-.064.628-.236s.43-.283.54-.245.205-.013.205-.112.154-.181.343-.181.297-.075.24-.167.02-.166.167-.166c.16 0 .222-.078.15-.193s-.046-.147.06-.082c.098.061.297-.007.44-.151s.34-.214.434-.156.152.019.126-.088.104-.281.287-.388c.758-.439 1.265-.817 1.194-.888-.042-.043.368-.52.91-1.062s.988-1.023.988-1.07c.001-.274.274-.712.607-.976.212-.167.384-.376.384-.464s.1-.421.243-.741.24-.621.237-.67.118-.279.27-.51.23-.539.176-.682.02-.443.167-.667.23-.446.183-.492.02-.38.15-.743c.276-.783.356-37.833.083-38.784-.095-.33-.093-.496.003-.437.086.053.156.022.156-.07s-.08-.216-.178-.277-.136-.219-.085-.352.02-.196-.072-.139c-.097.059-.165-.143-.165-.492 0-.326-.056-.593-.125-.593s-.14-.235-.162-.522-.168-.718-.328-.958-.273-.524-.25-.63-.186-.442-.462-.745-.485-.636-.463-.741c.047-.218-.614-1.142-1.167-1.632-.207-.183-.375-.444-.375-.58s-.046-.202-.1-.147-.282-.094-.504-.333-.56-.516-.755-.615-.336-.246-.316-.326c.048-.192-.847-.777-1.022-.668-.075.046-.136.017-.136-.064 0-.198-1.3-1.039-1.608-1.039-.144 0-.195-.08-.124-.195.08-.13.03-.16-.153-.09-.166.064-.337-.007-.44-.18-.09-.157-.168-.22-.17-.14s-.132.043-.287-.083c-.24-.195-.26-.194-.14.008.108.18.073.21-.148.125-.16-.061-.327-.112-.37-.112s-.026-.086.04-.19c.08-.132-.018-.165-.318-.108-.24.046-.463.002-.496-.098s-.272-.164-.53-.142-.553-.029-.654-.111-.4-.127-.642-.099-.494-.008-.54-.081-.87-.132-1.832-.132-1.7.065-1.66.145m-48.697.881c.02.129.13.349.245.489s.22.428.23.641.09.482.178.597.1.208.033.208-.037.105.07.233.178.296.16.375.054.353.16.612.193.581.193.718c0 .147.08.2.195.128.13-.081.16-.029.09.157-.06.153-.034.277.055.277s.16.188.16.417.094.418.21.419c.152.002.147.041-.02.147-.13.082-.155.17-.058.205s.196.25.227.479.096.454.14.5c.21.21.505.856.346.758-.243-.151-.23-.095.154.659.184.359.334.753.334.874s.1.387.222.59.212.481.2.619.127.47.3.738.244.433.135.366-.2-.042-.2.058.108.223.24.274.2.19.155.311-.003.27.097.331.14.176.092.255-.013.191.08.249.17.292.17.521.07.373.156.32.156.036.154.198c-.003.454.273 1.403.582 1.999.153.295.265.595.25.667s.06.341.165.599.194.567.194.688.107.308.238.416a.6.6 0 0 1 .176.521c-.034.177.013.322.105.322s.128.063.08.14-.02.357.06.625c.1.368.153.405.177.152.035-.37.342.575.387 1.192.015.198.083.325.152.282s.125.118.125.355.117.611.26.829a2.22 2.22 0 0 1 .304.818c.025.231.14.537.26.679s.172.366.12.499.06.436.248.674.296.546.242.686-.026.209.068.151.164.118.164.418c0 .351.063.481.193.401.122-.075.147-.045.068.081-.068.111.038.543.234.961s.323.795.28.837.022.269.144.503.176.541.122.682c-.064.168-.03.215.097.136.195-.121.267.162.2.793-.018.17.04.264.13.209s.22.105.292.357l.152.54c.013.046.082.403.154.793.077.424.2.666.303.602.1-.062.138-.008.1.124-.045.127.04.375.187.552.22.262.224.297.02.196-.138-.069-.104-.007.074.138.235.19.258.263.083.265-.143.001-.173.052-.073.125.092.067.193.347.225.622s.127.542.2.594c.1.056.134 5.445.108 13.167l-.044 13.072h9.587l-.005-13.299c-.005-11.695.025-13.331.248-13.554.307-.307.332-.465.045-.288-.114.071-.078-.071.082-.315s.246-.578.192-.743c-.08-.251-.067-.26.083-.051.183.255.19.244.253-.458.015-.16.12-.46.235-.667.145-.259.152-.375.024-.375-.1 0-.066-.118.08-.263s.22-.332.17-.417-.01-.153.092-.153.14-.075.083-.167-.04-.166.037-.166.157-.199.177-.442.13-.554.245-.692.192-.296.173-.35c-.08-.232.17-.85.344-.852.105-.002.078-.077-.06-.167-.175-.114-.194-.202-.064-.289.18-.12.394-.653.468-1.159.02-.133.136-.305.258-.38s.216-.37.208-.653.06-.516.15-.516.122-.069.07-.154.024-.271.17-.416.22-.264.164-.264.02-.233.168-.518c.16-.306.187-.468.07-.396-.11.067-.07-.075.09-.315s.228-.437.158-.437-.004-.138.148-.306.228-.353.17-.411.023-.302.18-.542.298-.684.314-.988.098-.511.182-.459.105-.031.047-.184-.026-.277.073-.277.136-.113.083-.25-.023-.25.066-.25.16-.172.16-.381.14-.659.314-.999.248-.575.167-.525.003-.165.19-.479c.203-.346.29-.69.222-.871-.08-.206-.054-.262.08-.179.2.118.24-.011.24-.604-.001-.158.064-.248.143-.198s.145-.135.145-.409.1-.599.224-.722.204-.353.18-.511.018-.289.092-.289.18-.116.233-.258c.068-.177.034-.219-.107-.132-.113.07-.067-.085.103-.345s.224-.42.12-.356-.042-.145.137-.464.28-.624.226-.679-.018-.099.08-.099.142-.168.097-.375c-.066-.301-.047-.326.096-.125.14.196.18.114.18-.375.002-.364.084-.625.197-.625.107 0 .145-.049.085-.11s-.026-.21.076-.333.142-.224.1-.224.046-.315.218-.701.277-.76.232-.833.002-.132.105-.132.14-.075.083-.167-.005-.168.115-.169c.16-.002.15-.047-.032-.164-.137-.089-.165-.163-.06-.164.158-.003.358-.383.456-.864.012-.061.078-.167.147-.236s.125-.296.125-.504.083-.431.184-.493c.13-.08.116-.158-.04-.258-.167-.105-.17-.144-.018-.145.115-.002.208-.116.208-.253s.07-.25.152-.25.132-.185.107-.412.02-.372.098-.324.143-.09.143-.31.052-.45.116-.514.14-.278.17-.477a1.53 1.53 0 0 1 .328-.664c.15-.165.224-.351.163-.411s-.1-.01-.1.112-.043.179-.097.126.03-.291.186-.528l.283-.431h-10.65l-.188.611c-.103.335-.15.673-.1.75s.014.139-.073.139-.203.116-.258.258c-.062.162-.03.217.082.147.106-.066.09.052-.036.283-.12.217-.197.526-.173.687s-.04.291-.142.291-.14.078-.08.172-.042.425-.224.733c-.24.409-.28.61-.146.745.12.119.123.184.01.184-.094 0-.177.093-.184.208-.013.215-.294 1.062-.595 1.792-.094.229-.2.597-.236.817s-.174.615-.31.875-.204.474-.153.474-.03.234-.176.519c-.196.378-.21.482-.046.384.178-.107.182-.084.02.118-.112.138-.3.709-.44 1.269s-.3 1.117-.376 1.239-.164.409-.194.638-.172.595-.314.813c-.214.329-.22.42-.032.539.167.105.17.144.018.145-.115.002-.208.153-.208.336s-.08.334-.177.334-.134.069-.08.153-.167.875-.486 1.757-.49 1.547-.377 1.478.07.078-.092.326-.26.452-.22.452.014.213-.06.473c-.08.278-.067.596.032.773.117.208.114.267-.008.191-.172-.107-.2.092-.215 1.605-.004.344-.07.625-.147.625s-.1.15-.052.334.004.435-.097.557-.13.284-.062.359.038.088-.067.028-.23-.391-.276-.735c-.155-1.139-.23-1.489-.366-1.71-.1-.144-.07-.178.057-.099.287.177.233-.16-.065-.407-.148-.123-.2-.257-.097-.314.16-.098-.103-1.671-.31-1.846-.053-.046-.092-.196-.086-.334s-.043-.289-.11-.336-.156-.31-.2-.583-.092-.497-.107-.497-.053-.143-.086-.317-.148-.371-.256-.438c-.146-.09-.138-.145.03-.212.154-.062.17-.136.052-.229-.22-.173-.554-.986-.67-1.64-.05-.274-.16-.523-.246-.553a.25.25 0 0 1-.157-.218c0-.09.084-.111.188-.047s.16.05.124-.031a44.29 44.29 0 0 1-.305-.774c-.133-.343-.32-.626-.416-.627s-.062-.075.075-.164c.167-.108.18-.163.042-.164-.115-.002-.208-.149-.208-.326s-.082-.374-.182-.436-.144-.253-.098-.426.014-.315-.07-.315-.15-.135-.15-.3-.082-.382-.182-.481c-.13-.131-.128-.214.006-.297s.09-.276-.135-.644c-.26-.429-.543-1.451-.596-2.159-.006-.072-.123-.202-.26-.289-.222-.141-.222-.159 0-.163.155-.003.183-.052.075-.128-.227-.159-.644-1.526-.597-1.956.03-.276.007-.29-.135-.083-.137.2-.172.16-.174-.198-.001-.247-.08-.497-.177-.557s-.14-.326-.098-.592.008-.527-.075-.579-.152-.244-.152-.427c0-.21-.072-.289-.193-.214s-.147.045-.07-.081c.068-.11.023-.324-.1-.475-.148-.182-.154-.233-.02-.152.148.088.14-.028-.027-.427l-.23-.548-5.25-.044c-4.446-.037-5.245-.008-5.216.192m72.417 24.144l-.003 24.489c.01.063.034.345.055.625s.08.511.128.511.1.168.11.375c.078 1.5.134 1.958.24 1.958.125 0 .4.817.352 1.042-.015.068.052.125.15.125.106 0 .132.144.066.354-.076.238-.052.317.072.24.17-.104.262.113.198.465-.014.079.147.379.36.667a8.46 8.46 0 0 1 .631 1.024c.135.275.36.591.496.703s.177.205.088.208.006.123.21.267.323.343.262.442-.04.137.048.082.418.232.734.635.672.736.792.74.182.065.137.137.14.229.408.348.445.287.392.373-.03.136.05.11c.18-.055 1.376.738 1.377.913.001.069.108.125.238.125.25 0 1.287.505 1.433.698.048.063.29.152.54.197s.544.139.656.208.397.135.633.146.52.076.633.145.272.083.358.03.2-.022.257.069.324.14.595.108c.285-.033.494.021.495.129.002.136.036.137.125.002.068-.102.273-.149.456-.106.695.165 2.837.142 2.97-.032.095-.123.164-.114.222.03.055.134.18.157.362.065.255-.131.958-.283 2.025-.441.227-.033.438-.136.47-.228s.176-.122.322-.066c.192.074.23.04.13-.118-.082-.132-.072-.181.025-.121.088.055.72-.172 1.4-.505s1.292-.592 1.355-.577.262-.159.44-.386.447-.414.597-.414.337-.171.417-.382c.175-.46.68-.927.68-.628 0 .108.076.15.17.092s.126-.175.074-.26.012-.155.144-.155.282-.158.332-.35.17-.301.27-.24.178.009.178-.113.15-.332.334-.464.333-.378.333-.546.075-.26.167-.204.166-.016.166-.162.112-.308.25-.36.21-.159.163-.235.085-.305.293-.507.266-.314.13-.248c-.192.092-.188.068.017-.101.25-.206.613-1.039.465-1.065-.036-.007.062-.14.22-.297.162-.162.24-.401.18-.557-.064-.167-.037-.231.07-.165s.218-.223.29-.761c.064-.478.205-.932.313-1.01.15-.107.148-.16-.01-.225-.114-.046-.208-.158-.208-.247s.057-.127.127-.084.135-.159.144-.449.036-.602.06-.693.034-11.323.023-24.959l-.02-24.791H137.5l-.083 49.5c-.023.091-.06.204-.084.25a1.12 1.12 0 0 0-.07.208c-.113.485-.31.875-.44.875-.085 0-.155.117-.155.26s-.072.216-.16.162c-.15-.092-.442.294-.502.661-.016.092-.136.145-.267.118s-.323.134-.425.358c-.162.355-.92.708-1.356.63-.068-.012-.125.057-.125.154s-.07.134-.155.081-.2-.024-.254.064-.65.126-1.386.082c-1.696-.104-1.703-.105-1.61-.256.044-.072-.184-.18-.506-.241s-.55-.168-.507-.239c.076-.123-.525-.39-.79-.352-.07.01-.116-.038-.105-.107.045-.285-.027-.59-.117-.5-.142.142-.736-.498-.736-.792 0-.137-.12-.25-.264-.25s-.23-.093-.2-.208-.034-.423-.166-.685c-.2-.375-.194-.448-.02-.343s.183.085.016-.121c-.162-.2-.207-5.522-.2-24.633l-.095-24.527c-.05-.082-2.15-.149-4.666-.149H117.5l-.02 24.375m36.813 6.785l.042 31.173h9.332V79.181l3.167-.049c2.917-.045 3.168-.026 3.187.243.025.348.052.454.215.82.138.312.187.542.356 1.68.065.435.167.792.227.792s.12.131.133.291c.03.393.457 2.115.754 3.049.132.416.22.89.197 1.053s.053.534.172.826.178.635.132.762c-.058.161-.013.189.146.093.192-.115.194-.093.013.13s-.17.297.083.444c.232.135.243.177.05.182-.222.007-.222.026 0 .17.137.089.196.162.13.164s-.04.209.062.461.204.608.23.791c.11.761.27 1.54.442 2.167.1.367.184.76.187.875s.065.208.138.208.092.11.04.244.02.473.16.753.184.466.1.413c-.225-.139-.19.155.044.39.1.11.145.2.078.2s-.043.149.054.331.222.651.276 1.042.146.748.204.794.132.308.164.583.126.627.208.781.15.478.15.718c0 .256.07.394.17.332.218-.134.136.295-.087.458-.1.074-.077.124.06.125.126.002.187.107.137.237s-.04.284.024.347.113.184.113.271c0 .095 2.067.172 5.192.195 5.008.035 5.186.025 5.027-.272-.09-.17-.128-.451-.083-.625s.018-.317-.063-.317-.098-.124-.04-.277.038-.235-.052-.18-.15-.102-.137-.347a1.64 1.64 0 0 0-.179-.779c-.1-.183-.33-.971-.49-1.75s-.358-1.547-.442-1.706-.15-.472-.15-.695-.094-.442-.21-.489c-.154-.062-.15-.087.02-.097.182-.01.173-.095-.042-.423-.148-.226-.287-.668-.31-.984s-.093-.542-.157-.503-.115-.062-.116-.224c-.005-.751-.157-1.425-.348-1.543-.163-.101-.16-.148.02-.219.152-.061.16-.095.024-.104-.112-.007-.16-.125-.107-.263s.02-.25-.073-.25-.13-.15-.082-.333c.052-.2.005-.334-.117-.334s-.16-.111-.1-.271a.55.55 0 0 0-.084-.498c-.103-.124-.145-.337-.093-.473s.02-.292-.068-.347-.12-.17-.066-.256.03-.155-.053-.155-.154-.093-.16-.208c-.035-.602-.17-1.306-.266-1.403-.06-.061-.1-.361-.1-.666S181.592 85 181.5 85s-.167-.175-.167-.389-.052-.441-.116-.505c-.12-.119-.2-.441-.253-1.023-.017-.183-.087-.372-.155-.421s-.143-.404-.166-.791-.1-.704-.193-.704-.11-.107-.06-.238-.02-.33-.156-.443c-.16-.134-.2-.262-.084-.368s.078-.293-.08-.534c-.134-.205-.253-.648-.266-.985s-.087-.653-.165-.701-.1-.158-.047-.243.02-.155-.072-.155-.14-.225-.106-.5c.04-.323-.01-.5-.145-.5s-.184-.171-.136-.5c.044-.3-.001-.5-.112-.5-.102 0-.186-.087-.186-.194s.05-.144.114-.081c.143.143 1.053-.716 1.053-.995 0-.114.15-.255.336-.314s.296-.171.247-.249.064-.191.25-.25.295-.177.243-.262-.018-.155.077-.155c.17 0 .847-1.322.847-1.658 0-.096.117-.175.26-.175s.213-.075.157-.167-.024-.167.073-.167.177-.131.178-.291.112-.506.25-.768.2-.554.14-.65c-.064-.103-.028-.126.084-.057.106.066.202.022.214-.099l.06-.635c.02-.229.082-.529.137-.666.283-.708.343-1.969.388-8.187.033-4.468-.01-6.961-.127-7.333-.098-.31-.208-.826-.244-1.147-.144-1.271-.278-1.826-.42-1.739-.082.051-.15.013-.15-.084s.094-.178.208-.18c.14-.001.125-.056-.04-.164-.138-.089-.2-.162-.135-.164s.01-.203-.117-.449-.2-.498-.16-.562-.1-.301-.31-.527-.352-.498-.316-.604-.06-.241-.213-.3c-.222-.085-.233-.135-.056-.248.166-.105.17-.141.014-.143-.115-.002-.208-.115-.208-.253s-.113-.25-.25-.25-.26-.075-.27-.166-.032-.223-.044-.292c-.028-.148-.935-1.064-.935-.944 0 .045-.106-.015-.234-.133s-.223-.279-.21-.357-.405-.385-.932-.681-.902-.6-.834-.676 0-.092-.153-.038c-.165.059-.316-.001-.373-.15-.053-.138-.172-.204-.264-.147s-.168.012-.168-.1-.047-.157-.105-.099-.262-.005-.454-.139-.552-.244-.802-.244-.5-.077-.557-.17-.17-.129-.25-.08-.19.011-.25-.084-.176-.129-.26-.076-.155.011-.155-.093-.207-.176-.46-.159-.495.017-.54 0-.196-.055-.334-.085-.393-.112-.57-.182c-.242-.097-.286-.074-.18.095.107.174.067.189-.18.07-.177-.085-4.165-.174-8.985-.201l-8.667-.048.043 31.173m46.9-30.97c-.214.079-.452.105-.53.057s-.18-.022-.228.057-.313.129-.588.113-.46.033-.414.11-.068.149-.256.16c-.485.03-.566.05-.813.207-.12.076-.26.098-.312.047s-.2.017-.334.15-.428.242-.656.242c-.234 0-.37.073-.312.167s-.046.166-.227.166-.543.175-.802.389-.607.438-.773.498-.26.181-.206.267-.055.204-.24.262-.335.198-.335.309-.232.29-.516.397-.472.264-.42.349-.09.294-.318.465-.414.437-.414.593-.146.329-.325.385c-.196.063-.288.199-.232.345s-.01.241-.175.241c-.152 0-.268.137-.268.316 0 .173-.105.356-.233.405s-.286.4-.35.779-.225.732-.357.782-.22.215-.196.364-.014.365-.086.479-.084.209-.026.209-.015.12-.163.267c-.206.207-.223.321-.074.5s.14.233-.036.233c-.16.001-.24.259-.262.86-.02.473-.098.904-.178.958-.16.109-.147 5.855.015 6.515l.154.667a1.79 1.79 0 0 0 .197.484c.1.16.086.196-.046.115-.106-.065-.192-.04-.192.057s.08.177.176.177.132.072.078.16-.02.313.073.5l.352.691c.14.277.132.327-.042.237-.12-.062-.075.005.103.15s.26.262.182.262-.005.15.16.333c.23.256.247.335.067.339-.167.004-.146.072.075.239.18.137.256.318.182.437-.08.13-.056.161.067.085.11-.069.192-.019.192.118 0 .131.15.428.334.661.358.455.436.704.168.539-.093-.057-.123.006-.07.146s.2.208.33.158c.157-.06.236.025.236.253 0 .189.188.531.417.76s.417.519.417.644.262.437.582.692.54.532.5.614-.013.149.084.149.177.117.177.26.075.213.167.156.166-.024.166.072c0 .264.54.84.697.743.075-.046.137.035.137.181s.145.319.323.385.333.194.345.286c.04.29 1.22 1.583 1.448 1.583.12 0 .217.08.217.177s.075.13.167.073.166-.018.166.086.113.301.25.438.25.215.25.172.284.196.63.53.6.656.585.715c-.05.118.46.378.66.336.07-.015.116.03.106.098-.054.342.05.511.37.595.2.051.302.17.238.273s-.015.162.108.136.202.048.18.163.015.196.084.182c.245-.052.704.231.614.377-.05.082.025.149.167.149s.26.07.26.154c0 .216.987 1.18 1.208 1.18.1 0 .137.044.084.097-.134.134.403.739.566.638.072-.045.227.071.344.258s.288.34.38.34.318.226.502.5.42.499.523.5.238.191.297.423.17.384.25.336c.213-.132.562.362.42.593-.078.126-.052.156.07.081.115-.072.193-.011.193.15s.076.223.195.149c.132-.081.16-.028.086.164-.068.177-.014.32.145.381.29.111.993 1.37.935 1.672-.02.11.11.474.288.809s.287.714.238.842-.025.233.055.233c.138 0 .216.607.23 1.792.014 1.239-.05 1.708-.23 1.711-.105.001-.08.075.06.164.222.144.222.162 0 .167s-.223.023 0 .166c.137.089.175.164.083.166-.16.003-.583.755-.583 1.035 0 .177-.993 1.755-.997 1.584-.002-.072-.108-.034-.236.084s-.198.271-.157.34-.04.125-.184.125-.26.112-.26.25-.146.25-.325.25-.385.105-.458.234-.283.26-.467.291-.38.12-.434.196c-.17.23-2.818.29-3.212.073-.195-.107-.437-.209-.54-.227-.428-.072-2.15-1.718-2.304-2.2-.064-.202-.186-.367-.272-.367s-.155-.15-.155-.334-.067-.333-.15-.333-.196-.187-.253-.417-.183-.416-.278-.416-.13-.07-.077-.155.022-.201-.067-.256-.115-.222-.057-.372c.07-.184.04-.232-.095-.149s-.187-.026-.16-.373c.02-.273-.052-.604-.162-.736s-.152-.288-.094-.346.001-.234-.126-.391c-.154-.19-.162-.244-.024-.161.266.16.262.108-.047-.632-.14-.336-.21-.686-.152-.777s.002-.291-.12-.442c-.155-.191-.16-.237-.016-.15.134.08.176.044.12-.104-.07-.179-.31-.199-1.123-.094a47.16 47.16 0 0 1-2.286.221c-1.758.121-3.05.262-3.188.347-.064.039-.146-.017-.183-.125-.042-.128-.15-.145-.306-.047-.132.083-.502.164-.823.181l-.876.045c-.254.014-.28.131-.19.891a22.43 22.43 0 0 1 .126 1.65c.012.427.074.744.137.705s.12.062.125.224.038.558.073.879c.06.547.106.726.38 1.458.06.161.14.478.177.706s.128.452.2.5.112.215.088.372.04.271.14.25.194.076.206.214c.052.595.296 1.321.42 1.245s.303.28.335.672c.008.091.112.279.232.416s.27.419.333.625.19.375.28.375.12.075.062.167-.01.167.1.167.155.049.095.11.04.215.225.344.29.305.24.39-.012.156.092.156c.24 0 .665.42.665.66 0 .101.13.233.29.294.314.119.803.546.625.546-.06 0 .006.112.143.25s.33.25.43.25.178.104.178.231.132.221.292.208.273.071.25.186.108.208.292.208.478.131.654.292c.715.648.846.729.846.522 0-.124.118-.092.314.086.173.156.468.296.655.31s.31.077.27.139.076.151.254.198.358-.002.4-.106.084-.062.092.095c.008.185.102.253.265.19.138-.053.363-.005.498.107s.368.157.52.099.378-.017.506.089c.16.134 1.167.183 3.27.16 3.6-.039 3.455-.029 3.455-.229 0-.088.105-.072.235.036.172.142.266.145.35.009.063-.103.22-.146.348-.097s.233.012.233-.082.07-.128.155-.075.208.012.27-.091c.082-.133.158-.122.26.039.084.132.145.148.146.038.002-.103.246-.245.544-.315.62-.146.54-.118 1.253-.44.3-.135.51-.282.465-.326s.254-.226.662-.405.743-.374.744-.433.204-.158.45-.22c.353-.089.398-.146.208-.266-.198-.125-.187-.153.06-.155.185-.001.255-.077.182-.195-.067-.108-.046-.147.048-.089.196.121 1.425-.955 1.27-1.112-.06-.058-.015-.106.098-.106s.165-.063.117-.14.12-.294.375-.482c.263-.194.55-.636.667-1.026.12-.396.308-.686.45-.686.134 0 .234-.056.223-.125a.48.48 0 0 1 .013-.208 5.43 5.43 0 0 0 .107-.493c.04-.225.13-.45.196-.5.307-.23.63-.742.37-.59-.2.117-.213.098-.07-.093.208-.277.683-1.805.823-2.651.053-.317.176-.673.275-.791.127-.154.126-.215-.005-.215-.124 0-.134-.129-.03-.398.18-.475.132-4.875-.058-5.352-.106-.264-.096-.282.046-.084.112.155.18.175.183.052.001-.109-.066-.241-.15-.293-.15-.093-.443-1.38-.375-1.646.02-.076-.035-.094-.122-.04s-.207-.147-.267-.446c-.143-.698-.47-1.686-.596-1.793-.19-.164-.628-1.171-.464-1.069.092.057.068-.073-.053-.289s-.314-.452-.43-.526-.208-.246-.208-.384-.068-.21-.15-.159-.11-.068-.058-.266c.07-.27.04-.325-.127-.223-.16.099-.192.062-.117-.134.068-.176-.048-.391-.33-.613-.24-.188-.388-.389-.33-.446s-.13-.309-.416-.559c-.294-.257-.47-.535-.402-.643s.038-.189-.06-.189-.178-.132-.18-.292c-.002-.245-.027-.252-.157-.046s-.175.192-.28-.084a1.59 1.59 0 0 0-.384-.549c-.216-.183-.217-.202-.01-.112.137.059.084-.038-.118-.217s-.32-.372-.264-.43-.02-.104-.174-.104-.278-.071-.278-.159-.206-.365-.458-.617-.458-.505-.458-.561c0-.192-.543-.648-.647-.544-.057.057-.103.028-.103-.065 0-.221-.718-1.054-.908-1.054-.146 0-.477-.282-1.708-1.46-.35-.334-.718-.621-.82-.638-.328-.056-.884-.622-.778-.793.06-.096-.01-.122-.167-.062-.178.068-.304-.007-.372-.222-.093-.293-.276-.398-.493-.283-.043.023-.25-.171-.458-.43-.716-.891-2.292-2.445-2.48-2.445-.102 0-.144-.112-.09-.248s.04-.23-.024-.208c-.198.066-.81-.634-.74-.846.037-.109-.052-.198-.197-.198-.24 0-.34-.195-.283-.546.012-.072-.09-.173-.23-.226s-.25-.201-.25-.329-.075-.232-.167-.232-.167-.113-.167-.25-.072-.25-.16-.25-.114-.125-.055-.278.037-.237-.047-.189-.31-.235-.5-.631-.284-.682-.208-.635.138.006.138-.091-.063-.176-.14-.176c-.174 0-.557-.816-.458-.976.04-.065-.033-.621-.162-1.237-.182-.869-.235-3.037-.075-3.037.016 0 .054-.15.084-.334.123-.751.262-1.176.692-2.106.248-.537.5-.977.583-.977s.084-.125.026-.277-.038-.236.047-.185c.172.105.59-.279.476-.437-.04-.056-.023-.063.038-.017s.25-.041.417-.193.306-.208.308-.125.074.038.16-.099.33-.258.54-.268a2.22 2.22 0 0 0 .649-.133c.623-.271 3.315.135 3.315.5 0 .123.097.186.216.141.225-.087.8.485.998.977.06.157.18.266.265.243s.167.031.183.123.117.279.225.417c.4.496.613 1.003.613 1.394 0 .219.116.494.258.612s.22.314.17.437 0 .223.104.223.14.05.08.11-.017.223.097.36c.165.2.164.266-.003.322-.115.038-.164.143-.11.233s.138.402.184.694c.11.703.107.702.925.447.4-.122 1.105-.239 1.588-.26s.98-.122 1.104-.224.36-.136.524-.073c.226.087.266.057.163-.122-.107-.188-.1-.195.082-.036.162.15.303.154.566.013.192-.102.35-.164.35-.137s.394-.005.875-.071.875-.178.875-.248.17-.125.375-.123c1.207.011 1.858-.068 1.648-.2-.2-.121-.2-.157-.002-.219.173-.058.185-.169.05-.479-.095-.222-.166-.68-.157-1.017.01-.351-.05-.572-.142-.516s-.12-.046-.072-.232-.01-.464-.13-.626-.175-.4-.126-.529.026-.234-.053-.234-.152-.206-.164-.458c-.03-.64-.113-.915-.354-1.174-.19-.206-.283-.582-.224-.921.014-.076-.053-.09-.147-.032s-.17-.042-.17-.224c0-.509-.18-.857-.44-.857-.13 0-.28-.225-.336-.5s-.17-.5-.256-.5-.114-.067-.063-.149-.02-.193-.16-.246-.325-.29-.415-.527-.243-.383-.342-.321-.22-.047-.27-.24-.15-.35-.218-.35-.442-.297-.827-.66-.846-.706-1.023-.762-.28-.17-.23-.252-.098-.198-.33-.256-.424-.178-.424-.265-.07-.116-.153-.064-.263-.015-.397-.149-.288-.199-.342-.144-.222-.003-.372-.127-.47-.253-.712-.285-.57-.178-.73-.323-.293-.207-.293-.135-.105.041-.235-.066c-.155-.129-.27-.138-.34-.025-.067.108-.413.048-.958-.167-.682-.269-.88-.293-.99-.12-.09.14-.138.149-.14.026-.003-.23-4.367-.262-4.977-.036m63.46-.02c-.145.082-.54.167-.875.19s-.6.128-.6.234c0 .116-.167.161-.417.113-.23-.044-.417-.004-.417.089s-.116.213-.258.267c-.15.057-.216.029-.157-.065s.022-.165-.075-.165-.176.079-.176.177-.07.134-.153.082-.178-.018-.21.075-.216.2-.412.238c-.396.076-1.012.403-1.357.72-.124.114-.3.208-.39.208s-.12.074-.063.165 0 .125-.125.077c-.13-.05-.324.092-.454.336-.124.232-.318.422-.43.422s-.435.215-.716.478-.55.44-.597.393-.134.057-.194.23-.38.569-.713.878-.504.508-.382.441c.182-.101.183-.061.001.229-.12.193-.313.351-.43.351s-.2.112-.2.25-.072.25-.16.25-.114.125-.055.277c.067.175.04.237-.072.167-.15-.093-.55.629-.61 1.104-.01.072-.13.202-.267.289s-.185.159-.106.16.023.188-.125.414c-.323.492-.343.652-.06.487.115-.067.077.028-.083.211s-.292.484-.292.668-.048.382-.106.44-.133.352-.166.653-.093.772-.135 1.047c-.097.651-.095 37.438.003 38.403.04.405.18.949.3 1.208.132.265.163.472.07.472s-.01.218.18.484c.386.541.443.763.15.582-.137-.085-.156-.026-.064.198a7.63 7.63 0 0 1 .214.611c.046.16.148.292.226.292s.33.412.562.916.493.917.583.917.123.107.073.237c-.053.138.06.319.27.43.198.107.32.235.27.285s.113.288.364.528a5.91 5.91 0 0 1 .747.895c.16.252.372.458.468.458s.27.094.385.209.406.354.645.532.397.383.352.456.037.087.183.031c.17-.065.248-.022.217.117-.026.12.1.251.28.29s.43.193.554.343.178.179.12.064c-.186-.366.14-.223.533.234.2.244.38.351.38.238 0-.136.087-.117.263.059.145.145.332.221.417.169s.154-.034.154.04.19.222.417.328c.315.146.388.146.3 0-.063-.106.012-.09.167.036s.282.173.282.104.1-.04.223.062.273.136.334.076.11-.027.11.075.15.156.334.121.333-.01.333.057c0 .159.173.171 2.917.189 2.512.017 3.167-.025 3.353-.211.065-.065.4-.119.746-.119s.743-.116.888-.26.392-.239.553-.213.368.004.46-.051.448-.189.793-.301.588-.264.54-.341.14-.189.415-.25.502-.214.502-.342.094-.195.21-.151.652-.33 1.192-.833 1.035-.88 1.1-.84.254-.074.418-.255.232-.329.152-.329.02-.118.227-.262.33-.331.277-.416.02-.156.164-.156.26-.103.26-.229.11-.323.248-.436.2-.284.14-.379-.027-.124.077-.06c.18.111.563-.415.64-.879.02-.128.137-.296.258-.372s.154-.141.074-.142-.052-.115.062-.253.155-.25.092-.25.002-.118.147-.263.224-.327.176-.405-.01-.189.082-.247.17-.25.17-.428.08-.323.177-.323.13-.075.073-.167-.042-.167.032-.167.154-.268.178-.596.124-.749.225-.937c.14-.259.13-.375-.032-.475s-.17-.187-.02-.368c.298-.358.158-39.29-.14-39.29-.05 0-.083-.207-.074-.459.02-.472-.344-1.38-.623-1.56-.087-.056-.15-.15-.143-.208.076-.569-.02-.94-.246-.94-.143 0-.2-.081-.15-.179s-.066-.373-.282-.61-.3-.377-.184-.311c.35.201.237.01-.375-.639-.32-.34-.583-.692-.583-.783s-.075-.118-.167-.061-.167-.012-.167-.151-.152-.336-.338-.435-.294-.252-.24-.339.02-.159-.078-.159-.177-.094-.177-.21c0-.228-.665-.718-.887-.654-.076.021-.096-.028-.046-.109s-.056-.283-.238-.447-.33-.23-.335-.147-.15-.023-.326-.234-.485-.397-.686-.413-.4-.155-.44-.312-.17-.247-.287-.203-.257-.035-.312-.178-.224-.259-.376-.259-.544-.165-.87-.365c-.37-.229-.537-.276-.45-.125.107.18.063.174-.18-.027-.504-.419-.8-.57-.66-.326.102.166.053.168-.24.012-.202-.108-.53-.227-.728-.265a16.57 16.57 0 0 1-.777-.174c-.68-.173-5.228-.222-5.515-.06m-43.985 5.371l-.001 4.709 10-.093.084 52.759h9.333V50.324l9.917.093V41h-29.333v4.708m64.874 26.329l.042 31.046h9.334v-23.5l6.217.097.123.452c.067.248.145.626.173.839s.14.494.247.625c.153.184.15.237-.01.237s-.152.067.02.276c.126.152.204.283.173.292s-.01.203.043.432.12.584.148.788.1.421.164.483.16.476.22.918c.07.531.17.767.294.693s.12-.027-.01.134-.144.332-.044.49a1.4 1.4 0 0 1 .157.619c.001.207.08.375.175.375s.16.169.14.375c-.053.62.01.984.16.893.076-.048.138.02.138.149s-.07.192-.155.139-.07.063.034.258.13.354.058.356-.04.059.07.129.23.388.27.706.154.79.258 1.048.2.645.2.861.093.43.208.476c.16.065.158.087-.01.097-.133.008-.166.095-.086.222a1.26 1.26 0 0 1 .148.291l.138.75c.068.367.207.855.31 1.084s.2.548.218.708a2.97 2.97 0 0 0 .073.417c.022.068.027.256.01.416s.055.292.158.292.138.078.08.174-.017.283.094.417c.144.173.147.242.013.242s-.14.098-.02.334c.404.802.448.932.407 1.209-.024.161.025.25.108.199s.145.08.14.291c-.012.419.057.791.195 1.051.05.091.08.373.07.625s.05.458.133.458.1.104.062.231c-.334.87.045.936 5.395.936 4.996 0 5.4-.045 4.876-.559-.062-.063-.136-.245-.162-.403-.186-1.123-.26-1.485-.344-1.705a5.69 5.69 0 0 1-.329-1.292c-.047-.298-.14-.541-.208-.541s-.133-.319-.148-.709-.1-.732-.185-.76-.116-.161-.065-.292.014-.239-.082-.239-.178-.207-.184-.459c-.018-.699-.103-1.189-.23-1.316-.063-.063-.115-.274-.115-.47s-.093-.456-.208-.58c-.17-.182-.162-.198.042-.084s.214.095.046-.112c-.112-.139-.286-.659-.386-1.157s-.227-1.018-.282-1.156a2.93 2.93 0 0 1-.116-.333c-.01-.046-.084-.189-.166-.317-.108-.172-.09-.198.073-.098s.19.059.11-.155c-.06-.16-.112-.364-.112-.453s-.086-.11-.193-.044c-.132.082-.163.006-.1-.24.052-.198.022-.36-.066-.36s-.118-.069-.065-.155.022-.2-.067-.255-.122-.204-.074-.33-.03-.461-.177-.743-.264-.551-.262-.598a.5.5 0 0 0-.009-.127c-.036-.129-.2-1.42-.212-1.667-.008-.16-.06-.291-.117-.291s-.11-.094-.12-.209a4.72 4.72 0 0 0-.098-.541c-.045-.184-.087-.432-.094-.552-.007-.129-.097-.167-.22-.093-.14.085-.135.035.02-.157.126-.155.16-.282.077-.282s-.17-.238-.192-.53-.12-.626-.217-.743-.12-.302-.052-.412c.083-.135.052-.156-.098-.063-.16.098-.19.061-.116-.136.057-.149.036-.314-.048-.366s-.112-.197-.064-.323-.036-.47-.187-.763-.197-.485-.1-.425c.102.062.075-.177-.063-.568-.13-.371-.24-.712-.245-.756s-.016-.119-.027-.165l-.063-.25c-.023-.091-.057-.185-.076-.208-.125-.15-.342-2.016-.22-1.894.096.095.454-.219.547-.481.09-.248.454-.583.636-.583.176 0 .663-.683.735-1.03.025-.121.177-.318.338-.438s.29-.312.29-.426.19-.465.42-.778.383-.665.338-.782-.01-.213.076-.213c.25 0 .665-.936.665-1.502 0-.299.07-.475.165-.416s.123-.008.066-.157-.01-.258.105-.258c.16 0 .16-.054-.002-.25s-.164-.25-.003-.25c.113 0 .165-.106.115-.234s-.038-.285.024-.347c.235-.235.49-12.185.26-12.04-.17.105-.163-1.08.008-1.357.064-.104.018-.19-.102-.192-.16-.001-.15-.047.032-.166.157-.103.188-.211.083-.289-.166-.125-.274-.686-.313-1.625-.01-.275-.114-.6-.228-.721-.12-.127-.165-.393-.106-.631a.76.76 0 0 0-.183-.728c-.157-.174-.24-.391-.183-.482s.02-.216-.08-.277-.138-.222-.086-.357-.018-.358-.155-.495-.25-.39-.25-.562-.145-.413-.322-.537-.37-.42-.43-.658-.3-.59-.51-.783-.404-.426-.404-.518-.08-.168-.178-.168c-.22 0-.668-.431-.56-.54.044-.043-.05-.184-.206-.311-.245-.199-.266-.199-.145.002.096.159.08.196-.052.115-.105-.065-.192-.24-.192-.387s-.048-.22-.106-.161-.312-.061-.563-.264c-.845-.687-2.412-1.465-2.998-1.488a1.02 1.02 0 0 1-.5-.217c-.137-.114-.587-.248-1-.299s-.937-.152-1.166-.224-4.523-.155-9.542-.184l-9.126-.052.042 31.047m30.706-30.572c.046.546.446 1.744.626 1.878.07.05.192.454.275.895s.252.868.376.947c.185.117.18.146-.024.157-.168.01-.14.062.083.158.184.079.242.149.13.155s-.16.124-.108.261.175.199.273.139c.11-.067.14-.01.08.147a.5.5 0 0 0 .097.469c.15.162.147.184-.01.095-.14-.078-.174-.032-.108.142.055.142.157.259.227.259s.118.168.107.375.068.358.177.337c.125-.024.168.117.12.388s-.013.387.095.32c.1-.062.172.058.172.286 0 .217.073.466.162.555s.21.46.266.825.184.712.28.772.128.228.072.375-.018.267.087.267.14.05.077.111.013.249.165.417.218.305.147.305-.036.112.078.25.16.25.1.25.002.169.137.375.223.525.195.708.1.515.263.737.25.448.174.5c-.136.094.173.885.315.804.04-.022.018.027-.048.109s.028.435.206.785.324.745.324.878.077.268.17.3.187.299.208.597.094.54.163.54.125.107.125.236.094.274.208.321c.167.067.167.086 0 .097-.114.007-.208.092-.208.19s.088.122.195.055c.13-.081.16-.029.09.157-.06.153-.034.278.055.278s.16.145.16.322.087.534.193.792.177.57.156.694.034.181.122.126.202.008.252.139.015.264-.078.295-.032.239.14.469a2.28 2.28 0 0 1 .362.996c.03.321.1.621.16.667.284.218.903 1.958.77 2.171-.045.074-.003.16.093.192s.188.224.203.426.133.409.26.458c.176.068.188.146.048.314s-.103.331.16.665c.2.242.294.44.23.44s-.013.127.113.282c.182.225.183.255.007.149-.163-.098-.15.006.046.384.147.285.226.519.176.519s.032.187.182.416.208.419.13.422-.03.097.11.209.27.406.29.654c.05.681.103.853.332 1.1.115.124.167.294.115.379s-.003.153.1.153.155.049.094.11-.016.224.097.365c.17.211.164.233-.043.128-.193-.099-.2-.078.015.093.146.121.233.314.194.429a.15.15 0 0 0 .152.211c.167.002.16.043-.027.164-.167.108-.18.162-.042.164.115.002.208.153.208.336s.077.333.17.333c.114 0 .155 4.402.125 13.419-.037 11.119-.007 13.404.177 13.333.122-.047 2.24-.085 4.71-.085H338V90.417l.15-13.084c.083 0 .112-.15.064-.333-.05-.194-.005-.333.11-.333.107 0 .152-.071.1-.157s.006-.253.13-.37a.6.6 0 0 0 .145-.536c-.057-.216-.02-.283.108-.204.118.073.198.002.206-.182.012-.281.072-.592.212-1.093.055-.196.118-.375.385-1.083.06-.161.098-.348.083-.417s.052-.125.148-.125.156-.094.134-.208.136-.584.35-1.042.414-.983.44-1.167c.103-.707.227-1.125.392-1.324.094-.113.122-.256.062-.316s-.01-.11.112-.11.173-.049.113-.109-.026-.211.076-.334.12-.224.04-.226-.048-.064.07-.14.232-.412.25-.747.082-.61.14-.61.158-.206.22-.457.203-.513.3-.581c.135-.086.12-.125-.055-.129-.198-.004-.204-.034-.03-.144a.62.62 0 0 0 .255-.373 1.39 1.39 0 0 1 .166-.441c.07-.115.086-.209.032-.209s.014-.215.15-.479.2-.525.144-.583-.013-.104.1-.104.163-.068.112-.15.02-.363.156-.625.25-.612.25-.778.09-.466.202-.667a2.65 2.65 0 0 0 .254-.69c.03-.179.146-.385.258-.458.158-.102.153-.165-.023-.279-.15-.096-.164-.168-.043-.208.17-.057.488-.774 1.027-2.312.112-.321.27-.715.35-.875.088-.177.083-.292-.015-.292-.14 0 .262-.946.497-1.166.05-.046.096-.328.106-.627.018-.59.356-1.54.547-1.54.066 0 .132-.113.147-.25l.055-.5c.016-.138.1-.25.185-.25s.115-.108.065-.239-.01-.267.092-.301c.17-.056.29-.384.335-.918.01-.115.076-.209.147-.209s.1-.148.066-.329.008-.375.096-.429.12-.162.07-.24.022-.251.156-.385.204-.284.155-.332.04-.285.197-.525.244-.479.192-.531.052-.355.232-.674.236-.524.126-.456c-.142.087-.162.031-.068-.196a7.63 7.63 0 0 0 .214-.611c.046-.16.146-.292.222-.292s.108-.153.07-.341c-.037-.194.04-.382.176-.434s.202-.155.156-.231-.008-.185.087-.244.13-.174.08-.256.04-.356.205-.608.205-.398.09-.328c-.288.178-.262-.028.043-.333.506-.506.02-.558-5.198-.558-5.177 0-5.258.005-5.172.333.048.184.022.334-.06.334s-.107.1-.06.223-.026.316-.162.429-.21.305-.163.426.005.271-.093.331-.178.293-.178.517-.056.407-.125.407-.143.319-.166.708-.114.733-.203.762-.2.312-.27.627-.175.615-.258.666-.112.155-.065.231-.024.349-.158.607c-.168.323-.188.504-.065.58s.125.144-.006.225c-.1.062-.184.227-.184.366s-.11.361-.243.495-.205.34-.16.459-.007.436-.117.704-.188.543-.174.612-.048.125-.14.125-.167.079-.167.176.08.126.18.065.06.121-.086.405-.266.555-.264.602c.022.563-.024.754-.163.668s-.206.128-.153.523c.008.059-.086.17-.208.248-.173.109-.175.141-.01.143s.156.112-.035.482c-.136.263-.2.526-.143.583s.033.105-.055.105-.173.15-.2.333c-.07.725-.1.833-.244.833-.082 0-.1.079-.04.174s.027.271-.07.388-.21.396-.252.618-.1.422-.108.445c-.046.058-.08.196-.23.916-.077.367-.202.579-.304.515-.096-.059-.126-.029-.068.066s-.037.592-.214 1.105-.253.974-.17 1.025.118.184.08.295c-.11.324-.29 1.491-.315 2.037-.014.275-.09.605-.173.734-.1.158-.087.197.038.119.11-.068.09.066-.045.328-.126.243-.2.593-.164.778s.01.282-.056.216-.13-.264-.14-.439-.035-.338-.05-.361c-.028-.039-.154-1.244-.217-2.073-.016-.2-.076-.334-.136-.298s-.115-.212-.124-.552c-.02-.753-.098-1.155-.252-1.309-.177-.177-.138-.427.05-.311.094.058.122-.009.065-.157-.054-.142-.174-.259-.266-.259s-.123-.112-.07-.25.014-.25-.085-.25-.142-.15-.094-.333.02-.292-.064-.24-.16-.024-.172-.167c-.022-.279-.084-.567-.136-.635-.018-.023-.066-.3-.106-.616s-.19-.749-.33-.963-.205-.47-.144-.569.045-.228-.037-.287c-.13-.092-.25-.443-.578-1.69-.036-.137-.128-.295-.203-.351s-.176-.43-.223-.833-.2-1.014-.32-1.358-.225-.644-.212-.666c.07-.124-.238-.792-.365-.792-.082 0-.106-.113-.053-.252s.004-.363-.11-.5-.15-.248-.082-.248.035-.107-.073-.238-.205-.469-.213-.751-.115-.595-.237-.697-.182-.251-.132-.333.01-.147-.088-.147-.147-.183-.104-.416-.03-.52-.155-.647a1.27 1.27 0 0 1-.285-.625c-.03-.218-.106-.477-.168-.576s-.158-.431-.21-.736-.15-.637-.212-.736-.09-.314-.065-.477-.12-.569-.327-.904-.287-.554-.178-.486c.28.173.246.007-.064-.302-.226-.227-.943-.262-5.313-.262h-5.05l.04.465M94.943 48.792c-.042.068.178.13.5.137s.567-.058.567-.145.11-.068.243.043.312.159.397.106.245.011.353.142.305.197.436.147.238-.015.238.077.225.247.5.343.5.29.5.433.1.258.246.258.374.207.53.459a8.42 8.42 0 0 0 .628.86c.2.221.252.348.138.283-.14-.08-.174-.035-.107.139.054.141.184.206.29.143s.08.027-.06.2-.164.262-.06.199c.117-.07.205.03.228.26.122 1.213.143 36.035.022 36.188-.08.103-.135.39-.12.64s-.07.491-.187.536-.17.186-.12.315-.2.526-.586.916c-.372.375-.676.744-.676.818 0 .148-.934.671-1.333.747-.138.026-.29.1-.338.163-.406.539-2.943.433-4.02-.167-.513-.285-.98-.472-1.037-.414S92 92.593 92 92.435s-.075-.242-.167-.185-.166.019-.166-.083-.087-.133-.193-.068c-.115.072-.147.046-.08-.063.062-.1-.02-.26-.182-.354s-.234-.174-.158-.177.037-.109-.084-.236c-.536-.564-.768-.915-.67-1.014.058-.059-.004-.175-.14-.258-.38-.235-.454-36.437-.077-37.168.14-.271.256-.512.256-.536.01-.277.23-.793.34-.793.078 0 .1-.106.052-.235-.056-.145.09-.323.38-.466.264-.129.46-.354.447-.513s.044-.241.125-.191.148.012.148-.085a.18.18 0 0 1 .182-.177c.1 0 .372-.149.603-.331s.487-.29.568-.24.147.012.147-.085.258-.177.574-.177.62-.075.676-.167.178-.166.27-.166.132.056.1.125m173.182.91c.15.123.2.107.213-.057.004-.153.062-.131.177.067.095.162.24.253.322.202s.452.098.82.33.746.423.84.423.17.079.17.175.224.416.5.709.5.626.5.741.076.208.167.208.153.056.137.125.062.425.174.792c.21.687.208 35.939-.003 36.957-.052.251-.31.776-.576 1.166s-.538.849-.608 1.019c-.073.179-.227.27-.366.217-.17-.065-.2-.012-.138.176.057.148.035.227-.05.175s-.416.052-.736.232-.436.282-.255.226.27-.044.197.028c-.257.258-1.397.501-2.246.479-.498-.012-.864.052-.866.152s-.068.069-.148-.057-.223-.181-.32-.122-.22.034-.274-.055-.2-.124-.323-.076-.268-.032-.323-.174-.276-.26-.49-.26-.544-.169-.73-.375-.5-.485-.696-.62-.36-.344-.36-.464-.113-.262-.253-.315-.232-.22-.208-.37-.044-.255-.153-.234c-.115.022-.172-.1-.136-.289.035-.179-.008-.37-.096-.424s-.116-.169-.063-.254.018-.155-.077-.155c-.3 0-.237-35.489.074-36.234.137-.329.21-.599.16-.599s.002-.169.117-.375.22-.432.235-.5a2.8 2.8 0 0 1 .067-.25c.022-.069.032-.182.02-.25s.036-.109.105-.088.363-.205.654-.5.48-.537.42-.537.152-.142.47-.315.637-.281.706-.24.125-.013.125-.12.116-.15.26-.095c.167.064.217.032.14-.092-.08-.13-.003-.161.24-.097.198.052.39.044.43-.018.114-.184 1.83-.174 2.056.012m-96.625.443c.412.111.844.211.958.223s.21.089.21.172c0 .206.353.538.72.676.166.063.26.182.2.264s.02.242.156.355.248.314.248.445.067.198.15.148c.146-.091.334.421.453 1.239.107.726.084 11.668-.025 11.843-.056.092-.128.439-.16.772s-.175.672-.32.753-.264.261-.264.4-.067.21-.15.159c-.146-.09-.43.369-.377.614.014.069-.086.125-.224.125s-.25.08-.25.177-.075.13-.166.073-.167-.023-.167.074-.094.158-.208.135a.13.13 0 0 0-.167.166c.023.115-.015.2-.083.189-.315-.05-.554.033-.473.163.05.079-.097.123-.324.098s-.412.018-.412.095-1.612.148-3.583.157l-3.583.018v-9.811l.117-9.929c.193-.193 6.897-.013 7.716.207m131.316.828c.076.122.185.218.243.212.438-.042 1.115.241 1.197.502.055.172.207.313.34.313a.24.24 0 0 1 .238.242c0 .133.132.318.292.411s.233.172.16.175-.037.174.077.38.188.443.164.525.01.27.073.417.142.379.173.517c.087.386.08 11.368-.007 11.455-.042.043-.036.182.013.31s-.027.276-.168.33-.216.205-.167.334-.034.282-.186.341-.236.212-.186.343.017.192-.074.135-.165-.002-.165.118-.15.314-.333.428-.333.288-.333.386c0 .294-.484.683-.69.555-.118-.073-.15-.048-.08.064.062.101-.048.27-.245.376-.3.155-.333.149-.226-.034.073-.123-.026-.086-.22.083s-.435.257-.536.194-.29-.026-.42.082-.31.15-.398.095-.21-.025-.267.069c-.065.104-1.25.169-3.095.169h-3V50.637l3.84.056c2.974.044 3.87.107 3.976.28" fill="#f04434"/></svg>